STARTFONT 2.1
FONT -Misaki-Gothic-Medium-R-Normal--8-80-75-75-C-80-jisx0208.1990-0
SIZE 8 75 75
FONTBOUNDINGBOX 8 8 0 -2
STARTPROPERTIES 19
FONTNAME_REGISTRY ""
FOUNDRY "Misaki"
FAMILY_NAME "Gothic"
WEIGHT_NAME "Medium"
SLANT "R"
SETWIDTH_NAME "Normal"
ADD_STYLE_NAME ""
PIXEL_SIZE 8
POINT_SIZE 80
RESOLUTION_X 75
RESOLUTION_Y 75
SPACING "C"
AVERAGE_WIDTH 80
CHARSET_REGISTRY "jisx0208.1990"
CHARSET_ENCODING "0"
DEFAULT_CHAR 8481
FONT_DESCENT 2
FONT_ASCENT 6
COPYRIGHT "Copyright(C) 2002-2012 Num Kadoma"
ENDPROPERTIES
CHARS 6962
STARTCHAR 2121
ENCODING 8481
SWIDTH 960 0
DWIDTH 8 0
BBX 8 8 0 -2
BITMAP
00
00
00
00
00
00
00
00
ENDCHAR
STARTCHAR 2122
ENCODING 8482
SWIDTH 960 0
DWIDTH 8 0
BBX 8 8 0 -2
BITMAP
00
00
00
00
00
80
40
00
ENDCHAR
STARTCHAR 2123
ENCODING 8483
SWIDTH 960 0
DWIDTH 8 0
BBX 8 8 0 -2
BITMAP
00
00
00
00
40
a0
40
00
ENDCHAR
STARTCHAR 2124
ENCODING 8484
SWIDTH 960 0
DWIDTH 8 0
BBX 8 8 0 -2
BITMAP
00
00
00
00
c0
40
80
00
ENDCHAR
STARTCHAR 2125
ENCODING 8485
SWIDTH 960 0
DWIDTH 8 0
BBX 8 8 0 -2
BITMAP
00
00
00
00
00
c0
c0
00
ENDCHAR
STARTCHAR 2126
ENCODING 8486
SWIDTH 960 0
DWIDTH 8 0
BBX 8 8 0 -2
BITMAP
00
00
00
30
30
00
00
00
ENDCHAR
STARTCHAR 2127
ENCODING 8487
SWIDTH 960 0
DWIDTH 8 0
BBX 8 8 0 -2
BITMAP
00
30
30
00
30
30
00
00
ENDCHAR
STARTCHAR 2128
ENCODING 8488
SWIDTH 960 0
DWIDTH 8 0
BBX 8 8 0 -2
BITMAP
00
30
30
00
30
10
20
00
ENDCHAR
STARTCHAR 2129
ENCODING 8489
SWIDTH 960 0
DWIDTH 8 0
BBX 8 8 0 -2
BITMAP
3c
42
02
0c
10
00
10
00
ENDCHAR
STARTCHAR 212a
ENCODING 8490
SWIDTH 960 0
DWIDTH 8 0
BBX 8 8 0 -2
BITMAP
10
10
10
10
10
00
10
00
ENDCHAR
STARTCHAR 212b
ENCODING 8491
SWIDTH 960 0
DWIDTH 8 0
BBX 8 8 0 -2
BITMAP
a0
50
00
00
00
00
00
00
ENDCHAR
STARTCHAR 212c
ENCODING 8492
SWIDTH 960 0
DWIDTH 8 0
BBX 8 8 0 -2
BITMAP
40
a0
40
00
00
00
00
00
ENDCHAR
STARTCHAR 212d
ENCODING 8493
SWIDTH 960 0
DWIDTH 8 0
BBX 8 8 0 -2
BITMAP
08
10
00
00
00
00
00
00
ENDCHAR
STARTCHAR 212e
ENCODING 8494
SWIDTH 960 0
DWIDTH 8 0
BBX 8 8 0 -2
BITMAP
20
10
00
00
00
00
00
00
ENDCHAR
STARTCHAR 212f
ENCODING 8495
SWIDTH 960 0
DWIDTH 8 0
BBX 8 8 0 -2
BITMAP
28
00
00
00
00
00
00
00
ENDCHAR
STARTCHAR 2130
ENCODING 8496
SWIDTH 960 0
DWIDTH 8 0
BBX 8 8 0 -2
BITMAP
10
28
00
00
00
00
00
00
ENDCHAR
STARTCHAR 2131
ENCODING 8497
SWIDTH 960 0
DWIDTH 8 0
BBX 8 8 0 -2
BITMAP
fe
00
00
00
00
00
00
00
ENDCHAR
STARTCHAR 2132
ENCODING 8498
SWIDTH 960 0
DWIDTH 8 0
BBX 8 8 0 -2
BITMAP
00
00
00
00
00
00
fe
00
ENDCHAR
STARTCHAR 2133
ENCODING 8499
SWIDTH 960 0
DWIDTH 8 0
BBX 8 8 0 -2
BITMAP
00
00
20
10
08
08
00
00
ENDCHAR
STARTCHAR 2134
ENCODING 8500
SWIDTH 960 0
DWIDTH 8 0
BBX 8 8 0 -2
BITMAP
0a
00
20
10
08
08
00
00
ENDCHAR
STARTCHAR 2135
ENCODING 8501
SWIDTH 960 0
DWIDTH 8 0
BBX 8 8 0 -2
BITMAP
00
20
10
08
0c
30
00
00
ENDCHAR
STARTCHAR 2136
ENCODING 8502
SWIDTH 960 0
DWIDTH 8 0
BBX 8 8 0 -2
BITMAP
0a
20
10
08
0c
30
00
00
ENDCHAR
STARTCHAR 2137
ENCODING 8503
SWIDTH 960 0
DWIDTH 8 0
BBX 8 8 0 -2
BITMAP
00
00
24
24
24
48
00
00
ENDCHAR
STARTCHAR 2138
ENCODING 8504
SWIDTH 960 0
DWIDTH 8 0
BBX 8 8 0 -2
BITMAP
10
28
c6
7c
10
10
fe
00
ENDCHAR
STARTCHAR 2139
ENCODING 8505
SWIDTH 960 0
DWIDTH 8 0
BBX 8 8 0 -2
BITMAP
00
20
3c
44
a8
10
08
00
ENDCHAR
STARTCHAR 213a
ENCODING 8506
SWIDTH 960 0
DWIDTH 8 0
BBX 8 8 0 -2
BITMAP
02
34
48
94
a4
c0
80
00
ENDCHAR
STARTCHAR 213b
ENCODING 8507
SWIDTH 960 0
DWIDTH 8 0
BBX 8 8 0 -2
BITMAP
00
38
44
82
82
44
38
00
ENDCHAR
STARTCHAR 213c
ENCODING 8508
SWIDTH 960 0
DWIDTH 8 0
BBX 8 8 0 -2
BITMAP
00
00
80
7e
00
00
00
00
ENDCHAR
STARTCHAR 213d
ENCODING 8509
SWIDTH 960 0
DWIDTH 8 0
BBX 8 8 0 -2
BITMAP
00
00
00
ff
00
00
00
00
ENDCHAR
STARTCHAR 213e
ENCODING 8510
SWIDTH 960 0
DWIDTH 8 0
BBX 8 8 0 -2
BITMAP
00
00
00
38
00
00
00
00
ENDCHAR
STARTCHAR 213f
ENCODING 8511
SWIDTH 960 0
DWIDTH 8 0
BBX 8 8 0 -2
BITMAP
02
04
08
10
20
40
80
00
ENDCHAR
STARTCHAR 2140
ENCODING 8512
SWIDTH 960 0
DWIDTH 8 0
BBX 8 8 0 -2
BITMAP
80
40
20
10
08
04
02
00
ENDCHAR
STARTCHAR 2141
ENCODING 8513
SWIDTH 960 0
DWIDTH 8 0
BBX 8 8 0 -2
BITMAP
00
00
60
92
0c
00
00
00
ENDCHAR
STARTCHAR 2142
ENCODING 8514
SWIDTH 960 0
DWIDTH 8 0
BBX 8 8 0 -2
BITMAP
28
28
28
28
28
28
28
00
ENDCHAR
STARTCHAR 2143
ENCODING 8515
SWIDTH 960 0
DWIDTH 8 0
BBX 8 8 0 -2
BITMAP
10
10
10
10
10
10
10
00
ENDCHAR
STARTCHAR 2144
ENCODING 8516
SWIDTH 960 0
DWIDTH 8 0
BBX 8 8 0 -2
BITMAP
00
00
00
92
00
00
00
00
ENDCHAR
STARTCHAR 2145
ENCODING 8517
SWIDTH 960 0
DWIDTH 8 0
BBX 8 8 0 -2
BITMAP
00
00
00
44
00
00
00
00
ENDCHAR
STARTCHAR 2146
ENCODING 8518
SWIDTH 960 0
DWIDTH 8 0
BBX 8 8 0 -2
BITMAP
02
04
06
00
00
00
00
00
ENDCHAR
STARTCHAR 2147
ENCODING 8519
SWIDTH 960 0
DWIDTH 8 0
BBX 8 8 0 -2
BITMAP
c0
40
80
00
00
00
00
00
ENDCHAR
STARTCHAR 2148
ENCODING 8520
SWIDTH 960 0
DWIDTH 8 0
BBX 8 8 0 -2
BITMAP
12
24
36
00
00
00
00
00
ENDCHAR
STARTCHAR 2149
ENCODING 8521
SWIDTH 960 0
DWIDTH 8 0
BBX 8 8 0 -2
BITMAP
d8
48
90
00
00
00
00
00
ENDCHAR
STARTCHAR 214a
ENCODING 8522
SWIDTH 960 0
DWIDTH 8 0
BBX 8 8 0 -2
BITMAP
02
04
08
08
08
04
02
00
ENDCHAR
STARTCHAR 214b
ENCODING 8523
SWIDTH 960 0
DWIDTH 8 0
BBX 8 8 0 -2
BITMAP
80
40
20
20
20
40
80
00
ENDCHAR
STARTCHAR 214c
ENCODING 8524
SWIDTH 960 0
DWIDTH 8 0
BBX 8 8 0 -2
BITMAP
06
18
10
10
10
18
06
00
ENDCHAR
STARTCHAR 214d
ENCODING 8525
SWIDTH 960 0
DWIDTH 8 0
BBX 8 8 0 -2
BITMAP
c0
30
10
10
10
30
c0
00
ENDCHAR
STARTCHAR 214e
ENCODING 8526
SWIDTH 960 0
DWIDTH 8 0
BBX 8 8 0 -2
BITMAP
0e
08
08
08
08
08
0e
00
ENDCHAR
STARTCHAR 214f
ENCODING 8527
SWIDTH 960 0
DWIDTH 8 0
BBX 8 8 0 -2
BITMAP
e0
20
20
20
20
20
e0
00
ENDCHAR
STARTCHAR 2150
ENCODING 8528
SWIDTH 960 0
DWIDTH 8 0
BBX 8 8 0 -2
BITMAP
06
08
08
10
08
08
06
00
ENDCHAR
STARTCHAR 2151
ENCODING 8529
SWIDTH 960 0
DWIDTH 8 0
BBX 8 8 0 -2
BITMAP
c0
20
20
10
20
20
c0
00
ENDCHAR
STARTCHAR 2152
ENCODING 8530
SWIDTH 960 0
DWIDTH 8 0
BBX 8 8 0 -2
BITMAP
02
04
08
10
08
04
02
00
ENDCHAR
STARTCHAR 2153
ENCODING 8531
SWIDTH 960 0
DWIDTH 8 0
BBX 8 8 0 -2
BITMAP
80
40
20
10
20
40
80
00
ENDCHAR
STARTCHAR 2154
ENCODING 8532
SWIDTH 960 0
DWIDTH 8 0
BBX 8 8 0 -2
BITMAP
0a
14
28
50
28
14
0a
00
ENDCHAR
STARTCHAR 2155
ENCODING 8533
SWIDTH 960 0
DWIDTH 8 0
BBX 8 8 0 -2
BITMAP
a0
50
28
14
28
50
a0
00
ENDCHAR
STARTCHAR 2156
ENCODING 8534
SWIDTH 960 0
DWIDTH 8 0
BBX 8 8 0 -2
BITMAP
1e
10
10
10
10
10
00
00
ENDCHAR
STARTCHAR 2157
ENCODING 8535
SWIDTH 960 0
DWIDTH 8 0
BBX 8 8 0 -2
BITMAP
00
10
10
10
10
10
f0
00
ENDCHAR
STARTCHAR 2158
ENCODING 8536
SWIDTH 960 0
DWIDTH 8 0
BBX 8 8 0 -2
BITMAP
3e
22
2e
28
28
38
00
00
ENDCHAR
STARTCHAR 2159
ENCODING 8537
SWIDTH 960 0
DWIDTH 8 0
BBX 8 8 0 -2
BITMAP
00
38
28
28
e8
88
f8
00
ENDCHAR
STARTCHAR 215a
ENCODING 8538
SWIDTH 960 0
DWIDTH 8 0
BBX 8 8 0 -2
BITMAP
0e
0c
08
08
08
0c
0e
00
ENDCHAR
STARTCHAR 215b
ENCODING 8539
SWIDTH 960 0
DWIDTH 8 0
BBX 8 8 0 -2
BITMAP
e0
60
20
20
20
60
e0
00
ENDCHAR
STARTCHAR 215c
ENCODING 8540
SWIDTH 960 0
DWIDTH 8 0
BBX 8 8 0 -2
BITMAP
10
10
10
fe
10
10
10
00
ENDCHAR
STARTCHAR 215d
ENCODING 8541
SWIDTH 960 0
DWIDTH 8 0
BBX 8 8 0 -2
BITMAP
00
00
00
fe
00
00
00
00
ENDCHAR
STARTCHAR 215e
ENCODING 8542
SWIDTH 960 0
DWIDTH 8 0
BBX 8 8 0 -2
BITMAP
10
10
fe
10
10
00
fe
00
ENDCHAR
STARTCHAR 215f
ENCODING 8543
SWIDTH 960 0
DWIDTH 8 0
BBX 8 8 0 -2
BITMAP
82
44
28
10
28
44
82
00
ENDCHAR
STARTCHAR 2160
ENCODING 8544
SWIDTH 960 0
DWIDTH 8 0
BBX 8 8 0 -2
BITMAP
00
10
00
fe
00
10
00
00
ENDCHAR
STARTCHAR 2161
ENCODING 8545
SWIDTH 960 0
DWIDTH 8 0
BBX 8 8 0 -2
BITMAP
00
00
fe
00
fe
00
00
00
ENDCHAR
STARTCHAR 2162
ENCODING 8546
SWIDTH 960 0
DWIDTH 8 0
BBX 8 8 0 -2
BITMAP
00
04
fe
10
fe
40
00
00
ENDCHAR
STARTCHAR 2163
ENCODING 8547
SWIDTH 960 0
DWIDTH 8 0
BBX 8 8 0 -2
BITMAP
00
06
38
c0
38
06
00
00
ENDCHAR
STARTCHAR 2164
ENCODING 8548
SWIDTH 960 0
DWIDTH 8 0
BBX 8 8 0 -2
BITMAP
00
c0
38
06
38
c0
00
00
ENDCHAR
STARTCHAR 2165
ENCODING 8549
SWIDTH 960 0
DWIDTH 8 0
BBX 8 8 0 -2
BITMAP
06
38
c0
38
06
00
fe
00
ENDCHAR
STARTCHAR 2166
ENCODING 8550
SWIDTH 960 0
DWIDTH 8 0
BBX 8 8 0 -2
BITMAP
c0
38
06
38
c0
00
fe
00
ENDCHAR
STARTCHAR 2167
ENCODING 8551
SWIDTH 960 0
DWIDTH 8 0
BBX 8 8 0 -2
BITMAP
00
6c
92
92
92
6c
00
00
ENDCHAR
STARTCHAR 2168
ENCODING 8552
SWIDTH 960 0
DWIDTH 8 0
BBX 8 8 0 -2
BITMAP
00
10
00
00
00
44
00
00
ENDCHAR
STARTCHAR 2169
ENCODING 8553
SWIDTH 960 0
DWIDTH 8 0
BBX 8 8 0 -2
BITMAP
1e
06
0a
72
90
90
60
00
ENDCHAR
STARTCHAR 216a
ENCODING 8554
SWIDTH 960 0
DWIDTH 8 0
BBX 8 8 0 -2
BITMAP
38
44
44
38
10
7c
10
00
ENDCHAR
STARTCHAR 216b
ENCODING 8555
SWIDTH 960 0
DWIDTH 8 0
BBX 8 8 0 -2
BITMAP
40
a0
40
00
00
00
00
00
ENDCHAR
STARTCHAR 216c
ENCODING 8556
SWIDTH 960 0
DWIDTH 8 0
BBX 8 8 0 -2
BITMAP
40
40
80
00
00
00
00
00
ENDCHAR
STARTCHAR 216d
ENCODING 8557
SWIDTH 960 0
DWIDTH 8 0
BBX 8 8 0 -2
BITMAP
50
50
a0
00
00
00
00
00
ENDCHAR
STARTCHAR 216e
ENCODING 8558
SWIDTH 960 0
DWIDTH 8 0
BBX 8 8 0 -2
BITMAP
40
ac
52
10
10
12
0c
00
ENDCHAR
STARTCHAR 216f
ENCODING 8559
SWIDTH 960 0
DWIDTH 8 0
BBX 8 8 0 -2
BITMAP
44
44
28
7c
10
7c
10
00
ENDCHAR
STARTCHAR 2170
ENCODING 8560
SWIDTH 960 0
DWIDTH 8 0
BBX 8 8 0 -2
BITMAP
08
3e
48
3c
12
7c
10
00
ENDCHAR
STARTCHAR 2171
ENCODING 8561
SWIDTH 960 0
DWIDTH 8 0
BBX 8 8 0 -2
BITMAP
04
3c
4a
48
52
3c
20
00
ENDCHAR
STARTCHAR 2172
ENCODING 8562
SWIDTH 960 0
DWIDTH 8 0
BBX 8 8 0 -2
BITMAP
18
24
70
20
60
92
6c
00
ENDCHAR
STARTCHAR 2173
ENCODING 8563
SWIDTH 960 0
DWIDTH 8 0
BBX 8 8 0 -2
BITMAP
42
a4
48
10
24
4a
84
00
ENDCHAR
STARTCHAR 2174
ENCODING 8564
SWIDTH 960 0
DWIDTH 8 0
BBX 8 8 0 -2
BITMAP
14
7e
28
28
28
fc
50
00
ENDCHAR
STARTCHAR 2175
ENCODING 8565
SWIDTH 960 0
DWIDTH 8 0
BBX 8 8 0 -2
BITMAP
30
48
50
24
54
88
76
00
ENDCHAR
STARTCHAR 2176
ENCODING 8566
SWIDTH 960 0
DWIDTH 8 0
BBX 8 8 0 -2
BITMAP
10
54
38
10
38
54
10
00
ENDCHAR
STARTCHAR 2177
ENCODING 8567
SWIDTH 960 0
DWIDTH 8 0
BBX 8 8 0 -2
BITMAP
38
44
9a
aa
b4
40
38
00
ENDCHAR
STARTCHAR 2178
ENCODING 8568
SWIDTH 960 0
DWIDTH 8 0
BBX 8 8 0 -2
BITMAP
1c
20
18
24
18
04
38
00
ENDCHAR
STARTCHAR 2179
ENCODING 8569
SWIDTH 960 0
DWIDTH 8 0
BBX 8 8 0 -2
BITMAP
10
10
fe
28
38
6c
44
00
ENDCHAR
STARTCHAR 217a
ENCODING 8570
SWIDTH 960 0
DWIDTH 8 0
BBX 8 8 0 -2
BITMAP
10
10
fe
38
38
6c
44
00
ENDCHAR
STARTCHAR 217b
ENCODING 8571
SWIDTH 960 0
DWIDTH 8 0
BBX 8 8 0 -2
BITMAP
38
44
82
82
82
44
38
00
ENDCHAR
STARTCHAR 217c
ENCODING 8572
SWIDTH 960 0
DWIDTH 8 0
BBX 8 8 0 -2
BITMAP
38
7c
fe
fe
fe
7c
38
00
ENDCHAR
STARTCHAR 217d
ENCODING 8573
SWIDTH 960 0
DWIDTH 8 0
BBX 8 8 0 -2
BITMAP
38
44
ba
aa
ba
44
38
00
ENDCHAR
STARTCHAR 217e
ENCODING 8574
SWIDTH 960 0
DWIDTH 8 0
BBX 8 8 0 -2
BITMAP
10
28
44
82
44
28
10
00
ENDCHAR
STARTCHAR 2221
ENCODING 8737
SWIDTH 960 0
DWIDTH 8 0
BBX 8 8 0 -2
BITMAP
10
38
7c
fe
7c
38
10
00
ENDCHAR
STARTCHAR 2222
ENCODING 8738
SWIDTH 960 0
DWIDTH 8 0
BBX 8 8 0 -2
BITMAP
fe
82
82
82
82
82
fe
00
ENDCHAR
STARTCHAR 2223
ENCODING 8739
SWIDTH 960 0
DWIDTH 8 0
BBX 8 8 0 -2
BITMAP
fe
fe
fe
fe
fe
fe
fe
00
ENDCHAR
STARTCHAR 2224
ENCODING 8740
SWIDTH 960 0
DWIDTH 8 0
BBX 8 8 0 -2
BITMAP
10
10
28
28
44
44
fe
00
ENDCHAR
STARTCHAR 2225
ENCODING 8741
SWIDTH 960 0
DWIDTH 8 0
BBX 8 8 0 -2
BITMAP
10
10
38
38
7c
7c
fe
00
ENDCHAR
STARTCHAR 2226
ENCODING 8742
SWIDTH 960 0
DWIDTH 8 0
BBX 8 8 0 -2
BITMAP
fe
44
44
28
28
10
10
00
ENDCHAR
STARTCHAR 2227
ENCODING 8743
SWIDTH 960 0
DWIDTH 8 0
BBX 8 8 0 -2
BITMAP
fe
7c
7c
38
38
10
10
00
ENDCHAR
STARTCHAR 2228
ENCODING 8744
SWIDTH 960 0
DWIDTH 8 0
BBX 8 8 0 -2
BITMAP
92
44
28
92
28
44
92
00
ENDCHAR
STARTCHAR 2229
ENCODING 8745
SWIDTH 960 0
DWIDTH 8 0
BBX 8 8 0 -2
BITMAP
fe
00
fe
10
10
10
10
00
ENDCHAR
STARTCHAR 222a
ENCODING 8746
SWIDTH 960 0
DWIDTH 8 0
BBX 8 8 0 -2
BITMAP
00
08
04
fe
04
08
00
00
ENDCHAR
STARTCHAR 222b
ENCODING 8747
SWIDTH 960 0
DWIDTH 8 0
BBX 8 8 0 -2
BITMAP
00
20
40
fe
40
20
00
00
ENDCHAR
STARTCHAR 222c
ENCODING 8748
SWIDTH 960 0
DWIDTH 8 0
BBX 8 8 0 -2
BITMAP
10
38
54
10
10
10
10
00
ENDCHAR
STARTCHAR 222d
ENCODING 8749
SWIDTH 960 0
DWIDTH 8 0
BBX 8 8 0 -2
BITMAP
10
10
10
10
54
38
10
00
ENDCHAR
STARTCHAR 222e
ENCODING 8750
SWIDTH 960 0
DWIDTH 8 0
BBX 8 8 0 -2
BITMAP
00
fe
fe
00
fe
fe
00
00
ENDCHAR
STARTCHAR 223a
ENCODING 8762
SWIDTH 960 0
DWIDTH 8 0
BBX 8 8 0 -2
BITMAP
00
3e
40
7e
40
3e
00
00
ENDCHAR
STARTCHAR 223b
ENCODING 8763
SWIDTH 960 0
DWIDTH 8 0
BBX 8 8 0 -2
BITMAP
00
7c
02
7e
02
7c
00
00
ENDCHAR
STARTCHAR 223c
ENCODING 8764
SWIDTH 960 0
DWIDTH 8 0
BBX 8 8 0 -2
BITMAP
3e
40
40
40
3e
00
7e
00
ENDCHAR
STARTCHAR 223d
ENCODING 8765
SWIDTH 960 0
DWIDTH 8 0
BBX 8 8 0 -2
BITMAP
7c
02
02
02
7c
00
7e
00
ENDCHAR
STARTCHAR 223e
ENCODING 8766
SWIDTH 960 0
DWIDTH 8 0
BBX 8 8 0 -2
BITMAP
00
3e
40
40
40
3e
00
00
ENDCHAR
STARTCHAR 223f
ENCODING 8767
SWIDTH 960 0
DWIDTH 8 0
BBX 8 8 0 -2
BITMAP
00
7c
02
02
02
7c
00
00
ENDCHAR
STARTCHAR 2240
ENCODING 8768
SWIDTH 960 0
DWIDTH 8 0
BBX 8 8 0 -2
BITMAP
42
42
42
42
42
3c
00
00
ENDCHAR
STARTCHAR 2241
ENCODING 8769
SWIDTH 960 0
DWIDTH 8 0
BBX 8 8 0 -2
BITMAP
00
3c
42
42
42
42
42
00
ENDCHAR
STARTCHAR 224a
ENCODING 8778
SWIDTH 960 0
DWIDTH 8 0
BBX 8 8 0 -2
BITMAP
10
10
28
28
44
44
82
00
ENDCHAR
STARTCHAR 224b
ENCODING 8779
SWIDTH 960 0
DWIDTH 8 0
BBX 8 8 0 -2
BITMAP
82
44
44
28
28
10
10
00
ENDCHAR
STARTCHAR 224c
ENCODING 8780
SWIDTH 960 0
DWIDTH 8 0
BBX 8 8 0 -2
BITMAP
00
00
00
fe
02
02
00
00
ENDCHAR
STARTCHAR 224d
ENCODING 8781
SWIDTH 960 0
DWIDTH 8 0
BBX 8 8 0 -2
BITMAP
00
08
fc
02
fc
08
00
00
ENDCHAR
STARTCHAR 224e
ENCODING 8782
SWIDTH 960 0
DWIDTH 8 0
BBX 8 8 0 -2
BITMAP
00
28
7c
82
7c
28
00
00
ENDCHAR
STARTCHAR 224f
ENCODING 8783
SWIDTH 960 0
DWIDTH 8 0
BBX 8 8 0 -2
BITMAP
82
82
7c
44
28
28
10
00
ENDCHAR
STARTCHAR 2250
ENCODING 8784
SWIDTH 960 0
DWIDTH 8 0
BBX 8 8 0 -2
BITMAP
7e
02
02
7e
02
02
7e
00
ENDCHAR
STARTCHAR 225c
ENCODING 8796
SWIDTH 960 0
DWIDTH 8 0
BBX 8 8 0 -2
BITMAP
00
02
04
08
10
20
7e
00
ENDCHAR
STARTCHAR 225d
ENCODING 8797
SWIDTH 960 0
DWIDTH 8 0
BBX 8 8 0 -2
BITMAP
00
10
10
10
10
10
fe
00
ENDCHAR
STARTCHAR 225e
ENCODING 8798
SWIDTH 960 0
DWIDTH 8 0
BBX 8 8 0 -2
BITMAP
7c
82
00
00
00
00
00
00
ENDCHAR
STARTCHAR 225f
ENCODING 8799
SWIDTH 960 0
DWIDTH 8 0
BBX 8 8 0 -2
BITMAP
18
24
04
34
48
48
30
00
ENDCHAR
STARTCHAR 2260
ENCODING 8800
SWIDTH 960 0
DWIDTH 8 0
BBX 8 8 0 -2
BITMAP
fe
82
44
44
28
28
10
00
ENDCHAR
STARTCHAR 2261
ENCODING 8801
SWIDTH 960 0
DWIDTH 8 0
BBX 8 8 0 -2
BITMAP
00
7e
00
7e
00
7e
00
00
ENDCHAR
STARTCHAR 2262
ENCODING 8802
SWIDTH 960 0
DWIDTH 8 0
BBX 8 8 0 -2
BITMAP
40
00
fe
00
fe
00
04
00
ENDCHAR
STARTCHAR 2263
ENCODING 8803
SWIDTH 960 0
DWIDTH 8 0
BBX 8 8 0 -2
BITMAP
00
24
48
90
48
24
00
00
ENDCHAR
STARTCHAR 2264
ENCODING 8804
SWIDTH 960 0
DWIDTH 8 0
BBX 8 8 0 -2
BITMAP
00
48
24
12
24
48
00
00
ENDCHAR
STARTCHAR 2265
ENCODING 8805
SWIDTH 960 0
DWIDTH 8 0
BBX 8 8 0 -2
BITMAP
1e
10
20
20
e0
40
40
00
ENDCHAR
STARTCHAR 2266
ENCODING 8806
SWIDTH 960 0
DWIDTH 8 0
BBX 8 8 0 -2
BITMAP
00
4c
92
92
92
64
00
00
ENDCHAR
STARTCHAR 2267
ENCODING 8807
SWIDTH 960 0
DWIDTH 8 0
BBX 8 8 0 -2
BITMAP
00
6c
92
90
92
6c
00
00
ENDCHAR
STARTCHAR 2268
ENCODING 8808
SWIDTH 960 0
DWIDTH 8 0
BBX 8 8 0 -2
BITMAP
00
44
00
00
00
10
00
00
ENDCHAR
STARTCHAR 2269
ENCODING 8809
SWIDTH 960 0
DWIDTH 8 0
BBX 8 8 0 -2
BITMAP
18
20
20
10
08
08
30
00
ENDCHAR
STARTCHAR 226a
ENCODING 8810
SWIDTH 960 0
DWIDTH 8 0
BBX 8 8 0 -2
BITMAP
36
48
48
24
12
12
6c
00
ENDCHAR
STARTCHAR 2272
ENCODING 8818
SWIDTH 960 0
DWIDTH 8 0
BBX 8 8 0 -2
BITMAP
10
28
10
28
44
7c
82
00
ENDCHAR
STARTCHAR 2273
ENCODING 8819
SWIDTH 960 0
DWIDTH 8 0
BBX 8 8 0 -2
BITMAP
44
a8
50
20
54
aa
14
00
ENDCHAR
STARTCHAR 2274
ENCODING 8820
SWIDTH 960 0
DWIDTH 8 0
BBX 8 8 0 -2
BITMAP
04
26
3c
66
3c
64
20
00
ENDCHAR
STARTCHAR 2275
ENCODING 8821
SWIDTH 960 0
DWIDTH 8 0
BBX 8 8 0 -2
BITMAP
20
20
28
34
24
28
30
00
ENDCHAR
STARTCHAR 2276
ENCODING 8822
SWIDTH 960 0
DWIDTH 8 0
BBX 8 8 0 -2
BITMAP
10
18
14
14
30
70
60
00
ENDCHAR
STARTCHAR 2277
ENCODING 8823
SWIDTH 960 0
DWIDTH 8 0
BBX 8 8 0 -2
BITMAP
10
38
10
10
10
10
10
00
ENDCHAR
STARTCHAR 2278
ENCODING 8824
SWIDTH 960 0
DWIDTH 8 0
BBX 8 8 0 -2
BITMAP
10
38
10
10
10
38
10
00
ENDCHAR
STARTCHAR 2279
ENCODING 8825
SWIDTH 960 0
DWIDTH 8 0
BBX 8 8 0 -2
BITMAP
3c
74
74
34
14
14
14
00
ENDCHAR
STARTCHAR 227e
ENCODING 8830
SWIDTH 960 0
DWIDTH 8 0
BBX 8 8 0 -2
BITMAP
7c
82
82
82
82
82
7c
00
ENDCHAR
STARTCHAR 2330
ENCODING 9008
SWIDTH 960 0
DWIDTH 8 0
BBX 8 8 0 -2
BITMAP
3c
42
42
42
42
42
3c
00
ENDCHAR
STARTCHAR 2331
ENCODING 9009
SWIDTH 960 0
DWIDTH 8 0
BBX 8 8 0 -2
BITMAP
10
30
10
10
10
10
38
00
ENDCHAR
STARTCHAR 2332
ENCODING 9010
SWIDTH 960 0
DWIDTH 8 0
BBX 8 8 0 -2
BITMAP
3c
42
02
0c
30
40
7e
00
ENDCHAR
STARTCHAR 2333
ENCODING 9011
SWIDTH 960 0
DWIDTH 8 0
BBX 8 8 0 -2
BITMAP
3c
42
02
1c
02
42
3c
00
ENDCHAR
STARTCHAR 2334
ENCODING 9012
SWIDTH 960 0
DWIDTH 8 0
BBX 8 8 0 -2
BITMAP
04
0c
14
24
44
7e
04
00
ENDCHAR
STARTCHAR 2335
ENCODING 9013
SWIDTH 960 0
DWIDTH 8 0
BBX 8 8 0 -2
BITMAP
7e
40
7c
42
02
42
3c
00
ENDCHAR
STARTCHAR 2336
ENCODING 9014
SWIDTH 960 0
DWIDTH 8 0
BBX 8 8 0 -2
BITMAP
3c
42
40
7c
42
42
3c
00
ENDCHAR
STARTCHAR 2337
ENCODING 9015
SWIDTH 960 0
DWIDTH 8 0
BBX 8 8 0 -2
BITMAP
7e
02
04
08
08
10
10
00
ENDCHAR
STARTCHAR 2338
ENCODING 9016
SWIDTH 960 0
DWIDTH 8 0
BBX 8 8 0 -2
BITMAP
3c
42
42
3c
42
42
3c
00
ENDCHAR
STARTCHAR 2339
ENCODING 9017
SWIDTH 960 0
DWIDTH 8 0
BBX 8 8 0 -2
BITMAP
3c
42
42
3e
02
42
3c
00
ENDCHAR
STARTCHAR 2341
ENCODING 9025
SWIDTH 960 0
DWIDTH 8 0
BBX 8 8 0 -2
BITMAP
10
28
28
44
7c
82
82
00
ENDCHAR
STARTCHAR 2342
ENCODING 9026
SWIDTH 960 0
DWIDTH 8 0
BBX 8 8 0 -2
BITMAP
7c
42
42
7c
42
42
7c
00
ENDCHAR
STARTCHAR 2343
ENCODING 9027
SWIDTH 960 0
DWIDTH 8 0
BBX 8 8 0 -2
BITMAP
1c
22
40
40
40
22
1c
00
ENDCHAR
STARTCHAR 2344
ENCODING 9028
SWIDTH 960 0
DWIDTH 8 0
BBX 8 8 0 -2
BITMAP
78
44
42
42
42
44
78
00
ENDCHAR
STARTCHAR 2345
ENCODING 9029
SWIDTH 960 0
DWIDTH 8 0
BBX 8 8 0 -2
BITMAP
7e
40
40
7c
40
40
7e
00
ENDCHAR
STARTCHAR 2346
ENCODING 9030
SWIDTH 960 0
DWIDTH 8 0
BBX 8 8 0 -2
BITMAP
7e
40
40
7c
40
40
40
00
ENDCHAR
STARTCHAR 2347
ENCODING 9031
SWIDTH 960 0
DWIDTH 8 0
BBX 8 8 0 -2
BITMAP
1c
22
40
4e
42
22
1c
00
ENDCHAR
STARTCHAR 2348
ENCODING 9032
SWIDTH 960 0
DWIDTH 8 0
BBX 8 8 0 -2
BITMAP
42
42
42
7e
42
42
42
00
ENDCHAR
STARTCHAR 2349
ENCODING 9033
SWIDTH 960 0
DWIDTH 8 0
BBX 8 8 0 -2
BITMAP
38
10
10
10
10
10
38
00
ENDCHAR
STARTCHAR 234a
ENCODING 9034
SWIDTH 960 0
DWIDTH 8 0
BBX 8 8 0 -2
BITMAP
02
02
02
02
02
42
3c
00
ENDCHAR
STARTCHAR 234b
ENCODING 9035
SWIDTH 960 0
DWIDTH 8 0
BBX 8 8 0 -2
BITMAP
42
44
48
50
68
44
42
00
ENDCHAR
STARTCHAR 234c
ENCODING 9036
SWIDTH 960 0
DWIDTH 8 0
BBX 8 8 0 -2
BITMAP
40
40
40
40
40
40
7e
00
ENDCHAR
STARTCHAR 234d
ENCODING 9037
SWIDTH 960 0
DWIDTH 8 0
BBX 8 8 0 -2
BITMAP
82
c6
aa
aa
92
92
82
00
ENDCHAR
STARTCHAR 234e
ENCODING 9038
SWIDTH 960 0
DWIDTH 8 0
BBX 8 8 0 -2
BITMAP
42
62
52
4a
46
42
42
00
ENDCHAR
STARTCHAR 234f
ENCODING 9039
SWIDTH 960 0
DWIDTH 8 0
BBX 8 8 0 -2
BITMAP
18
24
42
42
42
24
18
00
ENDCHAR
STARTCHAR 2350
ENCODING 9040
SWIDTH 960 0
DWIDTH 8 0
BBX 8 8 0 -2
BITMAP
7c
42
42
7c
40
40
40
00
ENDCHAR
STARTCHAR 2351
ENCODING 9041
SWIDTH 960 0
DWIDTH 8 0
BBX 8 8 0 -2
BITMAP
18
24
42
42
4a
24
1a
00
ENDCHAR
STARTCHAR 2352
ENCODING 9042
SWIDTH 960 0
DWIDTH 8 0
BBX 8 8 0 -2
BITMAP
7c
42
42
7c
48
44
42
00
ENDCHAR
STARTCHAR 2353
ENCODING 9043
SWIDTH 960 0
DWIDTH 8 0
BBX 8 8 0 -2
BITMAP
3c
42
40
3c
02
42
3c
00
ENDCHAR
STARTCHAR 2354
ENCODING 9044
SWIDTH 960 0
DWIDTH 8 0
BBX 8 8 0 -2
BITMAP
fe
10
10
10
10
10
10
00
ENDCHAR
STARTCHAR 2355
ENCODING 9045
SWIDTH 960 0
DWIDTH 8 0
BBX 8 8 0 -2
BITMAP
42
42
42
42
42
42
3c
00
ENDCHAR
STARTCHAR 2356
ENCODING 9046
SWIDTH 960 0
DWIDTH 8 0
BBX 8 8 0 -2
BITMAP
82
82
44
44
28
28
10
00
ENDCHAR
STARTCHAR 2357
ENCODING 9047
SWIDTH 960 0
DWIDTH 8 0
BBX 8 8 0 -2
BITMAP
82
92
92
aa
aa
44
44
00
ENDCHAR
STARTCHAR 2358
ENCODING 9048
SWIDTH 960 0
DWIDTH 8 0
BBX 8 8 0 -2
BITMAP
82
44
28
10
28
44
82
00
ENDCHAR
STARTCHAR 2359
ENCODING 9049
SWIDTH 960 0
DWIDTH 8 0
BBX 8 8 0 -2
BITMAP
82
44
28
10
10
10
10
00
ENDCHAR
STARTCHAR 235a
ENCODING 9050
SWIDTH 960 0
DWIDTH 8 0
BBX 8 8 0 -2
BITMAP
7e
02
04
08
10
20
7e
00
ENDCHAR
STARTCHAR 2361
ENCODING 9057
SWIDTH 960 0
DWIDTH 8 0
BBX 8 8 0 -2
BITMAP
00
00
38
04
3c
44
3c
00
ENDCHAR
STARTCHAR 2362
ENCODING 9058
SWIDTH 960 0
DWIDTH 8 0
BBX 8 8 0 -2
BITMAP
40
40
58
64
44
44
78
00
ENDCHAR
STARTCHAR 2363
ENCODING 9059
SWIDTH 960 0
DWIDTH 8 0
BBX 8 8 0 -2
BITMAP
00
00
38
44
40
44
38
00
ENDCHAR
STARTCHAR 2364
ENCODING 9060
SWIDTH 960 0
DWIDTH 8 0
BBX 8 8 0 -2
BITMAP
04
04
34
4c
44
44
3c
00
ENDCHAR
STARTCHAR 2365
ENCODING 9061
SWIDTH 960 0
DWIDTH 8 0
BBX 8 8 0 -2
BITMAP
00
00
38
44
7c
40
38
00
ENDCHAR
STARTCHAR 2366
ENCODING 9062
SWIDTH 960 0
DWIDTH 8 0
BBX 8 8 0 -2
BITMAP
0c
10
38
10
10
10
10
00
ENDCHAR
STARTCHAR 2367
ENCODING 9063
SWIDTH 960 0
DWIDTH 8 0
BBX 8 8 0 -2
BITMAP
00
00
3c
44
3c
04
38
00
ENDCHAR
STARTCHAR 2368
ENCODING 9064
SWIDTH 960 0
DWIDTH 8 0
BBX 8 8 0 -2
BITMAP
40
40
58
64
44
44
44
00
ENDCHAR
STARTCHAR 2369
ENCODING 9065
SWIDTH 960 0
DWIDTH 8 0
BBX 8 8 0 -2
BITMAP
10
00
10
10
10
10
10
00
ENDCHAR
STARTCHAR 236a
ENCODING 9066
SWIDTH 960 0
DWIDTH 8 0
BBX 8 8 0 -2
BITMAP
08
00
08
08
08
48
30
00
ENDCHAR
STARTCHAR 236b
ENCODING 9067
SWIDTH 960 0
DWIDTH 8 0
BBX 8 8 0 -2
BITMAP
20
20
24
28
30
28
24
00
ENDCHAR
STARTCHAR 236c
ENCODING 9068
SWIDTH 960 0
DWIDTH 8 0
BBX 8 8 0 -2
BITMAP
30
10
10
10
10
10
10
00
ENDCHAR
STARTCHAR 236d
ENCODING 9069
SWIDTH 960 0
DWIDTH 8 0
BBX 8 8 0 -2
BITMAP
00
00
68
54
54
54
54
00
ENDCHAR
STARTCHAR 236e
ENCODING 9070
SWIDTH 960 0
DWIDTH 8 0
BBX 8 8 0 -2
BITMAP
00
00
58
64
44
44
44
00
ENDCHAR
STARTCHAR 236f
ENCODING 9071
SWIDTH 960 0
DWIDTH 8 0
BBX 8 8 0 -2
BITMAP
00
00
38
44
44
44
38
00
ENDCHAR
STARTCHAR 2370
ENCODING 9072
SWIDTH 960 0
DWIDTH 8 0
BBX 8 8 0 -2
BITMAP
00
00
78
44
78
40
40
00
ENDCHAR
STARTCHAR 2371
ENCODING 9073
SWIDTH 960 0
DWIDTH 8 0
BBX 8 8 0 -2
BITMAP
00
00
3c
44
3c
04
04
00
ENDCHAR
STARTCHAR 2372
ENCODING 9074
SWIDTH 960 0
DWIDTH 8 0
BBX 8 8 0 -2
BITMAP
00
00
58
64
40
40
40
00
ENDCHAR
STARTCHAR 2373
ENCODING 9075
SWIDTH 960 0
DWIDTH 8 0
BBX 8 8 0 -2
BITMAP
00
00
3c
40
38
04
78
00
ENDCHAR
STARTCHAR 2374
ENCODING 9076
SWIDTH 960 0
DWIDTH 8 0
BBX 8 8 0 -2
BITMAP
00
20
78
20
20
24
18
00
ENDCHAR
STARTCHAR 2375
ENCODING 9077
SWIDTH 960 0
DWIDTH 8 0
BBX 8 8 0 -2
BITMAP
00
00
44
44
44
4c
34
00
ENDCHAR
STARTCHAR 2376
ENCODING 9078
SWIDTH 960 0
DWIDTH 8 0
BBX 8 8 0 -2
BITMAP
00
00
44
44
28
28
10
00
ENDCHAR
STARTCHAR 2377
ENCODING 9079
SWIDTH 960 0
DWIDTH 8 0
BBX 8 8 0 -2
BITMAP
00
00
44
54
54
28
28
00
ENDCHAR
STARTCHAR 2378
ENCODING 9080
SWIDTH 960 0
DWIDTH 8 0
BBX 8 8 0 -2
BITMAP
00
00
44
28
10
28
44
00
ENDCHAR
STARTCHAR 2379
ENCODING 9081
SWIDTH 960 0
DWIDTH 8 0
BBX 8 8 0 -2
BITMAP
00
00
44
28
28
10
60
00
ENDCHAR
STARTCHAR 237a
ENCODING 9082
SWIDTH 960 0
DWIDTH 8 0
BBX 8 8 0 -2
BITMAP
00
00
7c
08
10
20
7c
00
ENDCHAR
STARTCHAR 2421
ENCODING 9249
SWIDTH 960 0
DWIDTH 8 0
BBX 8 8 0 -2
BITMAP
00
10
3c
10
3c
5a
32
00
ENDCHAR
STARTCHAR 2422
ENCODING 9250
SWIDTH 960 0
DWIDTH 8 0
BBX 8 8 0 -2
BITMAP
20
7c
20
3c
6a
b2
64
00
ENDCHAR
STARTCHAR 2423
ENCODING 9251
SWIDTH 960 0
DWIDTH 8 0
BBX 8 8 0 -2
BITMAP
00
00
48
44
44
50
20
00
ENDCHAR
STARTCHAR 2424
ENCODING 9252
SWIDTH 960 0
DWIDTH 8 0
BBX 8 8 0 -2
BITMAP
00
88
84
82
82
50
20
00
ENDCHAR
STARTCHAR 2425
ENCODING 9253
SWIDTH 960 0
DWIDTH 8 0
BBX 8 8 0 -2
BITMAP
00
38
00
38
44
08
30
00
ENDCHAR
STARTCHAR 2426
ENCODING 9254
SWIDTH 960 0
DWIDTH 8 0
BBX 8 8 0 -2
BITMAP
3c
00
3c
42
02
04
38
00
ENDCHAR
STARTCHAR 2427
ENCODING 9255
SWIDTH 960 0
DWIDTH 8 0
BBX 8 8 0 -2
BITMAP
00
38
00
78
10
30
4c
00
ENDCHAR
STARTCHAR 2428
ENCODING 9256
SWIDTH 960 0
DWIDTH 8 0
BBX 8 8 0 -2
BITMAP
3c
00
7c
08
18
28
46
00
ENDCHAR
STARTCHAR 2429
ENCODING 9257
SWIDTH 960 0
DWIDTH 8 0
BBX 8 8 0 -2
BITMAP
00
20
74
20
38
64
28
00
ENDCHAR
STARTCHAR 242a
ENCODING 9258
SWIDTH 960 0
DWIDTH 8 0
BBX 8 8 0 -2
BITMAP
20
f4
22
3c
62
a2
6c
00
ENDCHAR
STARTCHAR 242b
ENCODING 9259
SWIDTH 960 0
DWIDTH 8 0
BBX 8 8 0 -2
BITMAP
20
20
f4
2a
4a
48
b0
00
ENDCHAR
STARTCHAR 242c
ENCODING 9260
SWIDTH 960 0
DWIDTH 8 0
BBX 8 8 0 -2
BITMAP
2a
20
f4
2a
4a
48
b0
00
ENDCHAR
STARTCHAR 242d
ENCODING 9261
SWIDTH 960 0
DWIDTH 8 0
BBX 8 8 0 -2
BITMAP
10
7c
08
7e
24
40
3c
00
ENDCHAR
STARTCHAR 242e
ENCODING 9262
SWIDTH 960 0
DWIDTH 8 0
BBX 8 8 0 -2
BITMAP
14
7c
08
7e
24
40
3c
00
ENDCHAR
STARTCHAR 242f
ENCODING 9263
SWIDTH 960 0
DWIDTH 8 0
BBX 8 8 0 -2
BITMAP
04
08
30
40
30
08
04
00
ENDCHAR
STARTCHAR 2430
ENCODING 9264
SWIDTH 960 0
DWIDTH 8 0
BBX 8 8 0 -2
BITMAP
04
08
36
40
30
08
04
00
ENDCHAR
STARTCHAR 2431
ENCODING 9265
SWIDTH 960 0
DWIDTH 8 0
BBX 8 8 0 -2
BITMAP
88
88
be
88
88
88
10
00
ENDCHAR
STARTCHAR 2432
ENCODING 9266
SWIDTH 960 0
DWIDTH 8 0
BBX 8 8 0 -2
BITMAP
8a
88
be
88
88
88
10
00
ENDCHAR
STARTCHAR 2433
ENCODING 9267
SWIDTH 960 0
DWIDTH 8 0
BBX 8 8 0 -2
BITMAP
00
3c
00
00
20
40
3e
00
ENDCHAR
STARTCHAR 2434
ENCODING 9268
SWIDTH 960 0
DWIDTH 8 0
BBX 8 8 0 -2
BITMAP
0a
3c
00
00
20
40
3e
00
ENDCHAR
STARTCHAR 2435
ENCODING 9269
SWIDTH 960 0
DWIDTH 8 0
BBX 8 8 0 -2
BITMAP
08
08
7e
04
24
40
3c
00
ENDCHAR
STARTCHAR 2436
ENCODING 9270
SWIDTH 960 0
DWIDTH 8 0
BBX 8 8 0 -2
BITMAP
0a
08
7e
04
24
40
3c
00
ENDCHAR
STARTCHAR 2437
ENCODING 9271
SWIDTH 960 0
DWIDTH 8 0
BBX 8 8 0 -2
BITMAP
20
20
20
20
20
22
1c
00
ENDCHAR
STARTCHAR 2438
ENCODING 9272
SWIDTH 960 0
DWIDTH 8 0
BBX 8 8 0 -2
BITMAP
2a
20
20
20
20
22
1c
00
ENDCHAR
STARTCHAR 2439
ENCODING 9273
SWIDTH 960 0
DWIDTH 8 0
BBX 8 8 0 -2
BITMAP
08
fe
18
28
18
08
10
00
ENDCHAR
STARTCHAR 243a
ENCODING 9274
SWIDTH 960 0
DWIDTH 8 0
BBX 8 8 0 -2
BITMAP
0a
fe
18
28
18
08
10
00
ENDCHAR
STARTCHAR 243b
ENCODING 9275
SWIDTH 960 0
DWIDTH 8 0
BBX 8 8 0 -2
BITMAP
24
24
fe
24
2c
20
1e
00
ENDCHAR
STARTCHAR 243c
ENCODING 9276
SWIDTH 960 0
DWIDTH 8 0
BBX 8 8 0 -2
BITMAP
26
24
fe
24
2c
20
1e
00
ENDCHAR
STARTCHAR 243d
ENCODING 9277
SWIDTH 960 0
DWIDTH 8 0
BBX 8 8 0 -2
BITMAP
3c
08
10
7e
10
10
0c
00
ENDCHAR
STARTCHAR 243e
ENCODING 9278
SWIDTH 960 0
DWIDTH 8 0
BBX 8 8 0 -2
BITMAP
3c
0a
10
7e
10
10
0c
00
ENDCHAR
STARTCHAR 243f
ENCODING 9279
SWIDTH 960 0
DWIDTH 8 0
BBX 8 8 0 -2
BITMAP
20
f0
2e
40
48
50
8e
00
ENDCHAR
STARTCHAR 2440
ENCODING 9280
SWIDTH 960 0
DWIDTH 8 0
BBX 8 8 0 -2
BITMAP
2a
f0
2e
40
48
50
8e
00
ENDCHAR
STARTCHAR 2441
ENCODING 9281
SWIDTH 960 0
DWIDTH 8 0
BBX 8 8 0 -2
BITMAP
08
7e
10
1c
22
02
1c
00
ENDCHAR
STARTCHAR 2442
ENCODING 9282
SWIDTH 960 0
DWIDTH 8 0
BBX 8 8 0 -2
BITMAP
0a
7e
10
1c
22
02
1c
00
ENDCHAR
STARTCHAR 2443
ENCODING 9283
SWIDTH 960 0
DWIDTH 8 0
BBX 8 8 0 -2
BITMAP
00
00
00
18
64
04
18
00
ENDCHAR
STARTCHAR 2444
ENCODING 9284
SWIDTH 960 0
DWIDTH 8 0
BBX 8 8 0 -2
BITMAP
00
3c
c2
02
02
1c
00
00
ENDCHAR
STARTCHAR 2445
ENCODING 9285
SWIDTH 960 0
DWIDTH 8 0
BBX 8 8 0 -2
BITMAP
0a
3c
c2
02
02
1c
00
00
ENDCHAR
STARTCHAR 2446
ENCODING 9286
SWIDTH 960 0
DWIDTH 8 0
BBX 8 8 0 -2
BITMAP
0e
74
08
10
10
08
06
00
ENDCHAR
STARTCHAR 2447
ENCODING 9287
SWIDTH 960 0
DWIDTH 8 0
BBX 8 8 0 -2
BITMAP
0e
74
0a
10
10
08
06
00
ENDCHAR
STARTCHAR 2448
ENCODING 9288
SWIDTH 960 0
DWIDTH 8 0
BBX 8 8 0 -2
BITMAP
20
20
26
18
20
40
3e
00
ENDCHAR
STARTCHAR 2449
ENCODING 9289
SWIDTH 960 0
DWIDTH 8 0
BBX 8 8 0 -2
BITMAP
2a
20
26
18
20
40
3e
00
ENDCHAR
STARTCHAR 244a
ENCODING 9290
SWIDTH 960 0
DWIDTH 8 0
BBX 8 8 0 -2
BITMAP
20
f4
22
44
9c
26
18
00
ENDCHAR
STARTCHAR 244b
ENCODING 9291
SWIDTH 960 0
DWIDTH 8 0
BBX 8 8 0 -2
BITMAP
80
9c
80
80
90
a0
9e
00
ENDCHAR
STARTCHAR 244c
ENCODING 9292
SWIDTH 960 0
DWIDTH 8 0
BBX 8 8 0 -2
BITMAP
08
48
5c
6a
b2
a6
56
00
ENDCHAR
STARTCHAR 244d
ENCODING 9293
SWIDTH 960 0
DWIDTH 8 0
BBX 8 8 0 -2
BITMAP
20
2c
f2
22
66
aa
24
00
ENDCHAR
STARTCHAR 244e
ENCODING 9294
SWIDTH 960 0
DWIDTH 8 0
BBX 8 8 0 -2
BITMAP
00
38
54
92
a2
44
18
00
ENDCHAR
STARTCHAR 244f
ENCODING 9295
SWIDTH 960 0
DWIDTH 8 0
BBX 8 8 0 -2
BITMAP
84
84
be
84
9c
a4
9a
00
ENDCHAR
STARTCHAR 2450
ENCODING 9296
SWIDTH 960 0
DWIDTH 8 0
BBX 8 8 0 -2
BITMAP
86
84
be
84
9c
a4
9a
00
ENDCHAR
STARTCHAR 2451
ENCODING 9297
SWIDTH 960 0
DWIDTH 8 0
BBX 8 8 0 -2
BITMAP
84
8a
be
84
9c
a4
9a
00
ENDCHAR
STARTCHAR 2452
ENCODING 9298
SWIDTH 960 0
DWIDTH 8 0
BBX 8 8 0 -2
BITMAP
28
e4
26
44
44
44
38
00
ENDCHAR
STARTCHAR 2453
ENCODING 9299
SWIDTH 960 0
DWIDTH 8 0
BBX 8 8 0 -2
BITMAP
2a
e4
26
44
44
44
38
00
ENDCHAR
STARTCHAR 2454
ENCODING 9300
SWIDTH 960 0
DWIDTH 8 0
BBX 8 8 0 -2
BITMAP
2c
ea
26
44
44
44
38
00
ENDCHAR
STARTCHAR 2455
ENCODING 9301
SWIDTH 960 0
DWIDTH 8 0
BBX 8 8 0 -2
BITMAP
10
08
10
10
4c
4a
b2
00
ENDCHAR
STARTCHAR 2456
ENCODING 9302
SWIDTH 960 0
DWIDTH 8 0
BBX 8 8 0 -2
BITMAP
16
08
10
10
4c
4a
b2
00
ENDCHAR
STARTCHAR 2457
ENCODING 9303
SWIDTH 960 0
DWIDTH 8 0
BBX 8 8 0 -2
BITMAP
14
0a
14
10
4c
4a
b2
00
ENDCHAR
STARTCHAR 2458
ENCODING 9304
SWIDTH 960 0
DWIDTH 8 0
BBX 8 8 0 -2
BITMAP
00
20
50
88
06
00
00
00
ENDCHAR
STARTCHAR 2459
ENCODING 9305
SWIDTH 960 0
DWIDTH 8 0
BBX 8 8 0 -2
BITMAP
0a
20
50
88
06
00
00
00
ENDCHAR
STARTCHAR 245a
ENCODING 9306
SWIDTH 960 0
DWIDTH 8 0
BBX 8 8 0 -2
BITMAP
04
2a
54
88
06
00
00
00
ENDCHAR
STARTCHAR 245b
ENCODING 9307
SWIDTH 960 0
DWIDTH 8 0
BBX 8 8 0 -2
BITMAP
80
be
88
be
88
bc
ba
00
ENDCHAR
STARTCHAR 245c
ENCODING 9308
SWIDTH 960 0
DWIDTH 8 0
BBX 8 8 0 -2
BITMAP
8a
be
88
be
88
bc
ba
00
ENDCHAR
STARTCHAR 245d
ENCODING 9309
SWIDTH 960 0
DWIDTH 8 0
BBX 8 8 0 -2
BITMAP
84
ba
8c
be
88
bc
ba
00
ENDCHAR
STARTCHAR 245e
ENCODING 9310
SWIDTH 960 0
DWIDTH 8 0
BBX 8 8 0 -2
BITMAP
08
7e
08
7e
08
7c
7a
00
ENDCHAR
STARTCHAR 245f
ENCODING 9311
SWIDTH 960 0
DWIDTH 8 0
BBX 8 8 0 -2
BITMAP
70
10
24
7c
a6
c4
18
00
ENDCHAR
STARTCHAR 2460
ENCODING 9312
SWIDTH 960 0
DWIDTH 8 0
BBX 8 8 0 -2
BITMAP
20
f4
22
60
a0
62
3c
00
ENDCHAR
STARTCHAR 2461
ENCODING 9313
SWIDTH 960 0
DWIDTH 8 0
BBX 8 8 0 -2
BITMAP
08
48
5c
6a
b2
a2
54
00
ENDCHAR
STARTCHAR 2462
ENCODING 9314
SWIDTH 960 0
DWIDTH 8 0
BBX 8 8 0 -2
BITMAP
10
7c
20
7c
22
22
1c
00
ENDCHAR
STARTCHAR 2463
ENCODING 9315
SWIDTH 960 0
DWIDTH 8 0
BBX 8 8 0 -2
BITMAP
00
28
2c
72
14
10
08
00
ENDCHAR
STARTCHAR 2464
ENCODING 9316
SWIDTH 960 0
DWIDTH 8 0
BBX 8 8 0 -2
BITMAP
48
5c
e2
24
20
10
10
00
ENDCHAR
STARTCHAR 2465
ENCODING 9317
SWIDTH 960 0
DWIDTH 8 0
BBX 8 8 0 -2
BITMAP
00
10
58
74
54
18
20
00
ENDCHAR
STARTCHAR 2466
ENCODING 9318
SWIDTH 960 0
DWIDTH 8 0
BBX 8 8 0 -2
BITMAP
10
bc
d2
92
bc
10
20
00
ENDCHAR
STARTCHAR 2467
ENCODING 9319
SWIDTH 960 0
DWIDTH 8 0
BBX 8 8 0 -2
BITMAP
00
08
08
0c
38
48
34
00
ENDCHAR
STARTCHAR 2468
ENCODING 9320
SWIDTH 960 0
DWIDTH 8 0
BBX 8 8 0 -2
BITMAP
08
08
0e
08
38
4c
32
00
ENDCHAR
STARTCHAR 2469
ENCODING 9321
SWIDTH 960 0
DWIDTH 8 0
BBX 8 8 0 -2
BITMAP
30
08
40
5c
62
02
3c
00
ENDCHAR
STARTCHAR 246a
ENCODING 9322
SWIDTH 960 0
DWIDTH 8 0
BBX 8 8 0 -2
BITMAP
58
64
44
44
04
08
30
00
ENDCHAR
STARTCHAR 246b
ENCODING 9323
SWIDTH 960 0
DWIDTH 8 0
BBX 8 8 0 -2
BITMAP
3c
08
10
3c
42
32
3c
00
ENDCHAR
STARTCHAR 246c
ENCODING 9324
SWIDTH 960 0
DWIDTH 8 0
BBX 8 8 0 -2
BITMAP
20
2c
f4
24
64
a4
22
00
ENDCHAR
STARTCHAR 246d
ENCODING 9325
SWIDTH 960 0
DWIDTH 8 0
BBX 8 8 0 -2
BITMAP
3c
08
10
3c
42
02
3c
00
ENDCHAR
STARTCHAR 246e
ENCODING 9326
SWIDTH 960 0
DWIDTH 8 0
BBX 8 8 0 -2
BITMAP
00
10
14
7a
32
52
14
00
ENDCHAR
STARTCHAR 246f
ENCODING 9327
SWIDTH 960 0
DWIDTH 8 0
BBX 8 8 0 -2
BITMAP
20
2c
f2
22
62
a2
2c
00
ENDCHAR
STARTCHAR 2470
ENCODING 9328
SWIDTH 960 0
DWIDTH 8 0
BBX 8 8 0 -2
BITMAP
70
10
3c
52
96
aa
44
00
ENDCHAR
STARTCHAR 2471
ENCODING 9329
SWIDTH 960 0
DWIDTH 8 0
BBX 8 8 0 -2
BITMAP
38
10
38
44
18
6c
92
00
ENDCHAR
STARTCHAR 2472
ENCODING 9330
SWIDTH 960 0
DWIDTH 8 0
BBX 8 8 0 -2
BITMAP
10
7c
20
76
98
28
1e
00
ENDCHAR
STARTCHAR 2473
ENCODING 9331
SWIDTH 960 0
DWIDTH 8 0
BBX 8 8 0 -2
BITMAP
10
10
20
20
50
52
8c
00
ENDCHAR
STARTCHAR 2521
ENCODING 9505
SWIDTH 960 0
DWIDTH 8 0
BBX 8 8 0 -2
BITMAP
00
00
7c
14
18
10
20
00
ENDCHAR
STARTCHAR 2522
ENCODING 9506
SWIDTH 960 0
DWIDTH 8 0
BBX 8 8 0 -2
BITMAP
7e
02
14
18
10
10
20
00
ENDCHAR
STARTCHAR 2523
ENCODING 9507
SWIDTH 960 0
DWIDTH 8 0
BBX 8 8 0 -2
BITMAP
00
00
04
08
18
68
08
00
ENDCHAR
STARTCHAR 2524
ENCODING 9508
SWIDTH 960 0
DWIDTH 8 0
BBX 8 8 0 -2
BITMAP
02
04
08
18
68
08
08
00
ENDCHAR
STARTCHAR 2525
ENCODING 9509
SWIDTH 960 0
DWIDTH 8 0
BBX 8 8 0 -2
BITMAP
00
00
10
7c
44
08
30
00
ENDCHAR
STARTCHAR 2526
ENCODING 9510
SWIDTH 960 0
DWIDTH 8 0
BBX 8 8 0 -2
BITMAP
10
7e
42
02
04
08
30
00
ENDCHAR
STARTCHAR 2527
ENCODING 9511
SWIDTH 960 0
DWIDTH 8 0
BBX 8 8 0 -2
BITMAP
00
00
00
38
10
10
7c
00
ENDCHAR
STARTCHAR 2528
ENCODING 9512
SWIDTH 960 0
DWIDTH 8 0
BBX 8 8 0 -2
BITMAP
00
7c
10
10
10
fe
00
00
ENDCHAR
STARTCHAR 2529
ENCODING 9513
SWIDTH 960 0
DWIDTH 8 0
BBX 8 8 0 -2
BITMAP
00
00
08
7c
18
68
18
00
ENDCHAR
STARTCHAR 252a
ENCODING 9514
SWIDTH 960 0
DWIDTH 8 0
BBX 8 8 0 -2
BITMAP
08
fe
08
18
28
c8
18
00
ENDCHAR
STARTCHAR 252b
ENCODING 9515
SWIDTH 960 0
DWIDTH 8 0
BBX 8 8 0 -2
BITMAP
10
7e
12
12
12
22
46
00
ENDCHAR
STARTCHAR 252c
ENCODING 9516
SWIDTH 960 0
DWIDTH 8 0
BBX 8 8 0 -2
BITMAP
12
7e
12
12
12
22
46
00
ENDCHAR
STARTCHAR 252d
ENCODING 9517
SWIDTH 960 0
DWIDTH 8 0
BBX 8 8 0 -2
BITMAP
10
7c
10
10
7e
08
08
00
ENDCHAR
STARTCHAR 252e
ENCODING 9518
SWIDTH 960 0
DWIDTH 8 0
BBX 8 8 0 -2
BITMAP
14
7c
10
10
7e
08
08
00
ENDCHAR
STARTCHAR 252f
ENCODING 9519
SWIDTH 960 0
DWIDTH 8 0
BBX 8 8 0 -2
BITMAP
10
1e
22
42
04
08
30
00
ENDCHAR
STARTCHAR 2530
ENCODING 9520
SWIDTH 960 0
DWIDTH 8 0
BBX 8 8 0 -2
BITMAP
12
1e
22
42
04
08
30
00
ENDCHAR
STARTCHAR 2531
ENCODING 9521
SWIDTH 960 0
DWIDTH 8 0
BBX 8 8 0 -2
BITMAP
40
7e
48
88
08
10
20
00
ENDCHAR
STARTCHAR 2532
ENCODING 9522
SWIDTH 960 0
DWIDTH 8 0
BBX 8 8 0 -2
BITMAP
4a
7e
48
88
08
10
20
00
ENDCHAR
STARTCHAR 2533
ENCODING 9523
SWIDTH 960 0
DWIDTH 8 0
BBX 8 8 0 -2
BITMAP
00
7e
02
02
02
02
7e
00
ENDCHAR
STARTCHAR 2534
ENCODING 9524
SWIDTH 960 0
DWIDTH 8 0
BBX 8 8 0 -2
BITMAP
0a
7e
02
02
02
02
7e
00
ENDCHAR
STARTCHAR 2535
ENCODING 9525
SWIDTH 960 0
DWIDTH 8 0
BBX 8 8 0 -2
BITMAP
24
fe
24
24
04
08
30
00
ENDCHAR
STARTCHAR 2536
ENCODING 9526
SWIDTH 960 0
DWIDTH 8 0
BBX 8 8 0 -2
BITMAP
2a
fe
24
24
04
08
30
00
ENDCHAR
STARTCHAR 2537
ENCODING 9527
SWIDTH 960 0
DWIDTH 8 0
BBX 8 8 0 -2
BITMAP
40
20
42
22
04
08
70
00
ENDCHAR
STARTCHAR 2538
ENCODING 9528
SWIDTH 960 0
DWIDTH 8 0
BBX 8 8 0 -2
BITMAP
4a
20
42
22
04
08
70
00
ENDCHAR
STARTCHAR 2539
ENCODING 9529
SWIDTH 960 0
DWIDTH 8 0
BBX 8 8 0 -2
BITMAP
00
7c
04
08
08
34
c2
00
ENDCHAR
STARTCHAR 253a
ENCODING 9530
SWIDTH 960 0
DWIDTH 8 0
BBX 8 8 0 -2
BITMAP
0a
7c
04
08
08
34
c2
00
ENDCHAR
STARTCHAR 253b
ENCODING 9531
SWIDTH 960 0
DWIDTH 8 0
BBX 8 8 0 -2
BITMAP
20
20
fe
22
24
20
1e
00
ENDCHAR
STARTCHAR 253c
ENCODING 9532
SWIDTH 960 0
DWIDTH 8 0
BBX 8 8 0 -2
BITMAP
2a
20
fe
22
24
20
1e
00
ENDCHAR
STARTCHAR 253d
ENCODING 9533
SWIDTH 960 0
DWIDTH 8 0
BBX 8 8 0 -2
BITMAP
42
22
22
02
04
08
30
00
ENDCHAR
STARTCHAR 253e
ENCODING 9534
SWIDTH 960 0
DWIDTH 8 0
BBX 8 8 0 -2
BITMAP
46
22
22
02
04
08
30
00
ENDCHAR
STARTCHAR 253f
ENCODING 9535
SWIDTH 960 0
DWIDTH 8 0
BBX 8 8 0 -2
BITMAP
10
1e
22
5a
04
08
30
00
ENDCHAR
STARTCHAR 2540
ENCODING 9536
SWIDTH 960 0
DWIDTH 8 0
BBX 8 8 0 -2
BITMAP
12
1e
22
5a
04
08
30
00
ENDCHAR
STARTCHAR 2541
ENCODING 9537
SWIDTH 960 0
DWIDTH 8 0
BBX 8 8 0 -2
BITMAP
0c
70
10
fe
10
10
20
00
ENDCHAR
STARTCHAR 2542
ENCODING 9538
SWIDTH 960 0
DWIDTH 8 0
BBX 8 8 0 -2
BITMAP
0a
70
10
fe
10
10
20
00
ENDCHAR
STARTCHAR 2543
ENCODING 9539
SWIDTH 960 0
DWIDTH 8 0
BBX 8 8 0 -2
BITMAP
00
00
00
54
54
08
30
00
ENDCHAR
STARTCHAR 2544
ENCODING 9540
SWIDTH 960 0
DWIDTH 8 0
BBX 8 8 0 -2
BITMAP
00
a2
52
52
04
08
30
00
ENDCHAR
STARTCHAR 2545
ENCODING 9541
SWIDTH 960 0
DWIDTH 8 0
BBX 8 8 0 -2
BITMAP
0a
a0
52
52
04
08
30
00
ENDCHAR
STARTCHAR 2546
ENCODING 9542
SWIDTH 960 0
DWIDTH 8 0
BBX 8 8 0 -2
BITMAP
7c
00
fe
10
10
10
20
00
ENDCHAR
STARTCHAR 2547
ENCODING 9543
SWIDTH 960 0
DWIDTH 8 0
BBX 8 8 0 -2
BITMAP
7a
00
fe
10
10
10
20
00
ENDCHAR
STARTCHAR 2548
ENCODING 9544
SWIDTH 960 0
DWIDTH 8 0
BBX 8 8 0 -2
BITMAP
20
20
20
38
24
20
20
00
ENDCHAR
STARTCHAR 2549
ENCODING 9545
SWIDTH 960 0
DWIDTH 8 0
BBX 8 8 0 -2
BITMAP
2a
20
20
38
24
20
20
00
ENDCHAR
STARTCHAR 254a
ENCODING 9546
SWIDTH 960 0
DWIDTH 8 0
BBX 8 8 0 -2
BITMAP
10
10
fe
10
10
20
40
00
ENDCHAR
STARTCHAR 254b
ENCODING 9547
SWIDTH 960 0
DWIDTH 8 0
BBX 8 8 0 -2
BITMAP
00
7c
00
00
00
fe
00
00
ENDCHAR
STARTCHAR 254c
ENCODING 9548
SWIDTH 960 0
DWIDTH 8 0
BBX 8 8 0 -2
BITMAP
7c
04
34
08
18
24
c0
00
ENDCHAR
STARTCHAR 254d
ENCODING 9549
SWIDTH 960 0
DWIDTH 8 0
BBX 8 8 0 -2
BITMAP
10
7c
08
10
34
d2
10
00
ENDCHAR
STARTCHAR 254e
ENCODING 9550
SWIDTH 960 0
DWIDTH 8 0
BBX 8 8 0 -2
BITMAP
04
04
04
08
10
20
c0
00
ENDCHAR
STARTCHAR 254f
ENCODING 9551
SWIDTH 960 0
DWIDTH 8 0
BBX 8 8 0 -2
BITMAP
00
28
24
24
42
42
82
00
ENDCHAR
STARTCHAR 2550
ENCODING 9552
SWIDTH 960 0
DWIDTH 8 0
BBX 8 8 0 -2
BITMAP
06
28
24
24
42
42
82
00
ENDCHAR
STARTCHAR 2551
ENCODING 9553
SWIDTH 960 0
DWIDTH 8 0
BBX 8 8 0 -2
BITMAP
04
2a
24
24
42
42
82
00
ENDCHAR
STARTCHAR 2552
ENCODING 9554
SWIDTH 960 0
DWIDTH 8 0
BBX 8 8 0 -2
BITMAP
40
40
46
78
40
40
3e
00
ENDCHAR
STARTCHAR 2553
ENCODING 9555
SWIDTH 960 0
DWIDTH 8 0
BBX 8 8 0 -2
BITMAP
4a
40
46
78
40
40
3e
00
ENDCHAR
STARTCHAR 2554
ENCODING 9556
SWIDTH 960 0
DWIDTH 8 0
BBX 8 8 0 -2
BITMAP
44
4a
46
78
40
40
3e
00
ENDCHAR
STARTCHAR 2555
ENCODING 9557
SWIDTH 960 0
DWIDTH 8 0
BBX 8 8 0 -2
BITMAP
00
7e
02
02
04
08
30
00
ENDCHAR
STARTCHAR 2556
ENCODING 9558
SWIDTH 960 0
DWIDTH 8 0
BBX 8 8 0 -2
BITMAP
0a
7e
02
02
04
08
30
00
ENDCHAR
STARTCHAR 2557
ENCODING 9559
SWIDTH 960 0
DWIDTH 8 0
BBX 8 8 0 -2
BITMAP
04
7a
06
02
04
08
30
00
ENDCHAR
STARTCHAR 2558
ENCODING 9560
SWIDTH 960 0
DWIDTH 8 0
BBX 8 8 0 -2
BITMAP
00
20
50
88
04
02
00
00
ENDCHAR
STARTCHAR 2559
ENCODING 9561
SWIDTH 960 0
DWIDTH 8 0
BBX 8 8 0 -2
BITMAP
0a
20
50
88
04
02
00
00
ENDCHAR
STARTCHAR 255a
ENCODING 9562
SWIDTH 960 0
DWIDTH 8 0
BBX 8 8 0 -2
BITMAP
04
2a
54
88
04
02
00
00
ENDCHAR
STARTCHAR 255b
ENCODING 9563
SWIDTH 960 0
DWIDTH 8 0
BBX 8 8 0 -2
BITMAP
10
10
fe
10
54
92
30
00
ENDCHAR
STARTCHAR 255c
ENCODING 9564
SWIDTH 960 0
DWIDTH 8 0
BBX 8 8 0 -2
BITMAP
1a
10
fe
10
54
92
30
00
ENDCHAR
STARTCHAR 255d
ENCODING 9565
SWIDTH 960 0
DWIDTH 8 0
BBX 8 8 0 -2
BITMAP
14
1a
fc
10
54
92
30
00
ENDCHAR
STARTCHAR 255e
ENCODING 9566
SWIDTH 960 0
DWIDTH 8 0
BBX 8 8 0 -2
BITMAP
00
fe
02
04
28
10
08
00
ENDCHAR
STARTCHAR 255f
ENCODING 9567
SWIDTH 960 0
DWIDTH 8 0
BBX 8 8 0 -2
BITMAP
70
0c
20
18
00
70
0c
00
ENDCHAR
STARTCHAR 2560
ENCODING 9568
SWIDTH 960 0
DWIDTH 8 0
BBX 8 8 0 -2
BITMAP
10
10
20
20
48
44
fa
00
ENDCHAR
STARTCHAR 2561
ENCODING 9569
SWIDTH 960 0
DWIDTH 8 0
BBX 8 8 0 -2
BITMAP
04
04
74
08
14
24
c0
00
ENDCHAR
STARTCHAR 2562
ENCODING 9570
SWIDTH 960 0
DWIDTH 8 0
BBX 8 8 0 -2
BITMAP
3c
10
10
7e
10
10
0e
00
ENDCHAR
STARTCHAR 2563
ENCODING 9571
SWIDTH 960 0
DWIDTH 8 0
BBX 8 8 0 -2
BITMAP
00
00
20
3c
64
10
10
00
ENDCHAR
STARTCHAR 2564
ENCODING 9572
SWIDTH 960 0
DWIDTH 8 0
BBX 8 8 0 -2
BITMAP
20
2e
f2
24
10
10
10
00
ENDCHAR
STARTCHAR 2565
ENCODING 9573
SWIDTH 960 0
DWIDTH 8 0
BBX 8 8 0 -2
BITMAP
00
00
00
38
08
08
7c
00
ENDCHAR
STARTCHAR 2566
ENCODING 9574
SWIDTH 960 0
DWIDTH 8 0
BBX 8 8 0 -2
BITMAP
00
78
08
08
08
fe
00
00
ENDCHAR
STARTCHAR 2567
ENCODING 9575
SWIDTH 960 0
DWIDTH 8 0
BBX 8 8 0 -2
BITMAP
00
00
3c
04
1c
04
3c
00
ENDCHAR
STARTCHAR 2568
ENCODING 9576
SWIDTH 960 0
DWIDTH 8 0
BBX 8 8 0 -2
BITMAP
00
7e
02
3e
02
02
7e
00
ENDCHAR
STARTCHAR 2569
ENCODING 9577
SWIDTH 960 0
DWIDTH 8 0
BBX 8 8 0 -2
BITMAP
3c
00
7e
02
04
08
30
00
ENDCHAR
STARTCHAR 256a
ENCODING 9578
SWIDTH 960 0
DWIDTH 8 0
BBX 8 8 0 -2
BITMAP
44
44
44
44
04
08
30
00
ENDCHAR
STARTCHAR 256b
ENCODING 9579
SWIDTH 960 0
DWIDTH 8 0
BBX 8 8 0 -2
BITMAP
08
28
28
28
2a
4c
88
00
ENDCHAR
STARTCHAR 256c
ENCODING 9580
SWIDTH 960 0
DWIDTH 8 0
BBX 8 8 0 -2
BITMAP
20
20
20
22
24
28
30
00
ENDCHAR
STARTCHAR 256d
ENCODING 9581
SWIDTH 960 0
DWIDTH 8 0
BBX 8 8 0 -2
BITMAP
00
7e
42
42
42
42
7e
00
ENDCHAR
STARTCHAR 256e
ENCODING 9582
SWIDTH 960 0
DWIDTH 8 0
BBX 8 8 0 -2
BITMAP
00
00
7c
44
04
08
30
00
ENDCHAR
STARTCHAR 256f
ENCODING 9583
SWIDTH 960 0
DWIDTH 8 0
BBX 8 8 0 -2
BITMAP
00
7e
42
02
04
08
30
00
ENDCHAR
STARTCHAR 2570
ENCODING 9584
SWIDTH 960 0
DWIDTH 8 0
BBX 8 8 0 -2
BITMAP
04
7e
24
24
fe
04
04
00
ENDCHAR
STARTCHAR 2571
ENCODING 9585
SWIDTH 960 0
DWIDTH 8 0
BBX 8 8 0 -2
BITMAP
00
7c
08
10
10
fe
00
00
ENDCHAR
STARTCHAR 2572
ENCODING 9586
SWIDTH 960 0
DWIDTH 8 0
BBX 8 8 0 -2
BITMAP
7e
02
3e
02
04
08
30
00
ENDCHAR
STARTCHAR 2573
ENCODING 9587
SWIDTH 960 0
DWIDTH 8 0
BBX 8 8 0 -2
BITMAP
40
20
02
02
04
08
70
00
ENDCHAR
STARTCHAR 2574
ENCODING 9588
SWIDTH 960 0
DWIDTH 8 0
BBX 8 8 0 -2
BITMAP
12
7e
42
02
04
08
30
00
ENDCHAR
STARTCHAR 2575
ENCODING 9589
SWIDTH 960 0
DWIDTH 8 0
BBX 8 8 0 -2
BITMAP
00
00
10
7c
14
24
4c
00
ENDCHAR
STARTCHAR 2576
ENCODING 9590
SWIDTH 960 0
DWIDTH 8 0
BBX 8 8 0 -2
BITMAP
00
00
20
3c
48
08
10
00
ENDCHAR
STARTCHAR 2621
ENCODING 9761
SWIDTH 960 0
DWIDTH 8 0
BBX 8 8 0 -2
BITMAP
10
28
28
44
7c
82
82
00
ENDCHAR
STARTCHAR 2622
ENCODING 9762
SWIDTH 960 0
DWIDTH 8 0
BBX 8 8 0 -2
BITMAP
7c
42
42
7c
42
42
7c
00
ENDCHAR
STARTCHAR 2623
ENCODING 9763
SWIDTH 960 0
DWIDTH 8 0
BBX 8 8 0 -2
BITMAP
7e
40
40
40
40
40
40
00
ENDCHAR
STARTCHAR 2624
ENCODING 9764
SWIDTH 960 0
DWIDTH 8 0
BBX 8 8 0 -2
BITMAP
10
28
28
44
44
82
fe
00
ENDCHAR
STARTCHAR 2625
ENCODING 9765
SWIDTH 960 0
DWIDTH 8 0
BBX 8 8 0 -2
BITMAP
7e
40
40
7c
40
40
7e
00
ENDCHAR
STARTCHAR 2626
ENCODING 9766
SWIDTH 960 0
DWIDTH 8 0
BBX 8 8 0 -2
BITMAP
7e
02
04
08
10
20
7e
00
ENDCHAR
STARTCHAR 2627
ENCODING 9767
SWIDTH 960 0
DWIDTH 8 0
BBX 8 8 0 -2
BITMAP
42
42
42
7e
42
42
42
00
ENDCHAR
STARTCHAR 2628
ENCODING 9768
SWIDTH 960 0
DWIDTH 8 0
BBX 8 8 0 -2
BITMAP
38
44
82
ba
82
44
38
00
ENDCHAR
STARTCHAR 2629
ENCODING 9769
SWIDTH 960 0
DWIDTH 8 0
BBX 8 8 0 -2
BITMAP
38
10
10
10
10
10
38
00
ENDCHAR
STARTCHAR 262a
ENCODING 9770
SWIDTH 960 0
DWIDTH 8 0
BBX 8 8 0 -2
BITMAP
42
44
48
50
68
44
42
00
ENDCHAR
STARTCHAR 262b
ENCODING 9771
SWIDTH 960 0
DWIDTH 8 0
BBX 8 8 0 -2
BITMAP
10
28
28
44
44
82
82
00
ENDCHAR
STARTCHAR 262c
ENCODING 9772
SWIDTH 960 0
DWIDTH 8 0
BBX 8 8 0 -2
BITMAP
82
c6
aa
aa
92
92
82
00
ENDCHAR
STARTCHAR 262d
ENCODING 9773
SWIDTH 960 0
DWIDTH 8 0
BBX 8 8 0 -2
BITMAP
42
62
52
4a
46
42
42
00
ENDCHAR
STARTCHAR 262e
ENCODING 9774
SWIDTH 960 0
DWIDTH 8 0
BBX 8 8 0 -2
BITMAP
7e
00
00
3c
00
00
7e
00
ENDCHAR
STARTCHAR 262f
ENCODING 9775
SWIDTH 960 0
DWIDTH 8 0
BBX 8 8 0 -2
BITMAP
18
24
42
42
42
24
18
00
ENDCHAR
STARTCHAR 2630
ENCODING 9776
SWIDTH 960 0
DWIDTH 8 0
BBX 8 8 0 -2
BITMAP
7e
42
42
42
42
42
42
00
ENDCHAR
STARTCHAR 2631
ENCODING 9777
SWIDTH 960 0
DWIDTH 8 0
BBX 8 8 0 -2
BITMAP
7c
42
42
7c
40
40
40
00
ENDCHAR
STARTCHAR 2632
ENCODING 9778
SWIDTH 960 0
DWIDTH 8 0
BBX 8 8 0 -2
BITMAP
7e
20
10
08
10
20
7e
00
ENDCHAR
STARTCHAR 2633
ENCODING 9779
SWIDTH 960 0
DWIDTH 8 0
BBX 8 8 0 -2
BITMAP
fe
10
10
10
10
10
10
00
ENDCHAR
STARTCHAR 2634
ENCODING 9780
SWIDTH 960 0
DWIDTH 8 0
BBX 8 8 0 -2
BITMAP
82
44
28
10
10
10
10
00
ENDCHAR
STARTCHAR 2635
ENCODING 9781
SWIDTH 960 0
DWIDTH 8 0
BBX 8 8 0 -2
BITMAP
10
7c
92
92
92
7c
10
00
ENDCHAR
STARTCHAR 2636
ENCODING 9782
SWIDTH 960 0
DWIDTH 8 0
BBX 8 8 0 -2
BITMAP
82
44
28
10
28
44
82
00
ENDCHAR
STARTCHAR 2637
ENCODING 9783
SWIDTH 960 0
DWIDTH 8 0
BBX 8 8 0 -2
BITMAP
92
54
54
38
10
10
10
00
ENDCHAR
STARTCHAR 2638
ENCODING 9784
SWIDTH 960 0
DWIDTH 8 0
BBX 8 8 0 -2
BITMAP
38
44
82
82
44
28
ee
00
ENDCHAR
STARTCHAR 2641
ENCODING 9793
SWIDTH 960 0
DWIDTH 8 0
BBX 8 8 0 -2
BITMAP
00
00
1a
24
48
4a
34
00
ENDCHAR
STARTCHAR 2642
ENCODING 9794
SWIDTH 960 0
DWIDTH 8 0
BBX 8 8 0 -2
BITMAP
0c
12
2c
22
32
4c
40
00
ENDCHAR
STARTCHAR 2643
ENCODING 9795
SWIDTH 960 0
DWIDTH 8 0
BBX 8 8 0 -2
BITMAP
00
00
64
18
10
30
20
00
ENDCHAR
STARTCHAR 2644
ENCODING 9796
SWIDTH 960 0
DWIDTH 8 0
BBX 8 8 0 -2
BITMAP
18
24
10
28
48
48
30
00
ENDCHAR
STARTCHAR 2645
ENCODING 9797
SWIDTH 960 0
DWIDTH 8 0
BBX 8 8 0 -2
BITMAP
00
00
18
24
30
44
38
00
ENDCHAR
STARTCHAR 2646
ENCODING 9798
SWIDTH 960 0
DWIDTH 8 0
BBX 8 8 0 -2
BITMAP
2c
10
20
20
18
04
18
00
ENDCHAR
STARTCHAR 2647
ENCODING 9799
SWIDTH 960 0
DWIDTH 8 0
BBX 8 8 0 -2
BITMAP
00
00
2c
52
12
24
04
00
ENDCHAR
STARTCHAR 2648
ENCODING 9800
SWIDTH 960 0
DWIDTH 8 0
BBX 8 8 0 -2
BITMAP
18
24
24
7c
48
48
30
00
ENDCHAR
STARTCHAR 2649
ENCODING 9801
SWIDTH 960 0
DWIDTH 8 0
BBX 8 8 0 -2
BITMAP
00
00
10
10
20
28
10
00
ENDCHAR
STARTCHAR 264a
ENCODING 9802
SWIDTH 960 0
DWIDTH 8 0
BBX 8 8 0 -2
BITMAP
00
00
24
28
30
50
4c
00
ENDCHAR
STARTCHAR 264b
ENCODING 9803
SWIDTH 960 0
DWIDTH 8 0
BBX 8 8 0 -2
BITMAP
10
08
08
18
28
28
44
00
ENDCHAR
STARTCHAR 264c
ENCODING 9804
SWIDTH 960 0
DWIDTH 8 0
BBX 8 8 0 -2
BITMAP
00
00
12
12
24
3a
40
00
ENDCHAR
STARTCHAR 264d
ENCODING 9805
SWIDTH 960 0
DWIDTH 8 0
BBX 8 8 0 -2
BITMAP
00
00
44
24
28
30
20
00
ENDCHAR
STARTCHAR 264e
ENCODING 9806
SWIDTH 960 0
DWIDTH 8 0
BBX 8 8 0 -2
BITMAP
1c
20
3c
40
38
04
18
00
ENDCHAR
STARTCHAR 264f
ENCODING 9807
SWIDTH 960 0
DWIDTH 8 0
BBX 8 8 0 -2
BITMAP
00
00
18
24
44
48
30
00
ENDCHAR
STARTCHAR 2650
ENCODING 9808
SWIDTH 960 0
DWIDTH 8 0
BBX 8 8 0 -2
BITMAP
00
00
3e
54
14
24
46
00
ENDCHAR
STARTCHAR 2651
ENCODING 9809
SWIDTH 960 0
DWIDTH 8 0
BBX 8 8 0 -2
BITMAP
00
00
1c
22
22
5c
40
00
ENDCHAR
STARTCHAR 2652
ENCODING 9810
SWIDTH 960 0
DWIDTH 8 0
BBX 8 8 0 -2
BITMAP
00
00
1e
24
44
48
30
00
ENDCHAR
STARTCHAR 2653
ENCODING 9811
SWIDTH 960 0
DWIDTH 8 0
BBX 8 8 0 -2
BITMAP
00
00
3e
48
10
14
08
00
ENDCHAR
STARTCHAR 2654
ENCODING 9812
SWIDTH 960 0
DWIDTH 8 0
BBX 8 8 0 -2
BITMAP
00
00
32
52
22
24
18
00
ENDCHAR
STARTCHAR 2655
ENCODING 9813
SWIDTH 960 0
DWIDTH 8 0
BBX 8 8 0 -2
BITMAP
04
04
3c
4a
4a
3c
10
00
ENDCHAR
STARTCHAR 2656
ENCODING 9814
SWIDTH 960 0
DWIDTH 8 0
BBX 8 8 0 -2
BITMAP
00
00
34
08
10
30
4c
00
ENDCHAR
STARTCHAR 2657
ENCODING 9815
SWIDTH 960 0
DWIDTH 8 0
BBX 8 8 0 -2
BITMAP
04
04
68
2a
4a
3c
10
00
ENDCHAR
STARTCHAR 2658
ENCODING 9816
SWIDTH 960 0
DWIDTH 8 0
BBX 8 8 0 -2
BITMAP
00
00
22
4a
4a
5a
24
00
ENDCHAR
STARTCHAR 2721
ENCODING 10017
SWIDTH 960 0
DWIDTH 8 0
BBX 8 8 0 -2
BITMAP
10
28
28
44
7c
82
82
00
ENDCHAR
STARTCHAR 2722
ENCODING 10018
SWIDTH 960 0
DWIDTH 8 0
BBX 8 8 0 -2
BITMAP
7e
40
40
7c
42
42
7c
00
ENDCHAR
STARTCHAR 2723
ENCODING 10019
SWIDTH 960 0
DWIDTH 8 0
BBX 8 8 0 -2
BITMAP
7c
42
42
7c
42
42
7c
00
ENDCHAR
STARTCHAR 2724
ENCODING 10020
SWIDTH 960 0
DWIDTH 8 0
BBX 8 8 0 -2
BITMAP
7e
40
40
40
40
40
40
00
ENDCHAR
STARTCHAR 2725
ENCODING 10021
SWIDTH 960 0
DWIDTH 8 0
BBX 8 8 0 -2
BITMAP
3c
24
24
24
44
fe
82
00
ENDCHAR
STARTCHAR 2726
ENCODING 10022
SWIDTH 960 0
DWIDTH 8 0
BBX 8 8 0 -2
BITMAP
7e
40
40
7c
40
40
7e
00
ENDCHAR
STARTCHAR 2727
ENCODING 10023
SWIDTH 960 0
DWIDTH 8 0
BBX 8 8 0 -2
BITMAP
24
7e
40
7c
40
40
7e
00
ENDCHAR
STARTCHAR 2728
ENCODING 10024
SWIDTH 960 0
DWIDTH 8 0
BBX 8 8 0 -2
BITMAP
92
54
54
38
54
54
92
00
ENDCHAR
STARTCHAR 2729
ENCODING 10025
SWIDTH 960 0
DWIDTH 8 0
BBX 8 8 0 -2
BITMAP
3c
42
02
1c
02
42
3c
00
ENDCHAR
STARTCHAR 272a
ENCODING 10026
SWIDTH 960 0
DWIDTH 8 0
BBX 8 8 0 -2
BITMAP
42
42
46
4a
52
62
42
00
ENDCHAR
STARTCHAR 272b
ENCODING 10027
SWIDTH 960 0
DWIDTH 8 0
BBX 8 8 0 -2
BITMAP
24
5a
46
4a
52
62
42
00
ENDCHAR
STARTCHAR 272c
ENCODING 10028
SWIDTH 960 0
DWIDTH 8 0
BBX 8 8 0 -2
BITMAP
46
48
48
70
48
44
42
00
ENDCHAR
STARTCHAR 272d
ENCODING 10029
SWIDTH 960 0
DWIDTH 8 0
BBX 8 8 0 -2
BITMAP
3e
22
22
22
22
22
c2
00
ENDCHAR
STARTCHAR 272e
ENCODING 10030
SWIDTH 960 0
DWIDTH 8 0
BBX 8 8 0 -2
BITMAP
44
44
44
aa
aa
92
92
00
ENDCHAR
STARTCHAR 272f
ENCODING 10031
SWIDTH 960 0
DWIDTH 8 0
BBX 8 8 0 -2
BITMAP
42
42
42
7e
42
42
42
00
ENDCHAR
STARTCHAR 2730
ENCODING 10032
SWIDTH 960 0
DWIDTH 8 0
BBX 8 8 0 -2
BITMAP
18
24
42
42
42
24
18
00
ENDCHAR
STARTCHAR 2731
ENCODING 10033
SWIDTH 960 0
DWIDTH 8 0
BBX 8 8 0 -2
BITMAP
7e
42
42
42
42
42
42
00
ENDCHAR
STARTCHAR 2732
ENCODING 10034
SWIDTH 960 0
DWIDTH 8 0
BBX 8 8 0 -2
BITMAP
7c
42
42
7c
40
40
40
00
ENDCHAR
STARTCHAR 2733
ENCODING 10035
SWIDTH 960 0
DWIDTH 8 0
BBX 8 8 0 -2
BITMAP
1c
22
40
40
40
22
1c
00
ENDCHAR
STARTCHAR 2734
ENCODING 10036
SWIDTH 960 0
DWIDTH 8 0
BBX 8 8 0 -2
BITMAP
fe
10
10
10
10
10
10
00
ENDCHAR
STARTCHAR 2735
ENCODING 10037
SWIDTH 960 0
DWIDTH 8 0
BBX 8 8 0 -2
BITMAP
42
24
24
18
08
10
60
00
ENDCHAR
STARTCHAR 2736
ENCODING 10038
SWIDTH 960 0
DWIDTH 8 0
BBX 8 8 0 -2
BITMAP
10
7c
92
92
92
7c
10
00
ENDCHAR
STARTCHAR 2737
ENCODING 10039
SWIDTH 960 0
DWIDTH 8 0
BBX 8 8 0 -2
BITMAP
82
44
28
10
28
44
82
00
ENDCHAR
STARTCHAR 2738
ENCODING 10040
SWIDTH 960 0
DWIDTH 8 0
BBX 8 8 0 -2
BITMAP
44
44
44
44
44
7e
02
00
ENDCHAR
STARTCHAR 2739
ENCODING 10041
SWIDTH 960 0
DWIDTH 8 0
BBX 8 8 0 -2
BITMAP
42
42
42
42
3e
02
02
00
ENDCHAR
STARTCHAR 273a
ENCODING 10042
SWIDTH 960 0
DWIDTH 8 0
BBX 8 8 0 -2
BITMAP
92
92
92
92
92
92
fe
00
ENDCHAR
STARTCHAR 273b
ENCODING 10043
SWIDTH 960 0
DWIDTH 8 0
BBX 8 8 0 -2
BITMAP
92
92
92
92
92
fe
02
00
ENDCHAR
STARTCHAR 273c
ENCODING 10044
SWIDTH 960 0
DWIDTH 8 0
BBX 8 8 0 -2
BITMAP
60
20
20
3c
22
22
3c
00
ENDCHAR
STARTCHAR 273d
ENCODING 10045
SWIDTH 960 0
DWIDTH 8 0
BBX 8 8 0 -2
BITMAP
42
42
42
72
4a
4a
72
00
ENDCHAR
STARTCHAR 273e
ENCODING 10046
SWIDTH 960 0
DWIDTH 8 0
BBX 8 8 0 -2
BITMAP
20
20
20
3c
22
22
3c
00
ENDCHAR
STARTCHAR 273f
ENCODING 10047
SWIDTH 960 0
DWIDTH 8 0
BBX 8 8 0 -2
BITMAP
38
44
02
3e
02
44
38
00
ENDCHAR
STARTCHAR 2740
ENCODING 10048
SWIDTH 960 0
DWIDTH 8 0
BBX 8 8 0 -2
BITMAP
9c
a2
a2
e2
a2
a2
9c
00
ENDCHAR
STARTCHAR 2741
ENCODING 10049
SWIDTH 960 0
DWIDTH 8 0
BBX 8 8 0 -2
BITMAP
3e
42
42
3e
22
22
42
00
ENDCHAR
STARTCHAR 2751
ENCODING 10065
SWIDTH 960 0
DWIDTH 8 0
BBX 8 8 0 -2
BITMAP
00
00
38
04
3c
44
3c
00
ENDCHAR
STARTCHAR 2752
ENCODING 10066
SWIDTH 960 0
DWIDTH 8 0
BBX 8 8 0 -2
BITMAP
1c
20
78
44
44
44
38
00
ENDCHAR
STARTCHAR 2753
ENCODING 10067
SWIDTH 960 0
DWIDTH 8 0
BBX 8 8 0 -2
BITMAP
00
00
78
44
78
44
78
00
ENDCHAR
STARTCHAR 2754
ENCODING 10068
SWIDTH 960 0
DWIDTH 8 0
BBX 8 8 0 -2
BITMAP
00
00
7c
40
40
40
40
00
ENDCHAR
STARTCHAR 2755
ENCODING 10069
SWIDTH 960 0
DWIDTH 8 0
BBX 8 8 0 -2
BITMAP
00
00
38
28
28
7c
44
00
ENDCHAR
STARTCHAR 2756
ENCODING 10070
SWIDTH 960 0
DWIDTH 8 0
BBX 8 8 0 -2
BITMAP
00
00
38
44
7c
40
38
00
ENDCHAR
STARTCHAR 2757
ENCODING 10071
SWIDTH 960 0
DWIDTH 8 0
BBX 8 8 0 -2
BITMAP
28
00
38
44
7c
40
38
00
ENDCHAR
STARTCHAR 2758
ENCODING 10072
SWIDTH 960 0
DWIDTH 8 0
BBX 8 8 0 -2
BITMAP
00
00
92
54
38
54
92
00
ENDCHAR
STARTCHAR 2759
ENCODING 10073
SWIDTH 960 0
DWIDTH 8 0
BBX 8 8 0 -2
BITMAP
00
00
38
44
18
44
38
00
ENDCHAR
STARTCHAR 275a
ENCODING 10074
SWIDTH 960 0
DWIDTH 8 0
BBX 8 8 0 -2
BITMAP
00
00
44
4c
54
64
44
00
ENDCHAR
STARTCHAR 275b
ENCODING 10075
SWIDTH 960 0
DWIDTH 8 0
BBX 8 8 0 -2
BITMAP
28
10
44
4c
54
64
44
00
ENDCHAR
STARTCHAR 275c
ENCODING 10076
SWIDTH 960 0
DWIDTH 8 0
BBX 8 8 0 -2
BITMAP
00
00
4c
50
70
48
44
00
ENDCHAR
STARTCHAR 275d
ENCODING 10077
SWIDTH 960 0
DWIDTH 8 0
BBX 8 8 0 -2
BITMAP
00
00
3c
24
24
24
c4
00
ENDCHAR
STARTCHAR 275e
ENCODING 10078
SWIDTH 960 0
DWIDTH 8 0
BBX 8 8 0 -2
BITMAP
00
00
44
6c
54
54
44
00
ENDCHAR
STARTCHAR 275f
ENCODING 10079
SWIDTH 960 0
DWIDTH 8 0
BBX 8 8 0 -2
BITMAP
00
00
44
44
7c
44
44
00
ENDCHAR
STARTCHAR 2760
ENCODING 10080
SWIDTH 960 0
DWIDTH 8 0
BBX 8 8 0 -2
BITMAP
00
00
38
44
44
44
38
00
ENDCHAR
STARTCHAR 2761
ENCODING 10081
SWIDTH 960 0
DWIDTH 8 0
BBX 8 8 0 -2
BITMAP
00
00
7c
44
44
44
44
00
ENDCHAR
STARTCHAR 2762
ENCODING 10082
SWIDTH 960 0
DWIDTH 8 0
BBX 8 8 0 -2
BITMAP
00
00
78
44
78
40
40
00
ENDCHAR
STARTCHAR 2763
ENCODING 10083
SWIDTH 960 0
DWIDTH 8 0
BBX 8 8 0 -2
BITMAP
00
00
38
44
40
44
38
00
ENDCHAR
STARTCHAR 2764
ENCODING 10084
SWIDTH 960 0
DWIDTH 8 0
BBX 8 8 0 -2
BITMAP
00
00
7c
10
10
10
10
00
ENDCHAR
STARTCHAR 2765
ENCODING 10085
SWIDTH 960 0
DWIDTH 8 0
BBX 8 8 0 -2
BITMAP
00
00
44
28
28
10
60
00
ENDCHAR
STARTCHAR 2766
ENCODING 10086
SWIDTH 960 0
DWIDTH 8 0
BBX 8 8 0 -2
BITMAP
10
10
38
54
54
38
10
00
ENDCHAR
STARTCHAR 2767
ENCODING 10087
SWIDTH 960 0
DWIDTH 8 0
BBX 8 8 0 -2
BITMAP
00
00
44
28
10
28
44
00
ENDCHAR
STARTCHAR 2768
ENCODING 10088
SWIDTH 960 0
DWIDTH 8 0
BBX 8 8 0 -2
BITMAP
00
00
48
48
48
7c
04
00
ENDCHAR
STARTCHAR 2769
ENCODING 10089
SWIDTH 960 0
DWIDTH 8 0
BBX 8 8 0 -2
BITMAP
00
00
44
44
44
3c
04
00
ENDCHAR
STARTCHAR 276a
ENCODING 10090
SWIDTH 960 0
DWIDTH 8 0
BBX 8 8 0 -2
BITMAP
00
00
54
54
54
54
7c
00
ENDCHAR
STARTCHAR 276b
ENCODING 10091
SWIDTH 960 0
DWIDTH 8 0
BBX 8 8 0 -2
BITMAP
00
00
54
54
54
7e
02
00
ENDCHAR
STARTCHAR 276c
ENCODING 10092
SWIDTH 960 0
DWIDTH 8 0
BBX 8 8 0 -2
BITMAP
00
00
60
20
3c
22
3c
00
ENDCHAR
STARTCHAR 276d
ENCODING 10093
SWIDTH 960 0
DWIDTH 8 0
BBX 8 8 0 -2
BITMAP
00
00
44
44
74
4c
74
00
ENDCHAR
STARTCHAR 276e
ENCODING 10094
SWIDTH 960 0
DWIDTH 8 0
BBX 8 8 0 -2
BITMAP
00
00
40
40
78
44
78
00
ENDCHAR
STARTCHAR 276f
ENCODING 10095
SWIDTH 960 0
DWIDTH 8 0
BBX 8 8 0 -2
BITMAP
00
00
38
44
1c
44
38
00
ENDCHAR
STARTCHAR 2770
ENCODING 10096
SWIDTH 960 0
DWIDTH 8 0
BBX 8 8 0 -2
BITMAP
00
00
4c
52
72
52
4c
00
ENDCHAR
STARTCHAR 2771
ENCODING 10097
SWIDTH 960 0
DWIDTH 8 0
BBX 8 8 0 -2
BITMAP
00
00
3c
44
3c
24
44
00
ENDCHAR
STARTCHAR 2821
ENCODING 10273
SWIDTH 960 0
DWIDTH 8 0
BBX 8 8 0 -2
BITMAP
00
00
00
ff
00
00
00
00
ENDCHAR
STARTCHAR 2822
ENCODING 10274
SWIDTH 960 0
DWIDTH 8 0
BBX 8 8 0 -2
BITMAP
10
10
10
10
10
10
10
10
ENDCHAR
STARTCHAR 2823
ENCODING 10275
SWIDTH 960 0
DWIDTH 8 0
BBX 8 8 0 -2
BITMAP
00
00
00
1f
10
10
10
10
ENDCHAR
STARTCHAR 2824
ENCODING 10276
SWIDTH 960 0
DWIDTH 8 0
BBX 8 8 0 -2
BITMAP
00
00
00
f0
10
10
10
10
ENDCHAR
STARTCHAR 2825
ENCODING 10277
SWIDTH 960 0
DWIDTH 8 0
BBX 8 8 0 -2
BITMAP
10
10
10
f0
00
00
00
00
ENDCHAR
STARTCHAR 2826
ENCODING 10278
SWIDTH 960 0
DWIDTH 8 0
BBX 8 8 0 -2
BITMAP
10
10
10
1f
00
00
00
00
ENDCHAR
STARTCHAR 2827
ENCODING 10279
SWIDTH 960 0
DWIDTH 8 0
BBX 8 8 0 -2
BITMAP
10
10
10
1f
10
10
10
10
ENDCHAR
STARTCHAR 2828
ENCODING 10280
SWIDTH 960 0
DWIDTH 8 0
BBX 8 8 0 -2
BITMAP
00
00
00
ff
10
10
10
10
ENDCHAR
STARTCHAR 2829
ENCODING 10281
SWIDTH 960 0
DWIDTH 8 0
BBX 8 8 0 -2
BITMAP
10
10
10
f0
10
10
10
10
ENDCHAR
STARTCHAR 282a
ENCODING 10282
SWIDTH 960 0
DWIDTH 8 0
BBX 8 8 0 -2
BITMAP
10
10
10
ff
00
00
00
00
ENDCHAR
STARTCHAR 282b
ENCODING 10283
SWIDTH 960 0
DWIDTH 8 0
BBX 8 8 0 -2
BITMAP
10
10
10
ff
10
10
10
10
ENDCHAR
STARTCHAR 282c
ENCODING 10284
SWIDTH 960 0
DWIDTH 8 0
BBX 8 8 0 -2
BITMAP
00
00
00
ff
ff
00
00
00
ENDCHAR
STARTCHAR 282d
ENCODING 10285
SWIDTH 960 0
DWIDTH 8 0
BBX 8 8 0 -2
BITMAP
18
18
18
18
18
18
18
18
ENDCHAR
STARTCHAR 282e
ENCODING 10286
SWIDTH 960 0
DWIDTH 8 0
BBX 8 8 0 -2
BITMAP
00
00
00
1f
1f
18
18
18
ENDCHAR
STARTCHAR 282f
ENCODING 10287
SWIDTH 960 0
DWIDTH 8 0
BBX 8 8 0 -2
BITMAP
00
00
00
f8
f8
18
18
18
ENDCHAR
STARTCHAR 2830
ENCODING 10288
SWIDTH 960 0
DWIDTH 8 0
BBX 8 8 0 -2
BITMAP
18
18
18
f8
f8
00
00
00
ENDCHAR
STARTCHAR 2831
ENCODING 10289
SWIDTH 960 0
DWIDTH 8 0
BBX 8 8 0 -2
BITMAP
18
18
18
1f
1f
00
00
00
ENDCHAR
STARTCHAR 2832
ENCODING 10290
SWIDTH 960 0
DWIDTH 8 0
BBX 8 8 0 -2
BITMAP
18
18
18
1f
1f
18
18
18
ENDCHAR
STARTCHAR 2833
ENCODING 10291
SWIDTH 960 0
DWIDTH 8 0
BBX 8 8 0 -2
BITMAP
00
00
00
ff
ff
18
18
18
ENDCHAR
STARTCHAR 2834
ENCODING 10292
SWIDTH 960 0
DWIDTH 8 0
BBX 8 8 0 -2
BITMAP
18
18
18
f8
f8
18
18
18
ENDCHAR
STARTCHAR 2835
ENCODING 10293
SWIDTH 960 0
DWIDTH 8 0
BBX 8 8 0 -2
BITMAP
18
18
18
ff
ff
00
00
00
ENDCHAR
STARTCHAR 2836
ENCODING 10294
SWIDTH 960 0
DWIDTH 8 0
BBX 8 8 0 -2
BITMAP
18
18
18
ff
ff
18
18
18
ENDCHAR
STARTCHAR 2837
ENCODING 10295
SWIDTH 960 0
DWIDTH 8 0
BBX 8 8 0 -2
BITMAP
18
18
18
1f
18
18
18
18
ENDCHAR
STARTCHAR 2838
ENCODING 10296
SWIDTH 960 0
DWIDTH 8 0
BBX 8 8 0 -2
BITMAP
00
00
00
ff
ff
10
10
10
ENDCHAR
STARTCHAR 2839
ENCODING 10297
SWIDTH 960 0
DWIDTH 8 0
BBX 8 8 0 -2
BITMAP
18
18
18
f8
18
18
18
18
ENDCHAR
STARTCHAR 283a
ENCODING 10298
SWIDTH 960 0
DWIDTH 8 0
BBX 8 8 0 -2
BITMAP
10
10
10
ff
ff
00
00
00
ENDCHAR
STARTCHAR 283b
ENCODING 10299
SWIDTH 960 0
DWIDTH 8 0
BBX 8 8 0 -2
BITMAP
10
10
10
ff
ff
10
10
10
ENDCHAR
STARTCHAR 283c
ENCODING 10300
SWIDTH 960 0
DWIDTH 8 0
BBX 8 8 0 -2
BITMAP
10
10
10
1f
1f
10
10
10
ENDCHAR
STARTCHAR 283d
ENCODING 10301
SWIDTH 960 0
DWIDTH 8 0
BBX 8 8 0 -2
BITMAP
00
00
00
ff
18
18
18
18
ENDCHAR
STARTCHAR 283e
ENCODING 10302
SWIDTH 960 0
DWIDTH 8 0
BBX 8 8 0 -2
BITMAP
10
10
10
f0
f0
10
10
10
ENDCHAR
STARTCHAR 283f
ENCODING 10303
SWIDTH 960 0
DWIDTH 8 0
BBX 8 8 0 -2
BITMAP
18
18
18
ff
00
00
00
00
ENDCHAR
STARTCHAR 2840
ENCODING 10304
SWIDTH 960 0
DWIDTH 8 0
BBX 8 8 0 -2
BITMAP
18
18
18
ff
18
18
18
18
ENDCHAR
STARTCHAR 2d21
ENCODING 11553
SWIDTH 960 0
DWIDTH 8 0
BBX 8 8 0 -2
BITMAP
7c
92
b2
92
92
92
7c
00
ENDCHAR
STARTCHAR 2d22
ENCODING 11554
SWIDTH 960 0
DWIDTH 8 0
BBX 8 8 0 -2
BITMAP
7c
b2
8a
92
a2
ba
7c
00
ENDCHAR
STARTCHAR 2d23
ENCODING 11555
SWIDTH 960 0
DWIDTH 8 0
BBX 8 8 0 -2
BITMAP
7c
b2
8a
92
8a
b2
7c
00
ENDCHAR
STARTCHAR 2d24
ENCODING 11556
SWIDTH 960 0
DWIDTH 8 0
BBX 8 8 0 -2
BITMAP
7c
8a
9a
aa
ba
8a
7c
00
ENDCHAR
STARTCHAR 2d25
ENCODING 11557
SWIDTH 960 0
DWIDTH 8 0
BBX 8 8 0 -2
BITMAP
7c
ba
a2
b2
8a
b2
7c
00
ENDCHAR
STARTCHAR 2d26
ENCODING 11558
SWIDTH 960 0
DWIDTH 8 0
BBX 8 8 0 -2
BITMAP
7c
9a
a2
b2
aa
92
7c
00
ENDCHAR
STARTCHAR 2d27
ENCODING 11559
SWIDTH 960 0
DWIDTH 8 0
BBX 8 8 0 -2
BITMAP
7c
ba
8a
92
92
92
7c
00
ENDCHAR
STARTCHAR 2d28
ENCODING 11560
SWIDTH 960 0
DWIDTH 8 0
BBX 8 8 0 -2
BITMAP
7c
92
aa
92
aa
92
7c
00
ENDCHAR
STARTCHAR 2d29
ENCODING 11561
SWIDTH 960 0
DWIDTH 8 0
BBX 8 8 0 -2
BITMAP
7c
92
aa
9a
8a
b2
7c
00
ENDCHAR
STARTCHAR 2d2a
ENCODING 11562
SWIDTH 960 0
DWIDTH 8 0
BBX 8 8 0 -2
BITMAP
7c
a2
ee
aa
ae
a2
7c
00
ENDCHAR
STARTCHAR 2d2b
ENCODING 11563
SWIDTH 960 0
DWIDTH 8 0
BBX 8 8 0 -2
BITMAP
7c
a6
ee
a6
a6
a6
7c
00
ENDCHAR
STARTCHAR 2d2c
ENCODING 11564
SWIDTH 960 0
DWIDTH 8 0
BBX 8 8 0 -2
BITMAP
7c
aa
e6
ae
aa
ae
7c
00
ENDCHAR
STARTCHAR 2d2d
ENCODING 11565
SWIDTH 960 0
DWIDTH 8 0
BBX 8 8 0 -2
BITMAP
7c
aa
e6
aa
a6
aa
7c
00
ENDCHAR
STARTCHAR 2d2e
ENCODING 11566
SWIDTH 960 0
DWIDTH 8 0
BBX 8 8 0 -2
BITMAP
7c
aa
ea
ae
ae
a6
7c
00
ENDCHAR
STARTCHAR 2d2f
ENCODING 11567
SWIDTH 960 0
DWIDTH 8 0
BBX 8 8 0 -2
BITMAP
7c
ae
ea
ae
a6
aa
7c
00
ENDCHAR
STARTCHAR 2d30
ENCODING 11568
SWIDTH 960 0
DWIDTH 8 0
BBX 8 8 0 -2
BITMAP
7c
a6
ea
ae
ae
ae
7c
00
ENDCHAR
STARTCHAR 2d31
ENCODING 11569
SWIDTH 960 0
DWIDTH 8 0
BBX 8 8 0 -2
BITMAP
7c
ae
e6
aa
aa
aa
7c
00
ENDCHAR
STARTCHAR 2d32
ENCODING 11570
SWIDTH 960 0
DWIDTH 8 0
BBX 8 8 0 -2
BITMAP
7c
ae
ee
a2
ae
ae
7c
00
ENDCHAR
STARTCHAR 2d33
ENCODING 11571
SWIDTH 960 0
DWIDTH 8 0
BBX 8 8 0 -2
BITMAP
7c
ae
ee
ae
a6
aa
7c
00
ENDCHAR
STARTCHAR 2d34
ENCODING 11572
SWIDTH 960 0
DWIDTH 8 0
BBX 8 8 0 -2
BITMAP
7c
e2
ae
ea
ce
e2
7c
00
ENDCHAR
STARTCHAR 2d35
ENCODING 11573
SWIDTH 960 0
DWIDTH 8 0
BBX 8 8 0 -2
BITMAP
10
10
10
10
10
10
10
00
ENDCHAR
STARTCHAR 2d36
ENCODING 11574
SWIDTH 960 0
DWIDTH 8 0
BBX 8 8 0 -2
BITMAP
28
28
28
28
28
28
28
00
ENDCHAR
STARTCHAR 2d37
ENCODING 11575
SWIDTH 960 0
DWIDTH 8 0
BBX 8 8 0 -2
BITMAP
54
54
54
54
54
54
54
00
ENDCHAR
STARTCHAR 2d38
ENCODING 11576
SWIDTH 960 0
DWIDTH 8 0
BBX 8 8 0 -2
BITMAP
a2
a2
94
94
94
88
88
00
ENDCHAR
STARTCHAR 2d39
ENCODING 11577
SWIDTH 960 0
DWIDTH 8 0
BBX 8 8 0 -2
BITMAP
44
44
28
28
28
10
10
00
ENDCHAR
STARTCHAR 2d3a
ENCODING 11578
SWIDTH 960 0
DWIDTH 8 0
BBX 8 8 0 -2
BITMAP
8a
8a
52
52
52
22
22
00
ENDCHAR
STARTCHAR 2d3b
ENCODING 11579
SWIDTH 960 0
DWIDTH 8 0
BBX 8 8 0 -2
BITMAP
aa
aa
aa
aa
aa
4a
4a
00
ENDCHAR
STARTCHAR 2d3c
ENCODING 11580
SWIDTH 960 0
DWIDTH 8 0
BBX 8 8 0 -2
BITMAP
ba
ba
ba
ba
5a
5a
5a
00
ENDCHAR
STARTCHAR 2d3d
ENCODING 11581
SWIDTH 960 0
DWIDTH 8 0
BBX 8 8 0 -2
BITMAP
a2
94
94
88
94
94
a2
00
ENDCHAR
STARTCHAR 2d3e
ENCODING 11582
SWIDTH 960 0
DWIDTH 8 0
BBX 8 8 0 -2
BITMAP
44
28
28
10
28
28
44
00
ENDCHAR
STARTCHAR 2d40
ENCODING 11584
SWIDTH 960 0
DWIDTH 8 0
BBX 8 8 0 -2
BITMAP
e0
00
60
0a
ea
02
04
00
ENDCHAR
STARTCHAR 2d41
ENCODING 11585
SWIDTH 960 0
DWIDTH 8 0
BBX 8 8 0 -2
BITMAP
40
e0
40
ee
4a
0a
0e
00
ENDCHAR
STARTCHAR 2d42
ENCODING 11586
SWIDTH 960 0
DWIDTH 8 0
BBX 8 8 0 -2
BITMAP
8c
e0
a2
cc
40
e0
40
00
ENDCHAR
STARTCHAR 2d43
ENCODING 11587
SWIDTH 960 0
DWIDTH 8 0
BBX 8 8 0 -2
BITMAP
a0
4e
a0
00
8c
cc
96
00
ENDCHAR
STARTCHAR 2d44
ENCODING 11588
SWIDTH 960 0
DWIDTH 8 0
BBX 8 8 0 -2
BITMAP
76
ae
22
cc
20
50
f0
00
ENDCHAR
STARTCHAR 2d45
ENCODING 11589
SWIDTH 960 0
DWIDTH 8 0
BBX 8 8 0 -2
BITMAP
80
80
e0
8c
00
02
0c
00
ENDCHAR
STARTCHAR 2d46
ENCODING 11590
SWIDTH 960 0
DWIDTH 8 0
BBX 8 8 0 -2
BITMAP
f0
56
60
80
60
60
b0
00
ENDCHAR
STARTCHAR 2d47
ENCODING 11591
SWIDTH 960 0
DWIDTH 8 0
BBX 8 8 0 -2
BITMAP
46
aa
02
6c
bc
4c
96
00
ENDCHAR
STARTCHAR 2d48
ENCODING 11592
SWIDTH 960 0
DWIDTH 8 0
BBX 8 8 0 -2
BITMAP
a0
ae
22
00
8c
cc
96
00
ENDCHAR
STARTCHAR 2d49
ENCODING 11593
SWIDTH 960 0
DWIDTH 8 0
BBX 8 8 0 -2
BITMAP
e0
ae
22
40
40
60
40
00
ENDCHAR
STARTCHAR 2d4a
ENCODING 11594
SWIDTH 960 0
DWIDTH 8 0
BBX 8 8 0 -2
BITMAP
ee
6a
ae
00
a0
ae
20
00
ENDCHAR
STARTCHAR 2d4b
ENCODING 11595
SWIDTH 960 0
DWIDTH 8 0
BBX 8 8 0 -2
BITMAP
a8
80
e0
80
14
14
26
00
ENDCHAR
STARTCHAR 2d4c
ENCODING 11596
SWIDTH 960 0
DWIDTH 8 0
BBX 8 8 0 -2
BITMAP
8c
e0
a2
cc
40
60
40
00
ENDCHAR
STARTCHAR 2d4d
ENCODING 11597
SWIDTH 960 0
DWIDTH 8 0
BBX 8 8 0 -2
BITMAP
70
b6
a0
00
94
c6
dc
00
ENDCHAR
STARTCHAR 2d4e
ENCODING 11598
SWIDTH 960 0
DWIDTH 8 0
BBX 8 8 0 -2
BITMAP
ea
6a
72
00
6c
bc
b6
00
ENDCHAR
STARTCHAR 2d4f
ENCODING 11599
SWIDTH 960 0
DWIDTH 8 0
BBX 8 8 0 -2
BITMAP
50
a6
10
c0
d0
20
c0
00
ENDCHAR
STARTCHAR 2d50
ENCODING 11600
SWIDTH 960 0
DWIDTH 8 0
BBX 8 8 0 -2
BITMAP
00
00
cc
ee
ee
ee
aa
00
ENDCHAR
STARTCHAR 2d51
ENCODING 11601
SWIDTH 960 0
DWIDTH 8 0
BBX 8 8 0 -2
BITMAP
00
00
6c
8e
8e
8e
6a
00
ENDCHAR
STARTCHAR 2d52
ENCODING 11602
SWIDTH 960 0
DWIDTH 8 0
BBX 8 8 0 -2
BITMAP
80
80
ac
ae
ce
ae
aa
00
ENDCHAR
STARTCHAR 2d53
ENCODING 11603
SWIDTH 960 0
DWIDTH 8 0
BBX 8 8 0 -2
BITMAP
00
00
c6
ea
e6
e2
ac
00
ENDCHAR
STARTCHAR 2d54
ENCODING 11604
SWIDTH 960 0
DWIDTH 8 0
BBX 8 8 0 -2
BITMAP
80
80
a6
aa
c6
a2
ac
00
ENDCHAR
STARTCHAR 2d55
ENCODING 11605
SWIDTH 960 0
DWIDTH 8 0
BBX 8 8 0 -2
BITMAP
00
00
66
88
88
88
66
00
ENDCHAR
STARTCHAR 2d56
ENCODING 11606
SWIDTH 960 0
DWIDTH 8 0
BBX 8 8 0 -2
BITMAP
06
02
d4
ae
a8
a8
a8
00
ENDCHAR
STARTCHAR 2d5f
ENCODING 11615
SWIDTH 960 0
DWIDTH 8 0
BBX 8 8 0 -2
BITMAP
e4
4e
ec
4c
ee
4c
52
00
ENDCHAR
STARTCHAR 2d60
ENCODING 11616
SWIDTH 960 0
DWIDTH 8 0
BBX 8 8 0 -2
BITMAP
14
14
0a
00
00
00
00
00
ENDCHAR
STARTCHAR 2d61
ENCODING 11617
SWIDTH 960 0
DWIDTH 8 0
BBX 8 8 0 -2
BITMAP
00
00
00
00
a0
50
50
00
ENDCHAR
STARTCHAR 2d62
ENCODING 11618
SWIDTH 960 0
DWIDTH 8 0
BBX 8 8 0 -2
BITMAP
90
90
d4
ba
9a
9a
94
00
ENDCHAR
STARTCHAR 2d63
ENCODING 11619
SWIDTH 960 0
DWIDTH 8 0
BBX 8 8 0 -2
BITMAP
aa
aa
aa
cc
aa
aa
aa
00
ENDCHAR
STARTCHAR 2d64
ENCODING 11620
SWIDTH 960 0
DWIDTH 8 0
BBX 8 8 0 -2
BITMAP
e2
42
4a
56
5a
52
4a
00
ENDCHAR
STARTCHAR 2d65
ENCODING 11621
SWIDTH 960 0
DWIDTH 8 0
BBX 8 8 0 -2
BITMAP
7c
92
9a
92
92
ba
7c
00
ENDCHAR
STARTCHAR 2d66
ENCODING 11622
SWIDTH 960 0
DWIDTH 8 0
BBX 8 8 0 -2
BITMAP
7c
92
fe
d6
fe
92
7c
00
ENDCHAR
STARTCHAR 2d67
ENCODING 11623
SWIDTH 960 0
DWIDTH 8 0
BBX 8 8 0 -2
BITMAP
7c
ba
92
9a
92
92
7c
00
ENDCHAR
STARTCHAR 2d68
ENCODING 11624
SWIDTH 960 0
DWIDTH 8 0
BBX 8 8 0 -2
BITMAP
7c
fa
a2
ba
d2
ba
7c
00
ENDCHAR
STARTCHAR 2d69
ENCODING 11625
SWIDTH 960 0
DWIDTH 8 0
BBX 8 8 0 -2
BITMAP
7c
a2
fa
a2
da
9a
7c
00
ENDCHAR
STARTCHAR 2d6a
ENCODING 11626
SWIDTH 960 0
DWIDTH 8 0
BBX 8 8 0 -2
BITMAP
44
f2
be
ea
fe
aa
6c
00
ENDCHAR
STARTCHAR 2d6b
ENCODING 11627
SWIDTH 960 0
DWIDTH 8 0
BBX 8 8 0 -2
BITMAP
54
ba
92
be
d6
9e
54
00
ENDCHAR
STARTCHAR 2d6c
ENCODING 11628
SWIDTH 960 0
DWIDTH 8 0
BBX 8 8 0 -2
BITMAP
44
aa
be
ea
aa
a6
44
00
ENDCHAR
STARTCHAR 2d6d
ENCODING 11629
SWIDTH 960 0
DWIDTH 8 0
BBX 8 8 0 -2
BITMAP
6a
e4
ec
e6
68
6e
ae
00
ENDCHAR
STARTCHAR 2d6e
ENCODING 11630
SWIDTH 960 0
DWIDTH 8 0
BBX 8 8 0 -2
BITMAP
4e
44
e4
4e
4c
ac
ae
00
ENDCHAR
STARTCHAR 2d6f
ENCODING 11631
SWIDTH 960 0
DWIDTH 8 0
BBX 8 8 0 -2
BITMAP
6c
e6
ee
a6
8e
6c
64
00
ENDCHAR
STARTCHAR 2d70
ENCODING 11632
SWIDTH 960 0
DWIDTH 8 0
BBX 8 8 0 -2
BITMAP
40
00
fe
00
fe
00
04
00
ENDCHAR
STARTCHAR 2d71
ENCODING 11633
SWIDTH 960 0
DWIDTH 8 0
BBX 8 8 0 -2
BITMAP
00
7e
00
7e
00
7e
00
00
ENDCHAR
STARTCHAR 2d72
ENCODING 11634
SWIDTH 960 0
DWIDTH 8 0
BBX 8 8 0 -2
BITMAP
18
20
20
10
08
08
30
00
ENDCHAR
STARTCHAR 2d73
ENCODING 11635
SWIDTH 960 0
DWIDTH 8 0
BBX 8 8 0 -2
BITMAP
18
20
38
54
38
08
30
00
ENDCHAR
STARTCHAR 2d74
ENCODING 11636
SWIDTH 960 0
DWIDTH 8 0
BBX 8 8 0 -2
BITMAP
7e
20
10
08
10
20
7e
00
ENDCHAR
STARTCHAR 2d75
ENCODING 11637
SWIDTH 960 0
DWIDTH 8 0
BBX 8 8 0 -2
BITMAP
1e
10
20
20
e0
40
40
00
ENDCHAR
STARTCHAR 2d76
ENCODING 11638
SWIDTH 960 0
DWIDTH 8 0
BBX 8 8 0 -2
BITMAP
00
10
10
10
10
10
fe
00
ENDCHAR
STARTCHAR 2d77
ENCODING 11639
SWIDTH 960 0
DWIDTH 8 0
BBX 8 8 0 -2
BITMAP
00
02
04
08
10
20
7e
00
ENDCHAR
STARTCHAR 2d78
ENCODING 11640
SWIDTH 960 0
DWIDTH 8 0
BBX 8 8 0 -2
BITMAP
00
40
40
40
40
40
7e
00
ENDCHAR
STARTCHAR 2d79
ENCODING 11641
SWIDTH 960 0
DWIDTH 8 0
BBX 8 8 0 -2
BITMAP
00
02
06
0a
12
22
7e
00
ENDCHAR
STARTCHAR 2d7a
ENCODING 11642
SWIDTH 960 0
DWIDTH 8 0
BBX 8 8 0 -2
BITMAP
00
44
00
00
00
10
00
00
ENDCHAR
STARTCHAR 2d7b
ENCODING 11643
SWIDTH 960 0
DWIDTH 8 0
BBX 8 8 0 -2
BITMAP
00
3c
42
42
42
42
42
00
ENDCHAR
STARTCHAR 2d7c
ENCODING 11644
SWIDTH 960 0
DWIDTH 8 0
BBX 8 8 0 -2
BITMAP
42
42
42
42
42
3c
00
00
ENDCHAR
STARTCHAR 3021
ENCODING 12321
SWIDTH 960 0
DWIDTH 8 0
BBX 8 8 0 -2
BITMAP
fe
28
fe
aa
fe
28
fe
00
ENDCHAR
STARTCHAR 3022
ENCODING 12322
SWIDTH 960 0
DWIDTH 8 0
BBX 8 8 0 -2
BITMAP
3e
d4
be
b6
fe
14
3e
00
ENDCHAR
STARTCHAR 3023
ENCODING 12323
SWIDTH 960 0
DWIDTH 8 0
BBX 8 8 0 -2
BITMAP
24
2e
f4
5e
6e
24
de
00
ENDCHAR
STARTCHAR 3024
ENCODING 12324
SWIDTH 960 0
DWIDTH 8 0
BBX 8 8 0 -2
BITMAP
fe
a2
de
b6
be
c2
86
00
ENDCHAR
STARTCHAR 3025
ENCODING 12325
SWIDTH 960 0
DWIDTH 8 0
BBX 8 8 0 -2
BITMAP
10
fe
44
7c
2a
e4
32
00
ENDCHAR
STARTCHAR 3026
ENCODING 12326
SWIDTH 960 0
DWIDTH 8 0
BBX 8 8 0 -2
BITMAP
fe
54
fe
aa
5c
28
d6
00
ENDCHAR
STARTCHAR 3027
ENCODING 12327
SWIDTH 960 0
DWIDTH 8 0
BBX 8 8 0 -2
BITMAP
48
f2
5e
68
de
44
da
00
ENDCHAR
STARTCHAR 3028
ENCODING 12328
SWIDTH 960 0
DWIDTH 8 0
BBX 8 8 0 -2
BITMAP
24
2a
fe
50
6e
3a
ce
00
ENDCHAR
STARTCHAR 3029
ENCODING 12329
SWIDTH 960 0
DWIDTH 8 0
BBX 8 8 0 -2
BITMAP
8c
34
1a
c8
7e
48
be
00
ENDCHAR
STARTCHAR 302a
ENCODING 12330
SWIDTH 960 0
DWIDTH 8 0
BBX 8 8 0 -2
BITMAP
28
fe
ea
44
ba
10
ee
00
ENDCHAR
STARTCHAR 302b
ENCODING 12331
SWIDTH 960 0
DWIDTH 8 0
BBX 8 8 0 -2
BITMAP
28
fe
28
fe
6c
44
7c
00
ENDCHAR
STARTCHAR 302c
ENCODING 12332
SWIDTH 960 0
DWIDTH 8 0
BBX 8 8 0 -2
BITMAP
ec
54
ec
5e
f6
dc
46
00
ENDCHAR
STARTCHAR 302d
ENCODING 12333
SWIDTH 960 0
DWIDTH 8 0
BBX 8 8 0 -2
BITMAP
fe
7c
7c
fe
54
ca
ba
00
ENDCHAR
STARTCHAR 302e
ENCODING 12334
SWIDTH 960 0
DWIDTH 8 0
BBX 8 8 0 -2
BITMAP
5e
de
54
58
de
64
de
00
ENDCHAR
STARTCHAR 302f
ENCODING 12335
SWIDTH 960 0
DWIDTH 8 0
BBX 8 8 0 -2
BITMAP
be
22
be
34
ba
c8
be
00
ENDCHAR
STARTCHAR 3030
ENCODING 12336
SWIDTH 960 0
DWIDTH 8 0
BBX 8 8 0 -2
BITMAP
4e
fa
5e
5a
5e
50
9e
00
ENDCHAR
STARTCHAR 3031
ENCODING 12337
SWIDTH 960 0
DWIDTH 8 0
BBX 8 8 0 -2
BITMAP
28
fe
24
fe
48
fe
08
00
ENDCHAR
STARTCHAR 3032
ENCODING 12338
SWIDTH 960 0
DWIDTH 8 0
BBX 8 8 0 -2
BITMAP
28
fe
28
fe
44
7c
80
00
ENDCHAR
STARTCHAR 3033
ENCODING 12339
SWIDTH 960 0
DWIDTH 8 0
BBX 8 8 0 -2
BITMAP
64
aa
7c
6a
74
02
ac
00
ENDCHAR
STARTCHAR 3034
ENCODING 12340
SWIDTH 960 0
DWIDTH 8 0
BBX 8 8 0 -2
BITMAP
48
fe
54
fe
c8
7e
48
00
ENDCHAR
STARTCHAR 3035
ENCODING 12341
SWIDTH 960 0
DWIDTH 8 0
BBX 8 8 0 -2
BITMAP
7e
48
48
5c
48
48
be
00
ENDCHAR
STARTCHAR 3036
ENCODING 12342
SWIDTH 960 0
DWIDTH 8 0
BBX 8 8 0 -2
BITMAP
e8
54
e6
b4
44
fe
44
00
ENDCHAR
STARTCHAR 3037
ENCODING 12343
SWIDTH 960 0
DWIDTH 8 0
BBX 8 8 0 -2
BITMAP
7c
d4
56
52
da
64
da
00
ENDCHAR
STARTCHAR 3038
ENCODING 12344
SWIDTH 960 0
DWIDTH 8 0
BBX 8 8 0 -2
BITMAP
10
fe
82
7e
da
28
ce
00
ENDCHAR
STARTCHAR 3039
ENCODING 12345
SWIDTH 960 0
DWIDTH 8 0
BBX 8 8 0 -2
BITMAP
5c
54
fc
b4
dc
54
be
00
ENDCHAR
STARTCHAR 303a
ENCODING 12346
SWIDTH 960 0
DWIDTH 8 0
BBX 8 8 0 -2
BITMAP
44
fe
b0
f0
50
70
ce
00
ENDCHAR
STARTCHAR 303b
ENCODING 12347
SWIDTH 960 0
DWIDTH 8 0
BBX 8 8 0 -2
BITMAP
44
a4
4a
fe
e0
8e
ee
00
ENDCHAR
STARTCHAR 303c
ENCODING 12348
SWIDTH 960 0
DWIDTH 8 0
BBX 8 8 0 -2
BITMAP
50
9e
76
be
56
fe
42
00
ENDCHAR
STARTCHAR 303d
ENCODING 12349
SWIDTH 960 0
DWIDTH 8 0
BBX 8 8 0 -2
BITMAP
48
9c
48
be
54
e8
56
00
ENDCHAR
STARTCHAR 303e
ENCODING 12350
SWIDTH 960 0
DWIDTH 8 0
BBX 8 8 0 -2
BITMAP
68
a8
6e
68
7e
12
be
00
ENDCHAR
STARTCHAR 303f
ENCODING 12351
SWIDTH 960 0
DWIDTH 8 0
BBX 8 8 0 -2
BITMAP
0a
fe
08
68
6a
04
da
00
ENDCHAR
STARTCHAR 3040
ENCODING 12352
SWIDTH 960 0
DWIDTH 8 0
BBX 8 8 0 -2
BITMAP
fe
7c
10
54
fe
38
d6
00
ENDCHAR
STARTCHAR 3041
ENCODING 12353
SWIDTH 960 0
DWIDTH 8 0
BBX 8 8 0 -2
BITMAP
44
ea
2e
40
ee
6a
4e
00
ENDCHAR
STARTCHAR 3042
ENCODING 12354
SWIDTH 960 0
DWIDTH 8 0
BBX 8 8 0 -2
BITMAP
10
fe
92
7c
28
18
e6
00
ENDCHAR
STARTCHAR 3043
ENCODING 12355
SWIDTH 960 0
DWIDTH 8 0
BBX 8 8 0 -2
BITMAP
08
7e
54
6a
5c
5c
86
00
ENDCHAR
STARTCHAR 3044
ENCODING 12356
SWIDTH 960 0
DWIDTH 8 0
BBX 8 8 0 -2
BITMAP
48
fe
6a
7e
d4
4c
f2
00
ENDCHAR
STARTCHAR 3045
ENCODING 12357
SWIDTH 960 0
DWIDTH 8 0
BBX 8 8 0 -2
BITMAP
08
fe
b4
fe
a0
ec
0c
00
ENDCHAR
STARTCHAR 3046
ENCODING 12358
SWIDTH 960 0
DWIDTH 8 0
BBX 8 8 0 -2
BITMAP
10
fe
aa
74
fe
38
d6
00
ENDCHAR
STARTCHAR 3047
ENCODING 12359
SWIDTH 960 0
DWIDTH 8 0
BBX 8 8 0 -2
BITMAP
ee
ee
92
fe
aa
fe
ba
00
ENDCHAR
STARTCHAR 3048
ENCODING 12360
SWIDTH 960 0
DWIDTH 8 0
BBX 8 8 0 -2
BITMAP
a8
fe
ea
7e
d4
cc
72
00
ENDCHAR
STARTCHAR 3049
ENCODING 12361
SWIDTH 960 0
DWIDTH 8 0
BBX 8 8 0 -2
BITMAP
10
fe
38
d6
7c
44
7c
00
ENDCHAR
STARTCHAR 304a
ENCODING 12362
SWIDTH 960 0
DWIDTH 8 0
BBX 8 8 0 -2
BITMAP
44
54
4c
44
64
8c
32
00
ENDCHAR
STARTCHAR 304b
ENCODING 12363
SWIDTH 960 0
DWIDTH 8 0
BBX 8 8 0 -2
BITMAP
3e
4a
fe
4a
5e
48
50
00
ENDCHAR
STARTCHAR 304c
ENCODING 12364
SWIDTH 960 0
DWIDTH 8 0
BBX 8 8 0 -2
BITMAP
28
7e
d4
54
54
58
7e
00
ENDCHAR
STARTCHAR 304d
ENCODING 12365
SWIDTH 960 0
DWIDTH 8 0
BBX 8 8 0 -2
BITMAP
28
7e
c8
5a
74
54
5a
00
ENDCHAR
STARTCHAR 304e
ENCODING 12366
SWIDTH 960 0
DWIDTH 8 0
BBX 8 8 0 -2
BITMAP
28
5e
ca
7e
54
7e
44
00
ENDCHAR
STARTCHAR 304f
ENCODING 12367
SWIDTH 960 0
DWIDTH 8 0
BBX 8 8 0 -2
BITMAP
fe
aa
fe
aa
fe
aa
fe
00
ENDCHAR
STARTCHAR 3050
ENCODING 12368
SWIDTH 960 0
DWIDTH 8 0
BBX 8 8 0 -2
BITMAP
10
fe
7c
50
7c
14
ee
00
ENDCHAR
STARTCHAR 3051
ENCODING 12369
SWIDTH 960 0
DWIDTH 8 0
BBX 8 8 0 -2
BITMAP
38
fe
38
d6
7c
28
f6
00
ENDCHAR
STARTCHAR 3052
ENCODING 12370
SWIDTH 960 0
DWIDTH 8 0
BBX 8 8 0 -2
BITMAP
04
7e
7c
54
6e
54
aa
00
ENDCHAR
STARTCHAR 3053
ENCODING 12371
SWIDTH 960 0
DWIDTH 8 0
BBX 8 8 0 -2
BITMAP
72
7e
42
76
46
72
a6
00
ENDCHAR
STARTCHAR 3054
ENCODING 12372
SWIDTH 960 0
DWIDTH 8 0
BBX 8 8 0 -2
BITMAP
54
de
f4
5e
54
54
5e
00
ENDCHAR
STARTCHAR 3055
ENCODING 12373
SWIDTH 960 0
DWIDTH 8 0
BBX 8 8 0 -2
BITMAP
10
7c
28
fe
38
ca
ba
00
ENDCHAR
STARTCHAR 3056
ENCODING 12374
SWIDTH 960 0
DWIDTH 8 0
BBX 8 8 0 -2
BITMAP
72
7e
4a
72
a6
48
ba
00
ENDCHAR
STARTCHAR 3057
ENCODING 12375
SWIDTH 960 0
DWIDTH 8 0
BBX 8 8 0 -2
BITMAP
7c
44
7c
20
7e
aa
56
00
ENDCHAR
STARTCHAR 3058
ENCODING 12376
SWIDTH 960 0
DWIDTH 8 0
BBX 8 8 0 -2
BITMAP
48
fe
48
d4
fe
44
54
00
ENDCHAR
STARTCHAR 3059
ENCODING 12377
SWIDTH 960 0
DWIDTH 8 0
BBX 8 8 0 -2
BITMAP
28
78
1c
24
7e
82
56
00
ENDCHAR
STARTCHAR 305a
ENCODING 12378
SWIDTH 960 0
DWIDTH 8 0
BBX 8 8 0 -2
BITMAP
7c
54
7c
54
fe
48
e6
00
ENDCHAR
STARTCHAR 305b
ENCODING 12379
SWIDTH 960 0
DWIDTH 8 0
BBX 8 8 0 -2
BITMAP
7c
54
7c
28
fe
00
c6
00
ENDCHAR
STARTCHAR 305c
ENCODING 12380
SWIDTH 960 0
DWIDTH 8 0
BBX 8 8 0 -2
BITMAP
ec
54
e8
56
ea
c4
58
00
ENDCHAR
STARTCHAR 305d
ENCODING 12381
SWIDTH 960 0
DWIDTH 8 0
BBX 8 8 0 -2
BITMAP
54
9e
54
be
54
f4
5e
00
ENDCHAR
STARTCHAR 305e
ENCODING 12382
SWIDTH 960 0
DWIDTH 8 0
BBX 8 8 0 -2
BITMAP
48
9e
4a
be
54
fe
44
00
ENDCHAR
STARTCHAR 305f
ENCODING 12383
SWIDTH 960 0
DWIDTH 8 0
BBX 8 8 0 -2
BITMAP
fe
92
fe
7c
44
7c
44
00
ENDCHAR
STARTCHAR 3060
ENCODING 12384
SWIDTH 960 0
DWIDTH 8 0
BBX 8 8 0 -2
BITMAP
28
fe
38
54
fe
28
f6
00
ENDCHAR
STARTCHAR 3061
ENCODING 12385
SWIDTH 960 0
DWIDTH 8 0
BBX 8 8 0 -2
BITMAP
10
fe
10
2a
ec
24
72
00
ENDCHAR
STARTCHAR 3062
ENCODING 12386
SWIDTH 960 0
DWIDTH 8 0
BBX 8 8 0 -2
BITMAP
be
ea
3e
be
14
dc
d4
00
ENDCHAR
STARTCHAR 3063
ENCODING 12387
SWIDTH 960 0
DWIDTH 8 0
BBX 8 8 0 -2
BITMAP
9e
0a
3e
d4
7e
44
be
00
ENDCHAR
STARTCHAR 3064
ENCODING 12388
SWIDTH 960 0
DWIDTH 8 0
BBX 8 8 0 -2
BITMAP
88
3e
2a
fe
5c
62
be
00
ENDCHAR
STARTCHAR 3065
ENCODING 12389
SWIDTH 960 0
DWIDTH 8 0
BBX 8 8 0 -2
BITMAP
fe
90
9c
be
88
b6
fe
00
ENDCHAR
STARTCHAR 3066
ENCODING 12390
SWIDTH 960 0
DWIDTH 8 0
BBX 8 8 0 -2
BITMAP
24
fe
24
24
fe
24
44
00
ENDCHAR
STARTCHAR 3067
ENCODING 12391
SWIDTH 960 0
DWIDTH 8 0
BBX 8 8 0 -2
BITMAP
10
fe
20
54
28
14
e2
00
ENDCHAR
STARTCHAR 3068
ENCODING 12392
SWIDTH 960 0
DWIDTH 8 0
BBX 8 8 0 -2
BITMAP
44
7e
c4
74
76
cc
32
00
ENDCHAR
STARTCHAR 3069
ENCODING 12393
SWIDTH 960 0
DWIDTH 8 0
BBX 8 8 0 -2
BITMAP
10
fe
24
fa
44
7c
44
00
ENDCHAR
STARTCHAR 306a
ENCODING 12394
SWIDTH 960 0
DWIDTH 8 0
BBX 8 8 0 -2
BITMAP
4e
fa
4c
7a
da
7c
58
00
ENDCHAR
STARTCHAR 306b
ENCODING 12395
SWIDTH 960 0
DWIDTH 8 0
BBX 8 8 0 -2
BITMAP
d2
64
52
9c
76
74
2a
00
ENDCHAR
STARTCHAR 306c
ENCODING 12396
SWIDTH 960 0
DWIDTH 8 0
BBX 8 8 0 -2
BITMAP
00
00
04
fe
00
00
00
00
ENDCHAR
STARTCHAR 306d
ENCODING 12397
SWIDTH 960 0
DWIDTH 8 0
BBX 8 8 0 -2
BITMAP
10
fe
10
fe
ba
20
3c
00
ENDCHAR
STARTCHAR 306e
ENCODING 12398
SWIDTH 960 0
DWIDTH 8 0
BBX 8 8 0 -2
BITMAP
94
3e
94
22
9c
9c
be
00
ENDCHAR
STARTCHAR 306f
ENCODING 12399
SWIDTH 960 0
DWIDTH 8 0
BBX 8 8 0 -2
BITMAP
8c
34
1e
da
4c
56
be
00
ENDCHAR
STARTCHAR 3070
ENCODING 12400
SWIDTH 960 0
DWIDTH 8 0
BBX 8 8 0 -2
BITMAP
e6
58
ea
40
f6
d6
56
00
ENDCHAR
STARTCHAR 3071
ENCODING 12401
SWIDTH 960 0
DWIDTH 8 0
BBX 8 8 0 -2
BITMAP
28
fe
10
9e
2a
08
b6
00
ENDCHAR
STARTCHAR 3072
ENCODING 12402
SWIDTH 960 0
DWIDTH 8 0
BBX 8 8 0 -2
BITMAP
28
fe
28
7c
10
fe
30
00
ENDCHAR
STARTCHAR 3073
ENCODING 12403
SWIDTH 960 0
DWIDTH 8 0
BBX 8 8 0 -2
BITMAP
f6
52
f6
e4
f6
1a
b6
00
ENDCHAR
STARTCHAR 3074
ENCODING 12404
SWIDTH 960 0
DWIDTH 8 0
BBX 8 8 0 -2
BITMAP
10
24
fa
28
28
4a
8e
00
ENDCHAR
STARTCHAR 3075
ENCODING 12405
SWIDTH 960 0
DWIDTH 8 0
BBX 8 8 0 -2
BITMAP
2e
ca
8a
ea
8a
e8
08
00
ENDCHAR
STARTCHAR 3076
ENCODING 12406
SWIDTH 960 0
DWIDTH 8 0
BBX 8 8 0 -2
BITMAP
3e
ea
be
aa
f6
22
3e
00
ENDCHAR
STARTCHAR 3077
ENCODING 12407
SWIDTH 960 0
DWIDTH 8 0
BBX 8 8 0 -2
BITMAP
38
28
7c
7c
44
7c
c6
00
ENDCHAR
STARTCHAR 3078
ENCODING 12408
SWIDTH 960 0
DWIDTH 8 0
BBX 8 8 0 -2
BITMAP
fe
92
fe
92
aa
c6
fe
00
ENDCHAR
STARTCHAR 3079
ENCODING 12409
SWIDTH 960 0
DWIDTH 8 0
BBX 8 8 0 -2
BITMAP
be
aa
fe
ea
f6
62
be
00
ENDCHAR
STARTCHAR 307a
ENCODING 12410
SWIDTH 960 0
DWIDTH 8 0
BBX 8 8 0 -2
BITMAP
f2
12
f2
82
f2
12
32
00
ENDCHAR
STARTCHAR 307b
ENCODING 12411
SWIDTH 960 0
DWIDTH 8 0
BBX 8 8 0 -2
BITMAP
48
ae
56
e4
e4
84
ea
00
ENDCHAR
STARTCHAR 307c
ENCODING 12412
SWIDTH 960 0
DWIDTH 8 0
BBX 8 8 0 -2
BITMAP
86
38
aa
00
be
88
be
00
ENDCHAR
STARTCHAR 307d
ENCODING 12413
SWIDTH 960 0
DWIDTH 8 0
BBX 8 8 0 -2
BITMAP
54
64
54
7c
6c
7c
ae
00
ENDCHAR
STARTCHAR 307e
ENCODING 12414
SWIDTH 960 0
DWIDTH 8 0
BBX 8 8 0 -2
BITMAP
28
fe
c8
94
fe
d4
ba
00
ENDCHAR
STARTCHAR 3121
ENCODING 12577
SWIDTH 960 0
DWIDTH 8 0
BBX 8 8 0 -2
BITMAP
c8
fe
ae
c0
fe
94
a6
00
ENDCHAR
STARTCHAR 3122
ENCODING 12578
SWIDTH 960 0
DWIDTH 8 0
BBX 8 8 0 -2
BITMAP
c8
d4
ba
c8
fe
94
ba
00
ENDCHAR
STARTCHAR 3123
ENCODING 12579
SWIDTH 960 0
DWIDTH 8 0
BBX 8 8 0 -2
BITMAP
c6
f8
aa
dc
dc
b2
ae
00
ENDCHAR
STARTCHAR 3124
ENCODING 12580
SWIDTH 960 0
DWIDTH 8 0
BBX 8 8 0 -2
BITMAP
2c
fc
5e
f2
1e
60
72
00
ENDCHAR
STARTCHAR 3125
ENCODING 12581
SWIDTH 960 0
DWIDTH 8 0
BBX 8 8 0 -2
BITMAP
04
fe
a4
b4
ec
04
0c
00
ENDCHAR
STARTCHAR 3126
ENCODING 12582
SWIDTH 960 0
DWIDTH 8 0
BBX 8 8 0 -2
BITMAP
20
fe
20
7c
a4
24
3c
00
ENDCHAR
STARTCHAR 3127
ENCODING 12583
SWIDTH 960 0
DWIDTH 8 0
BBX 8 8 0 -2
BITMAP
10
fe
ba
10
fe
10
30
00
ENDCHAR
STARTCHAR 3128
ENCODING 12584
SWIDTH 960 0
DWIDTH 8 0
BBX 8 8 0 -2
BITMAP
10
7c
44
7c
7e
02
aa
00
ENDCHAR
STARTCHAR 3129
ENCODING 12585
SWIDTH 960 0
DWIDTH 8 0
BBX 8 8 0 -2
BITMAP
fe
12
5a
12
36
da
36
00
ENDCHAR
STARTCHAR 312a
ENCODING 12586
SWIDTH 960 0
DWIDTH 8 0
BBX 8 8 0 -2
BITMAP
9c
08
3e
c8
48
58
be
00
ENDCHAR
STARTCHAR 312b
ENCODING 12587
SWIDTH 960 0
DWIDTH 8 0
BBX 8 8 0 -2
BITMAP
fe
10
fe
92
b6
92
b6
00
ENDCHAR
STARTCHAR 312c
ENCODING 12588
SWIDTH 960 0
DWIDTH 8 0
BBX 8 8 0 -2
BITMAP
2e
ca
aa
aa
ea
28
48
00
ENDCHAR
STARTCHAR 312d
ENCODING 12589
SWIDTH 960 0
DWIDTH 8 0
BBX 8 8 0 -2
BITMAP
54
fe
2e
f8
ae
72
aa
00
ENDCHAR
STARTCHAR 312e
ENCODING 12590
SWIDTH 960 0
DWIDTH 8 0
BBX 8 8 0 -2
BITMAP
10
fe
aa
4e
ee
4c
b6
00
ENDCHAR
STARTCHAR 312f
ENCODING 12591
SWIDTH 960 0
DWIDTH 8 0
BBX 8 8 0 -2
BITMAP
7c
14
14
fe
24
24
fe
00
ENDCHAR
STARTCHAR 3130
ENCODING 12592
SWIDTH 960 0
DWIDTH 8 0
BBX 8 8 0 -2
BITMAP
f4
5e
54
9e
74
74
1e
00
ENDCHAR
STARTCHAR 3131
ENCODING 12593
SWIDTH 960 0
DWIDTH 8 0
BBX 8 8 0 -2
BITMAP
20
ce
82
ee
82
82
fe
00
ENDCHAR
STARTCHAR 3132
ENCODING 12594
SWIDTH 960 0
DWIDTH 8 0
BBX 8 8 0 -2
BITMAP
9c
14
94
3e
a2
ba
ba
00
ENDCHAR
STARTCHAR 3133
ENCODING 12595
SWIDTH 960 0
DWIDTH 8 0
BBX 8 8 0 -2
BITMAP
08
ee
b8
ae
e0
34
5e
00
ENDCHAR
STARTCHAR 3134
ENCODING 12596
SWIDTH 960 0
DWIDTH 8 0
BBX 8 8 0 -2
BITMAP
1e
f2
be
b2
fe
00
12
00
ENDCHAR
STARTCHAR 3135
ENCODING 12597
SWIDTH 960 0
DWIDTH 8 0
BBX 8 8 0 -2
BITMAP
54
ee
54
fe
76
62
f6
00
ENDCHAR
STARTCHAR 3136
ENCODING 12598
SWIDTH 960 0
DWIDTH 8 0
BBX 8 8 0 -2
BITMAP
28
fe
72
7e
4a
72
a6
00
ENDCHAR
STARTCHAR 3137
ENCODING 12599
SWIDTH 960 0
DWIDTH 8 0
BBX 8 8 0 -2
BITMAP
dc
54
fe
fe
d4
08
b6
00
ENDCHAR
STARTCHAR 3138
ENCODING 12600
SWIDTH 960 0
DWIDTH 8 0
BBX 8 8 0 -2
BITMAP
4a
5c
e8
be
d4
68
8e
00
ENDCHAR
STARTCHAR 3139
ENCODING 12601
SWIDTH 960 0
DWIDTH 8 0
BBX 8 8 0 -2
BITMAP
7e
5e
6a
6a
5e
6c
96
00
ENDCHAR
STARTCHAR 313a
ENCODING 12602
SWIDTH 960 0
DWIDTH 8 0
BBX 8 8 0 -2
BITMAP
8a
3e
88
3e
aa
be
aa
00
ENDCHAR
STARTCHAR 313b
ENCODING 12603
SWIDTH 960 0
DWIDTH 8 0
BBX 8 8 0 -2
BITMAP
0c
70
54
54
54
54
ba
00
ENDCHAR
STARTCHAR 313c
ENCODING 12604
SWIDTH 960 0
DWIDTH 8 0
BBX 8 8 0 -2
BITMAP
ee
aa
fe
92
ba
92
ba
00
ENDCHAR
STARTCHAR 313d
ENCODING 12605
SWIDTH 960 0
DWIDTH 8 0
BBX 8 8 0 -2
BITMAP
14
fe
b6
a2
fe
14
0c
00
ENDCHAR
STARTCHAR 313e
ENCODING 12606
SWIDTH 960 0
DWIDTH 8 0
BBX 8 8 0 -2
BITMAP
7c
00
fe
10
10
24
fa
00
ENDCHAR
STARTCHAR 313f
ENCODING 12607
SWIDTH 960 0
DWIDTH 8 0
BBX 8 8 0 -2
BITMAP
be
2a
1c
dc
7e
48
be
00
ENDCHAR
STARTCHAR 3140
ENCODING 12608
SWIDTH 960 0
DWIDTH 8 0
BBX 8 8 0 -2
BITMAP
38
fe
b6
00
fe
24
fa
00
ENDCHAR
STARTCHAR 3141
ENCODING 12609
SWIDTH 960 0
DWIDTH 8 0
BBX 8 8 0 -2
BITMAP
28
fe
3c
48
fe
48
5c
00
ENDCHAR
STARTCHAR 3142
ENCODING 12610
SWIDTH 960 0
DWIDTH 8 0
BBX 8 8 0 -2
BITMAP
5e
aa
4e
ee
ea
9e
e2
00
ENDCHAR
STARTCHAR 3143
ENCODING 12611
SWIDTH 960 0
DWIDTH 8 0
BBX 8 8 0 -2
BITMAP
2e
32
fa
aa
54
b4
3a
00
ENDCHAR
STARTCHAR 3144
ENCODING 12612
SWIDTH 960 0
DWIDTH 8 0
BBX 8 8 0 -2
BITMAP
54
fe
aa
38
10
7c
7c
00
ENDCHAR
STARTCHAR 3145
ENCODING 12613
SWIDTH 960 0
DWIDTH 8 0
BBX 8 8 0 -2
BITMAP
6c
6c
92
20
fe
28
f6
00
ENDCHAR
STARTCHAR 3146
ENCODING 12614
SWIDTH 960 0
DWIDTH 8 0
BBX 8 8 0 -2
BITMAP
72
54
fa
54
70
22
ac
00
ENDCHAR
STARTCHAR 3147
ENCODING 12615
SWIDTH 960 0
DWIDTH 8 0
BBX 8 8 0 -2
BITMAP
08
fc
b4
fe
a8
e8
36
00
ENDCHAR
STARTCHAR 3148
ENCODING 12616
SWIDTH 960 0
DWIDTH 8 0
BBX 8 8 0 -2
BITMAP
10
7c
54
7c
0a
04
fa
00
ENDCHAR
STARTCHAR 3149
ENCODING 12617
SWIDTH 960 0
DWIDTH 8 0
BBX 8 8 0 -2
BITMAP
54
fe
92
7c
10
38
d6
00
ENDCHAR
STARTCHAR 314a
ENCODING 12618
SWIDTH 960 0
DWIDTH 8 0
BBX 8 8 0 -2
BITMAP
30
00
32
d4
58
94
32
00
ENDCHAR
STARTCHAR 314b
ENCODING 12619
SWIDTH 960 0
DWIDTH 8 0
BBX 8 8 0 -2
BITMAP
98
00
98
6a
ac
ca
98
00
ENDCHAR
STARTCHAR 314c
ENCODING 12620
SWIDTH 960 0
DWIDTH 8 0
BBX 8 8 0 -2
BITMAP
88
3c
ac
3c
8a
84
ba
00
ENDCHAR
STARTCHAR 314d
ENCODING 12621
SWIDTH 960 0
DWIDTH 8 0
BBX 8 8 0 -2
BITMAP
d4
7e
54
ea
7e
c8
36
00
ENDCHAR
STARTCHAR 314e
ENCODING 12622
SWIDTH 960 0
DWIDTH 8 0
BBX 8 8 0 -2
BITMAP
f8
2e
52
aa
7c
54
fe
00
ENDCHAR
STARTCHAR 314f
ENCODING 12623
SWIDTH 960 0
DWIDTH 8 0
BBX 8 8 0 -2
BITMAP
8e
e4
8e
6a
fe
70
aa
00
ENDCHAR
STARTCHAR 3150
ENCODING 12624
SWIDTH 960 0
DWIDTH 8 0
BBX 8 8 0 -2
BITMAP
8e
e4
8e
6a
fe
20
aa
00
ENDCHAR
STARTCHAR 3151
ENCODING 12625
SWIDTH 960 0
DWIDTH 8 0
BBX 8 8 0 -2
BITMAP
28
fe
28
54
fe
10
ee
00
ENDCHAR
STARTCHAR 3152
ENCODING 12626
SWIDTH 960 0
DWIDTH 8 0
BBX 8 8 0 -2
BITMAP
56
b8
5e
ea
52
7a
56
00
ENDCHAR
STARTCHAR 3153
ENCODING 12627
SWIDTH 960 0
DWIDTH 8 0
BBX 8 8 0 -2
BITMAP
58
c0
18
ba
1c
ea
d8
00
ENDCHAR
STARTCHAR 3154
ENCODING 12628
SWIDTH 960 0
DWIDTH 8 0
BBX 8 8 0 -2
BITMAP
54
be
e2
7e
d4
54
e6
00
ENDCHAR
STARTCHAR 3155
ENCODING 12629
SWIDTH 960 0
DWIDTH 8 0
BBX 8 8 0 -2
BITMAP
88
3e
90
16
ba
94
9a
00
ENDCHAR
STARTCHAR 3156
ENCODING 12630
SWIDTH 960 0
DWIDTH 8 0
BBX 8 8 0 -2
BITMAP
08
7e
dc
54
ee
4c
b6
00
ENDCHAR
STARTCHAR 3157
ENCODING 12631
SWIDTH 960 0
DWIDTH 8 0
BBX 8 8 0 -2
BITMAP
24
fe
44
82
7c
54
fe
00
ENDCHAR
STARTCHAR 3158
ENCODING 12632
SWIDTH 960 0
DWIDTH 8 0
BBX 8 8 0 -2
BITMAP
ee
ca
ea
cc
ec
2a
b2
00
ENDCHAR
STARTCHAR 3159
ENCODING 12633
SWIDTH 960 0
DWIDTH 8 0
BBX 8 8 0 -2
BITMAP
54
fe
e2
7e
54
54
66
00
ENDCHAR
STARTCHAR 315a
ENCODING 12634
SWIDTH 960 0
DWIDTH 8 0
BBX 8 8 0 -2
BITMAP
5c
d4
1c
de
32
da
c6
00
ENDCHAR
STARTCHAR 315b
ENCODING 12635
SWIDTH 960 0
DWIDTH 8 0
BBX 8 8 0 -2
BITMAP
44
fe
54
f6
54
da
be
00
ENDCHAR
STARTCHAR 315c
ENCODING 12636
SWIDTH 960 0
DWIDTH 8 0
BBX 8 8 0 -2
BITMAP
ee
ee
aa
ba
aa
9a
ee
00
ENDCHAR
STARTCHAR 315d
ENCODING 12637
SWIDTH 960 0
DWIDTH 8 0
BBX 8 8 0 -2
BITMAP
7e
dc
5c
dc
f4
48
76
00
ENDCHAR
STARTCHAR 315e
ENCODING 12638
SWIDTH 960 0
DWIDTH 8 0
BBX 8 8 0 -2
BITMAP
7e
74
4e
74
74
74
ba
00
ENDCHAR
STARTCHAR 315f
ENCODING 12639
SWIDTH 960 0
DWIDTH 8 0
BBX 8 8 0 -2
BITMAP
fe
92
92
fe
82
82
86
00
ENDCHAR
STARTCHAR 3160
ENCODING 12640
SWIDTH 960 0
DWIDTH 8 0
BBX 8 8 0 -2
BITMAP
fe
ba
fe
aa
ba
d6
fe
00
ENDCHAR
STARTCHAR 3161
ENCODING 12641
SWIDTH 960 0
DWIDTH 8 0
BBX 8 8 0 -2
BITMAP
7e
6c
ec
7a
64
ea
3e
00
ENDCHAR
STARTCHAR 3162
ENCODING 12642
SWIDTH 960 0
DWIDTH 8 0
BBX 8 8 0 -2
BITMAP
10
fe
28
d6
7c
7c
0e
00
ENDCHAR
STARTCHAR 3163
ENCODING 12643
SWIDTH 960 0
DWIDTH 8 0
BBX 8 8 0 -2
BITMAP
10
fe
aa
38
fe
28
f6
00
ENDCHAR
STARTCHAR 3164
ENCODING 12644
SWIDTH 960 0
DWIDTH 8 0
BBX 8 8 0 -2
BITMAP
c2
5c
86
54
de
40
be
00
ENDCHAR
STARTCHAR 3165
ENCODING 12645
SWIDTH 960 0
DWIDTH 8 0
BBX 8 8 0 -2
BITMAP
7e
da
28
ce
10
ca
ba
00
ENDCHAR
STARTCHAR 3166
ENCODING 12646
SWIDTH 960 0
DWIDTH 8 0
BBX 8 8 0 -2
BITMAP
48
fe
54
6a
dc
5c
c6
00
ENDCHAR
STARTCHAR 3167
ENCODING 12647
SWIDTH 960 0
DWIDTH 8 0
BBX 8 8 0 -2
BITMAP
46
f8
6a
5e
ca
54
ea
00
ENDCHAR
STARTCHAR 3168
ENCODING 12648
SWIDTH 960 0
DWIDTH 8 0
BBX 8 8 0 -2
BITMAP
94
14
94
22
9c
94
9c
00
ENDCHAR
STARTCHAR 3169
ENCODING 12649
SWIDTH 960 0
DWIDTH 8 0
BBX 8 8 0 -2
BITMAP
88
3e
a2
1c
aa
9c
a2
00
ENDCHAR
STARTCHAR 316a
ENCODING 12650
SWIDTH 960 0
DWIDTH 8 0
BBX 8 8 0 -2
BITMAP
10
54
28
c6
54
28
c6
00
ENDCHAR
STARTCHAR 316b
ENCODING 12651
SWIDTH 960 0
DWIDTH 8 0
BBX 8 8 0 -2
BITMAP
4e
52
e4
d6
56
76
96
00
ENDCHAR
STARTCHAR 316c
ENCODING 12652
SWIDTH 960 0
DWIDTH 8 0
BBX 8 8 0 -2
BITMAP
5e
4c
fe
de
5e
64
9e
00
ENDCHAR
STARTCHAR 316d
ENCODING 12653
SWIDTH 960 0
DWIDTH 8 0
BBX 8 8 0 -2
BITMAP
28
fe
de
54
de
00
aa
00
ENDCHAR
STARTCHAR 316e
ENCODING 12654
SWIDTH 960 0
DWIDTH 8 0
BBX 8 8 0 -2
BITMAP
a8
5c
be
72
be
34
da
00
ENDCHAR
STARTCHAR 316f
ENCODING 12655
SWIDTH 960 0
DWIDTH 8 0
BBX 8 8 0 -2
BITMAP
5c
84
7e
90
5a
ec
5a
00
ENDCHAR
STARTCHAR 3170
ENCODING 12656
SWIDTH 960 0
DWIDTH 8 0
BBX 8 8 0 -2
BITMAP
56
fa
f4
9e
ee
78
ee
00
ENDCHAR
STARTCHAR 3171
ENCODING 12657
SWIDTH 960 0
DWIDTH 8 0
BBX 8 8 0 -2
BITMAP
28
fe
28
7e
da
28
ce
00
ENDCHAR
STARTCHAR 3172
ENCODING 12658
SWIDTH 960 0
DWIDTH 8 0
BBX 8 8 0 -2
BITMAP
28
fe
fe
aa
ba
d6
fe
00
ENDCHAR
STARTCHAR 3173
ENCODING 12659
SWIDTH 960 0
DWIDTH 8 0
BBX 8 8 0 -2
BITMAP
88
1c
3e
d4
5c
6a
be
00
ENDCHAR
STARTCHAR 3174
ENCODING 12660
SWIDTH 960 0
DWIDTH 8 0
BBX 8 8 0 -2
BITMAP
4a
aa
ea
50
ee
6a
ce
00
ENDCHAR
STARTCHAR 3175
ENCODING 12661
SWIDTH 960 0
DWIDTH 8 0
BBX 8 8 0 -2
BITMAP
7e
da
28
fe
3e
02
aa
00
ENDCHAR
STARTCHAR 3176
ENCODING 12662
SWIDTH 960 0
DWIDTH 8 0
BBX 8 8 0 -2
BITMAP
50
5e
f4
5c
40
dc
3e
00
ENDCHAR
STARTCHAR 3177
ENCODING 12663
SWIDTH 960 0
DWIDTH 8 0
BBX 8 8 0 -2
BITMAP
24
fa
40
74
52
54
b2
00
ENDCHAR
STARTCHAR 3178
ENCODING 12664
SWIDTH 960 0
DWIDTH 8 0
BBX 8 8 0 -2
BITMAP
be
10
be
10
9e
82
86
00
ENDCHAR
STARTCHAR 3179
ENCODING 12665
SWIDTH 960 0
DWIDTH 8 0
BBX 8 8 0 -2
BITMAP
de
f6
5e
f6
5e
ea
16
00
ENDCHAR
STARTCHAR 317a
ENCODING 12666
SWIDTH 960 0
DWIDTH 8 0
BBX 8 8 0 -2
BITMAP
ee
aa
aa
ba
82
82
fe
00
ENDCHAR
STARTCHAR 317b
ENCODING 12667
SWIDTH 960 0
DWIDTH 8 0
BBX 8 8 0 -2
BITMAP
10
7c
54
fe
10
28
c6
00
ENDCHAR
STARTCHAR 317c
ENCODING 12668
SWIDTH 960 0
DWIDTH 8 0
BBX 8 8 0 -2
BITMAP
10
7c
5c
74
fe
10
ee
00
ENDCHAR
STARTCHAR 317d
ENCODING 12669
SWIDTH 960 0
DWIDTH 8 0
BBX 8 8 0 -2
BITMAP
50
88
7e
c8
5c
48
7e
00
ENDCHAR
STARTCHAR 317e
ENCODING 12670
SWIDTH 960 0
DWIDTH 8 0
BBX 8 8 0 -2
BITMAP
08
7e
50
48
50
76
9c
00
ENDCHAR
STARTCHAR 3221
ENCODING 12833
SWIDTH 960 0
DWIDTH 8 0
BBX 8 8 0 -2
BITMAP
7e
ea
7e
6a
fe
48
c8
00
ENDCHAR
STARTCHAR 3222
ENCODING 12834
SWIDTH 960 0
DWIDTH 8 0
BBX 8 8 0 -2
BITMAP
1e
e4
a4
ee
a4
e4
1e
00
ENDCHAR
STARTCHAR 3223
ENCODING 12835
SWIDTH 960 0
DWIDTH 8 0
BBX 8 8 0 -2
BITMAP
54
fe
54
fe
dc
5c
62
00
ENDCHAR
STARTCHAR 3224
ENCODING 12836
SWIDTH 960 0
DWIDTH 8 0
BBX 8 8 0 -2
BITMAP
e8
8e
d6
a4
d4
84
ea
00
ENDCHAR
STARTCHAR 3225
ENCODING 12837
SWIDTH 960 0
DWIDTH 8 0
BBX 8 8 0 -2
BITMAP
ee
8a
d0
ae
da
84
ea
00
ENDCHAR
STARTCHAR 3226
ENCODING 12838
SWIDTH 960 0
DWIDTH 8 0
BBX 8 8 0 -2
BITMAP
fe
10
10
7c
10
10
fe
00
ENDCHAR
STARTCHAR 3227
ENCODING 12839
SWIDTH 960 0
DWIDTH 8 0
BBX 8 8 0 -2
BITMAP
28
c6
20
fe
5a
36
da
00
ENDCHAR
STARTCHAR 3228
ENCODING 12840
SWIDTH 960 0
DWIDTH 8 0
BBX 8 8 0 -2
BITMAP
48
fe
36
5a
fe
64
5a
00
ENDCHAR
STARTCHAR 3229
ENCODING 12841
SWIDTH 960 0
DWIDTH 8 0
BBX 8 8 0 -2
BITMAP
54
fe
92
38
3e
02
aa
00
ENDCHAR
STARTCHAR 322a
ENCODING 12842
SWIDTH 960 0
DWIDTH 8 0
BBX 8 8 0 -2
BITMAP
e4
8e
de
a8
de
82
ea
00
ENDCHAR
STARTCHAR 322b
ENCODING 12843
SWIDTH 960 0
DWIDTH 8 0
BBX 8 8 0 -2
BITMAP
28
fe
28
fe
54
7c
c6
00
ENDCHAR
STARTCHAR 322c
ENCODING 12844
SWIDTH 960 0
DWIDTH 8 0
BBX 8 8 0 -2
BITMAP
fe
aa
fe
92
d6
fe
82
00
ENDCHAR
STARTCHAR 322d
ENCODING 12845
SWIDTH 960 0
DWIDTH 8 0
BBX 8 8 0 -2
BITMAP
88
3e
aa
2a
be
88
88
00
ENDCHAR
STARTCHAR 322e
ENCODING 12846
SWIDTH 960 0
DWIDTH 8 0
BBX 8 8 0 -2
BITMAP
28
fe
a4
56
b4
24
da
00
ENDCHAR
STARTCHAR 322f
ENCODING 12847
SWIDTH 960 0
DWIDTH 8 0
BBX 8 8 0 -2
BITMAP
28
7e
d4
7e
5c
72
6e
00
ENDCHAR
STARTCHAR 3230
ENCODING 12848
SWIDTH 960 0
DWIDTH 8 0
BBX 8 8 0 -2
BITMAP
7e
42
7e
54
7a
48
be
00
ENDCHAR
STARTCHAR 3231
ENCODING 12849
SWIDTH 960 0
DWIDTH 8 0
BBX 8 8 0 -2
BITMAP
48
fe
d4
7e
5c
72
6e
00
ENDCHAR
STARTCHAR 3232
ENCODING 12850
SWIDTH 960 0
DWIDTH 8 0
BBX 8 8 0 -2
BITMAP
e8
be
f4
be
ec
ba
b6
00
ENDCHAR
STARTCHAR 3233
ENCODING 12851
SWIDTH 960 0
DWIDTH 8 0
BBX 8 8 0 -2
BITMAP
5e
c4
7e
ea
fe
6a
6a
00
ENDCHAR
STARTCHAR 3234
ENCODING 12852
SWIDTH 960 0
DWIDTH 8 0
BBX 8 8 0 -2
BITMAP
64
74
ae
34
e4
24
2e
00
ENDCHAR
STARTCHAR 3235
ENCODING 12853
SWIDTH 960 0
DWIDTH 8 0
BBX 8 8 0 -2
BITMAP
78
08
10
20
40
82
7e
00
ENDCHAR
STARTCHAR 3236
ENCODING 12854
SWIDTH 960 0
DWIDTH 8 0
BBX 8 8 0 -2
BITMAP
28
7e
d4
6a
5c
5c
46
00
ENDCHAR
STARTCHAR 3237
ENCODING 12855
SWIDTH 960 0
DWIDTH 8 0
BBX 8 8 0 -2
BITMAP
4e
7a
aa
fa
2a
b8
c8
00
ENDCHAR
STARTCHAR 3238
ENCODING 12856
SWIDTH 960 0
DWIDTH 8 0
BBX 8 8 0 -2
BITMAP
7c
54
6c
7c
54
ca
ba
00
ENDCHAR
STARTCHAR 3239
ENCODING 12857
SWIDTH 960 0
DWIDTH 8 0
BBX 8 8 0 -2
BITMAP
bc
24
bc
00
bc
ac
fe
00
ENDCHAR
STARTCHAR 323a
ENCODING 12858
SWIDTH 960 0
DWIDTH 8 0
BBX 8 8 0 -2
BITMAP
c6
78
ea
5c
dc
f2
6e
00
ENDCHAR
STARTCHAR 323b
ENCODING 12859
SWIDTH 960 0
DWIDTH 8 0
BBX 8 8 0 -2
BITMAP
10
7c
28
fe
7c
44
7c
00
ENDCHAR
STARTCHAR 323c
ENCODING 12860
SWIDTH 960 0
DWIDTH 8 0
BBX 8 8 0 -2
BITMAP
fe
10
18
14
10
10
10
00
ENDCHAR
STARTCHAR 323d
ENCODING 12861
SWIDTH 960 0
DWIDTH 8 0
BBX 8 8 0 -2
BITMAP
30
50
d2
5c
50
52
5e
00
ENDCHAR
STARTCHAR 323e
ENCODING 12862
SWIDTH 960 0
DWIDTH 8 0
BBX 8 8 0 -2
BITMAP
3e
50
de
5a
5a
64
5a
00
ENDCHAR
STARTCHAR 323f
ENCODING 12863
SWIDTH 960 0
DWIDTH 8 0
BBX 8 8 0 -2
BITMAP
3e
42
de
56
5e
42
46
00
ENDCHAR
STARTCHAR 3240
ENCODING 12864
SWIDTH 960 0
DWIDTH 8 0
BBX 8 8 0 -2
BITMAP
50
7e
da
da
5a
6a
6e
00
ENDCHAR
STARTCHAR 3241
ENCODING 12865
SWIDTH 960 0
DWIDTH 8 0
BBX 8 8 0 -2
BITMAP
3e
48
de
5a
5a
5a
5e
00
ENDCHAR
STARTCHAR 3242
ENCODING 12866
SWIDTH 960 0
DWIDTH 8 0
BBX 8 8 0 -2
BITMAP
28
5c
c8
7e
5c
48
7e
00
ENDCHAR
STARTCHAR 3243
ENCODING 12867
SWIDTH 960 0
DWIDTH 8 0
BBX 8 8 0 -2
BITMAP
40
fe
5a
5a
5a
5a
be
00
ENDCHAR
STARTCHAR 3244
ENCODING 12868
SWIDTH 960 0
DWIDTH 8 0
BBX 8 8 0 -2
BITMAP
fe
04
74
54
74
04
0c
00
ENDCHAR
STARTCHAR 3245
ENCODING 12869
SWIDTH 960 0
DWIDTH 8 0
BBX 8 8 0 -2
BITMAP
10
fe
7c
28
fe
5a
be
00
ENDCHAR
STARTCHAR 3246
ENCODING 12870
SWIDTH 960 0
DWIDTH 8 0
BBX 8 8 0 -2
BITMAP
fe
38
38
38
68
10
ee
00
ENDCHAR
STARTCHAR 3247
ENCODING 12871
SWIDTH 960 0
DWIDTH 8 0
BBX 8 8 0 -2
BITMAP
88
be
e2
dc
da
6c
9a
00
ENDCHAR
STARTCHAR 3248
ENCODING 12872
SWIDTH 960 0
DWIDTH 8 0
BBX 8 8 0 -2
BITMAP
10
fe
ba
30
da
2c
da
00
ENDCHAR
STARTCHAR 3249
ENCODING 12873
SWIDTH 960 0
DWIDTH 8 0
BBX 8 8 0 -2
BITMAP
10
fe
aa
38
fe
5c
aa
00
ENDCHAR
STARTCHAR 324a
ENCODING 12874
SWIDTH 960 0
DWIDTH 8 0
BBX 8 8 0 -2
BITMAP
e4
54
e4
54
c6
fc
44
00
ENDCHAR
STARTCHAR 324b
ENCODING 12875
SWIDTH 960 0
DWIDTH 8 0
BBX 8 8 0 -2
BITMAP
36
f2
a6
fe
aa
f4
2a
00
ENDCHAR
STARTCHAR 324c
ENCODING 12876
SWIDTH 960 0
DWIDTH 8 0
BBX 8 8 0 -2
BITMAP
7c
54
7c
54
fe
38
d6
00
ENDCHAR
STARTCHAR 324d
ENCODING 12877
SWIDTH 960 0
DWIDTH 8 0
BBX 8 8 0 -2
BITMAP
40
fe
5a
be
fe
38
d6
00
ENDCHAR
STARTCHAR 324e
ENCODING 12878
SWIDTH 960 0
DWIDTH 8 0
BBX 8 8 0 -2
BITMAP
e8
2e
b6
e4
24
a4
7a
00
ENDCHAR
STARTCHAR 324f
ENCODING 12879
SWIDTH 960 0
DWIDTH 8 0
BBX 8 8 0 -2
BITMAP
be
02
ba
2a
ba
82
86
00
ENDCHAR
STARTCHAR 3250
ENCODING 12880
SWIDTH 960 0
DWIDTH 8 0
BBX 8 8 0 -2
BITMAP
10
10
54
58
10
28
c6
00
ENDCHAR
STARTCHAR 3251
ENCODING 12881
SWIDTH 960 0
DWIDTH 8 0
BBX 8 8 0 -2
BITMAP
fe
42
5e
f6
5e
e2
06
00
ENDCHAR
STARTCHAR 3252
ENCODING 12882
SWIDTH 960 0
DWIDTH 8 0
BBX 8 8 0 -2
BITMAP
4e
ea
2a
5e
f2
5a
5a
00
ENDCHAR
STARTCHAR 3253
ENCODING 12883
SWIDTH 960 0
DWIDTH 8 0
BBX 8 8 0 -2
BITMAP
0c
70
fe
10
38
d6
10
00
ENDCHAR
STARTCHAR 3254
ENCODING 12884
SWIDTH 960 0
DWIDTH 8 0
BBX 8 8 0 -2
BITMAP
c8
7e
e2
5c
da
ec
5a
00
ENDCHAR
STARTCHAR 3255
ENCODING 12885
SWIDTH 960 0
DWIDTH 8 0
BBX 8 8 0 -2
BITMAP
48
6e
b4
fe
92
aa
fe
00
ENDCHAR
STARTCHAR 3256
ENCODING 12886
SWIDTH 960 0
DWIDTH 8 0
BBX 8 8 0 -2
BITMAP
28
fe
28
4a
cc
4a
4e
00
ENDCHAR
STARTCHAR 3257
ENCODING 12887
SWIDTH 960 0
DWIDTH 8 0
BBX 8 8 0 -2
BITMAP
28
fe
28
fe
74
54
74
00
ENDCHAR
STARTCHAR 3258
ENCODING 12888
SWIDTH 960 0
DWIDTH 8 0
BBX 8 8 0 -2
BITMAP
28
fe
28
40
fe
5a
be
00
ENDCHAR
STARTCHAR 3259
ENCODING 12889
SWIDTH 960 0
DWIDTH 8 0
BBX 8 8 0 -2
BITMAP
28
fe
28
5e
c2
5a
5a
00
ENDCHAR
STARTCHAR 325a
ENCODING 12890
SWIDTH 960 0
DWIDTH 8 0
BBX 8 8 0 -2
BITMAP
28
fe
54
fe
54
fe
10
00
ENDCHAR
STARTCHAR 325b
ENCODING 12891
SWIDTH 960 0
DWIDTH 8 0
BBX 8 8 0 -2
BITMAP
28
fe
7c
54
fe
38
d6
00
ENDCHAR
STARTCHAR 325c
ENCODING 12892
SWIDTH 960 0
DWIDTH 8 0
BBX 8 8 0 -2
BITMAP
76
f2
a6
fe
6a
74
ea
00
ENDCHAR
STARTCHAR 325d
ENCODING 12893
SWIDTH 960 0
DWIDTH 8 0
BBX 8 8 0 -2
BITMAP
be
ea
3e
c8
3e
dc
ea
00
ENDCHAR
STARTCHAR 325e
ENCODING 12894
SWIDTH 960 0
DWIDTH 8 0
BBX 8 8 0 -2
BITMAP
14
fe
dc
fe
dc
3e
08
00
ENDCHAR
STARTCHAR 325f
ENCODING 12895
SWIDTH 960 0
DWIDTH 8 0
BBX 8 8 0 -2
BITMAP
28
4e
c8
4e
3c
3c
c6
00
ENDCHAR
STARTCHAR 3260
ENCODING 12896
SWIDTH 960 0
DWIDTH 8 0
BBX 8 8 0 -2
BITMAP
90
3e
1a
da
6e
40
be
00
ENDCHAR
STARTCHAR 3261
ENCODING 12897
SWIDTH 960 0
DWIDTH 8 0
BBX 8 8 0 -2
BITMAP
8e
4a
0a
de
52
5a
be
00
ENDCHAR
STARTCHAR 3262
ENCODING 12898
SWIDTH 960 0
DWIDTH 8 0
BBX 8 8 0 -2
BITMAP
38
fe
b6
ee
8a
e4
8a
00
ENDCHAR
STARTCHAR 3263
ENCODING 12899
SWIDTH 960 0
DWIDTH 8 0
BBX 8 8 0 -2
BITMAP
48
fe
d4
d4
48
54
e2
00
ENDCHAR
STARTCHAR 3264
ENCODING 12900
SWIDTH 960 0
DWIDTH 8 0
BBX 8 8 0 -2
BITMAP
4e
74
fe
d4
56
7c
52
00
ENDCHAR
STARTCHAR 3265
ENCODING 12901
SWIDTH 960 0
DWIDTH 8 0
BBX 8 8 0 -2
BITMAP
4e
74
7e
d4
d6
fc
12
00
ENDCHAR
STARTCHAR 3266
ENCODING 12902
SWIDTH 960 0
DWIDTH 8 0
BBX 8 8 0 -2
BITMAP
1a
68
fe
28
fa
24
6a
00
ENDCHAR
STARTCHAR 3267
ENCODING 12903
SWIDTH 960 0
DWIDTH 8 0
BBX 8 8 0 -2
BITMAP
7c
48
48
fe
28
c8
18
00
ENDCHAR
STARTCHAR 3268
ENCODING 12904
SWIDTH 960 0
DWIDTH 8 0
BBX 8 8 0 -2
BITMAP
fe
10
ba
ba
ba
82
fe
00
ENDCHAR
STARTCHAR 3269
ENCODING 12905
SWIDTH 960 0
DWIDTH 8 0
BBX 8 8 0 -2
BITMAP
f4
a4
f4
94
f4
a4
fa
00
ENDCHAR
STARTCHAR 326a
ENCODING 12906
SWIDTH 960 0
DWIDTH 8 0
BBX 8 8 0 -2
BITMAP
28
fe
7c
48
fe
28
d8
00
ENDCHAR
STARTCHAR 326b
ENCODING 12907
SWIDTH 960 0
DWIDTH 8 0
BBX 8 8 0 -2
BITMAP
4e
f4
be
d4
56
7c
d2
00
ENDCHAR
STARTCHAR 326c
ENCODING 12908
SWIDTH 960 0
DWIDTH 8 0
BBX 8 8 0 -2
BITMAP
40
fe
5a
be
24
3c
c6
00
ENDCHAR
STARTCHAR 326d
ENCODING 12909
SWIDTH 960 0
DWIDTH 8 0
BBX 8 8 0 -2
BITMAP
ea
ae
bc
ee
6c
ac
6e
00
ENDCHAR
STARTCHAR 326e
ENCODING 12910
SWIDTH 960 0
DWIDTH 8 0
BBX 8 8 0 -2
BITMAP
4e
b4
3e
d4
d6
bc
d2
00
ENDCHAR
STARTCHAR 326f
ENCODING 12911
SWIDTH 960 0
DWIDTH 8 0
BBX 8 8 0 -2
BITMAP
40
fe
5a
ae
3e
02
aa
00
ENDCHAR
STARTCHAR 3270
ENCODING 12912
SWIDTH 960 0
DWIDTH 8 0
BBX 8 8 0 -2
BITMAP
10
28
c6
28
28
28
48
00
ENDCHAR
STARTCHAR 3271
ENCODING 12913
SWIDTH 960 0
DWIDTH 8 0
BBX 8 8 0 -2
BITMAP
10
28
de
00
fe
24
fa
00
ENDCHAR
STARTCHAR 3272
ENCODING 12914
SWIDTH 960 0
DWIDTH 8 0
BBX 8 8 0 -2
BITMAP
6e
a6
7a
7e
74
5e
b4
00
ENDCHAR
STARTCHAR 3273
ENCODING 12915
SWIDTH 960 0
DWIDTH 8 0
BBX 8 8 0 -2
BITMAP
fe
82
ba
aa
ba
82
fe
00
ENDCHAR
STARTCHAR 3274
ENCODING 12916
SWIDTH 960 0
DWIDTH 8 0
BBX 8 8 0 -2
BITMAP
48
7e
ea
7e
6a
dc
2e
00
ENDCHAR
STARTCHAR 3275
ENCODING 12917
SWIDTH 960 0
DWIDTH 8 0
BBX 8 8 0 -2
BITMAP
48
7e
da
5e
7e
f4
1a
00
ENDCHAR
STARTCHAR 3276
ENCODING 12918
SWIDTH 960 0
DWIDTH 8 0
BBX 8 8 0 -2
BITMAP
de
52
9e
5a
de
52
be
00
ENDCHAR
STARTCHAR 3277
ENCODING 12919
SWIDTH 960 0
DWIDTH 8 0
BBX 8 8 0 -2
BITMAP
48
dc
cc
7e
48
48
76
00
ENDCHAR
STARTCHAR 3278
ENCODING 12920
SWIDTH 960 0
DWIDTH 8 0
BBX 8 8 0 -2
BITMAP
7c
d4
c8
76
5c
48
7e
00
ENDCHAR
STARTCHAR 3279
ENCODING 12921
SWIDTH 960 0
DWIDTH 8 0
BBX 8 8 0 -2
BITMAP
50
de
cc
7e
54
5e
44
00
ENDCHAR
STARTCHAR 327a
ENCODING 12922
SWIDTH 960 0
DWIDTH 8 0
BBX 8 8 0 -2
BITMAP
5e
d4
de
5c
54
54
6a
00
ENDCHAR
STARTCHAR 327b
ENCODING 12923
SWIDTH 960 0
DWIDTH 8 0
BBX 8 8 0 -2
BITMAP
48
fe
da
5e
7e
74
5a
00
ENDCHAR
STARTCHAR 327c
ENCODING 12924
SWIDTH 960 0
DWIDTH 8 0
BBX 8 8 0 -2
BITMAP
04
fe
04
54
fe
54
9a
00
ENDCHAR
STARTCHAR 327d
ENCODING 12925
SWIDTH 960 0
DWIDTH 8 0
BBX 8 8 0 -2
BITMAP
5e
f2
5e
60
de
4a
d6
00
ENDCHAR
STARTCHAR 327e
ENCODING 12926
SWIDTH 960 0
DWIDTH 8 0
BBX 8 8 0 -2
BITMAP
e8
2e
fa
8a
aa
e4
1a
00
ENDCHAR
STARTCHAR 3321
ENCODING 13089
SWIDTH 960 0
DWIDTH 8 0
BBX 8 8 0 -2
BITMAP
54
e4
f4
e6
7c
64
be
00
ENDCHAR
STARTCHAR 3322
ENCODING 13090
SWIDTH 960 0
DWIDTH 8 0
BBX 8 8 0 -2
BITMAP
10
fe
ac
ee
b4
fe
04
00
ENDCHAR
STARTCHAR 3323
ENCODING 13091
SWIDTH 960 0
DWIDTH 8 0
BBX 8 8 0 -2
BITMAP
44
fe
54
fc
d6
54
4a
00
ENDCHAR
STARTCHAR 3324
ENCODING 13092
SWIDTH 960 0
DWIDTH 8 0
BBX 8 8 0 -2
BITMAP
a0
3e
9c
7e
b4
be
8c
00
ENDCHAR
STARTCHAR 3325
ENCODING 13093
SWIDTH 960 0
DWIDTH 8 0
BBX 8 8 0 -2
BITMAP
7e
48
6a
6c
48
54
a2
00
ENDCHAR
STARTCHAR 3326
ENCODING 13094
SWIDTH 960 0
DWIDTH 8 0
BBX 8 8 0 -2
BITMAP
7c
54
7c
54
7c
aa
48
00
ENDCHAR
STARTCHAR 3327
ENCODING 13095
SWIDTH 960 0
DWIDTH 8 0
BBX 8 8 0 -2
BITMAP
48
6e
48
ee
10
7c
7c
00
ENDCHAR
STARTCHAR 3328
ENCODING 13096
SWIDTH 960 0
DWIDTH 8 0
BBX 8 8 0 -2
BITMAP
48
94
6e
80
7e
d4
7a
00
ENDCHAR
STARTCHAR 3329
ENCODING 13097
SWIDTH 960 0
DWIDTH 8 0
BBX 8 8 0 -2
BITMAP
28
fe
10
28
ee
28
48
00
ENDCHAR
STARTCHAR 332a
ENCODING 13098
SWIDTH 960 0
DWIDTH 8 0
BBX 8 8 0 -2
BITMAP
6e
a6
6a
7e
bc
14
fa
00
ENDCHAR
STARTCHAR 332b
ENCODING 13099
SWIDTH 960 0
DWIDTH 8 0
BBX 8 8 0 -2
BITMAP
ee
ee
82
fe
aa
fe
aa
00
ENDCHAR
STARTCHAR 332c
ENCODING 13100
SWIDTH 960 0
DWIDTH 8 0
BBX 8 8 0 -2
BITMAP
e4
b6
e4
b6
a8
dc
9c
00
ENDCHAR
STARTCHAR 332d
ENCODING 13101
SWIDTH 960 0
DWIDTH 8 0
BBX 8 8 0 -2
BITMAP
7c
44
7c
44
7c
00
c6
00
ENDCHAR
STARTCHAR 332e
ENCODING 13102
SWIDTH 960 0
DWIDTH 8 0
BBX 8 8 0 -2
BITMAP
ae
fa
0a
fa
5a
2a
f2
00
ENDCHAR
STARTCHAR 332f
ENCODING 13103
SWIDTH 960 0
DWIDTH 8 0
BBX 8 8 0 -2
BITMAP
28
fe
4a
aa
5a
2a
d6
00
ENDCHAR
STARTCHAR 3330
ENCODING 13104
SWIDTH 960 0
DWIDTH 8 0
BBX 8 8 0 -2
BITMAP
48
78
58
bc
1a
28
c8
00
ENDCHAR
STARTCHAR 3331
ENCODING 13105
SWIDTH 960 0
DWIDTH 8 0
BBX 8 8 0 -2
BITMAP
04
fe
a8
b4
ea
04
1a
00
ENDCHAR
STARTCHAR 3332
ENCODING 13106
SWIDTH 960 0
DWIDTH 8 0
BBX 8 8 0 -2
BITMAP
10
fe
92
7c
10
fe
38
00
ENDCHAR
STARTCHAR 3333
ENCODING 13107
SWIDTH 960 0
DWIDTH 8 0
BBX 8 8 0 -2
BITMAP
92
fe
5c
48
5c
48
be
00
ENDCHAR
STARTCHAR 3334
ENCODING 13108
SWIDTH 960 0
DWIDTH 8 0
BBX 8 8 0 -2
BITMAP
4e
f6
f6
7e
64
74
4a
00
ENDCHAR
STARTCHAR 3335
ENCODING 13109
SWIDTH 960 0
DWIDTH 8 0
BBX 8 8 0 -2
BITMAP
4e
f6
76
fe
e4
74
4a
00
ENDCHAR
STARTCHAR 3336
ENCODING 13110
SWIDTH 960 0
DWIDTH 8 0
BBX 8 8 0 -2
BITMAP
be
24
ae
24
ae
a4
de
00
ENDCHAR
STARTCHAR 3337
ENCODING 13111
SWIDTH 960 0
DWIDTH 8 0
BBX 8 8 0 -2
BITMAP
ec
4c
5e
84
7e
74
0c
00
ENDCHAR
STARTCHAR 3338
ENCODING 13112
SWIDTH 960 0
DWIDTH 8 0
BBX 8 8 0 -2
BITMAP
28
fe
34
fa
7c
54
fe
00
ENDCHAR
STARTCHAR 3339
ENCODING 13113
SWIDTH 960 0
DWIDTH 8 0
BBX 8 8 0 -2
BITMAP
56
b8
56
fa
52
7a
46
00
ENDCHAR
STARTCHAR 333a
ENCODING 13114
SWIDTH 960 0
DWIDTH 8 0
BBX 8 8 0 -2
BITMAP
44
de
08
d4
0a
c4
da
00
ENDCHAR
STARTCHAR 333b
ENCODING 13115
SWIDTH 960 0
DWIDTH 8 0
BBX 8 8 0 -2
BITMAP
56
be
e0
5e
f2
6c
de
00
ENDCHAR
STARTCHAR 333c
ENCODING 13116
SWIDTH 960 0
DWIDTH 8 0
BBX 8 8 0 -2
BITMAP
74
5e
f8
94
7a
74
5a
00
ENDCHAR
STARTCHAR 333d
ENCODING 13117
SWIDTH 960 0
DWIDTH 8 0
BBX 8 8 0 -2
BITMAP
be
2a
be
2a
be
88
be
00
ENDCHAR
STARTCHAR 333e
ENCODING 13118
SWIDTH 960 0
DWIDTH 8 0
BBX 8 8 0 -2
BITMAP
2e
fa
64
9a
38
ee
38
00
ENDCHAR
STARTCHAR 333f
ENCODING 13119
SWIDTH 960 0
DWIDTH 8 0
BBX 8 8 0 -2
BITMAP
44
ee
a4
fe
4e
64
de
00
ENDCHAR
STARTCHAR 3340
ENCODING 13120
SWIDTH 960 0
DWIDTH 8 0
BBX 8 8 0 -2
BITMAP
7e
5c
d4
5c
54
dc
3e
00
ENDCHAR
STARTCHAR 3341
ENCODING 13121
SWIDTH 960 0
DWIDTH 8 0
BBX 8 8 0 -2
BITMAP
48
fe
48
fe
ea
6a
48
00
ENDCHAR
STARTCHAR 3342
ENCODING 13122
SWIDTH 960 0
DWIDTH 8 0
BBX 8 8 0 -2
BITMAP
5e
f0
be
f4
56
6a
ca
00
ENDCHAR
STARTCHAR 3343
ENCODING 13123
SWIDTH 960 0
DWIDTH 8 0
BBX 8 8 0 -2
BITMAP
48
ae
f2
4a
f2
7e
c2
00
ENDCHAR
STARTCHAR 3344
ENCODING 13124
SWIDTH 960 0
DWIDTH 8 0
BBX 8 8 0 -2
BITMAP
22
f2
3a
f2
72
7a
e6
00
ENDCHAR
STARTCHAR 3345
ENCODING 13125
SWIDTH 960 0
DWIDTH 8 0
BBX 8 8 0 -2
BITMAP
14
fe
d4
fe
f6
36
5a
00
ENDCHAR
STARTCHAR 3346
ENCODING 13126
SWIDTH 960 0
DWIDTH 8 0
BBX 8 8 0 -2
BITMAP
18
68
10
28
c6
38
38
00
ENDCHAR
STARTCHAR 3347
ENCODING 13127
SWIDTH 960 0
DWIDTH 8 0
BBX 8 8 0 -2
BITMAP
08
7e
56
7c
6e
7e
94
00
ENDCHAR
STARTCHAR 3348
ENCODING 13128
SWIDTH 960 0
DWIDTH 8 0
BBX 8 8 0 -2
BITMAP
44
de
50
54
d4
6a
ce
00
ENDCHAR
STARTCHAR 3349
ENCODING 13129
SWIDTH 960 0
DWIDTH 8 0
BBX 8 8 0 -2
BITMAP
6a
dc
62
5c
dc
5c
e6
00
ENDCHAR
STARTCHAR 334a
ENCODING 13130
SWIDTH 960 0
DWIDTH 8 0
BBX 8 8 0 -2
BITMAP
4c
d4
48
d4
e2
5c
5c
00
ENDCHAR
STARTCHAR 334b
ENCODING 13131
SWIDTH 960 0
DWIDTH 8 0
BBX 8 8 0 -2
BITMAP
48
fe
50
ea
d4
4c
72
00
ENDCHAR
STARTCHAR 334c
ENCODING 13132
SWIDTH 960 0
DWIDTH 8 0
BBX 8 8 0 -2
BITMAP
4e
ea
40
fe
9a
64
ba
00
ENDCHAR
STARTCHAR 334d
ENCODING 13133
SWIDTH 960 0
DWIDTH 8 0
BBX 8 8 0 -2
BITMAP
94
7e
dc
5e
d4
48
b6
00
ENDCHAR
STARTCHAR 334e
ENCODING 13134
SWIDTH 960 0
DWIDTH 8 0
BBX 8 8 0 -2
BITMAP
e4
5e
56
8c
7e
6c
0e
00
ENDCHAR
STARTCHAR 334f
ENCODING 13135
SWIDTH 960 0
DWIDTH 8 0
BBX 8 8 0 -2
BITMAP
d4
7e
dc
5e
d4
c8
76
00
ENDCHAR
STARTCHAR 3350
ENCODING 13136
SWIDTH 960 0
DWIDTH 8 0
BBX 8 8 0 -2
BITMAP
54
fe
aa
38
28
3a
ce
00
ENDCHAR
STARTCHAR 3351
ENCODING 13137
SWIDTH 960 0
DWIDTH 8 0
BBX 8 8 0 -2
BITMAP
38
c8
7e
52
7e
42
86
00
ENDCHAR
STARTCHAR 3352
ENCODING 13138
SWIDTH 960 0
DWIDTH 8 0
BBX 8 8 0 -2
BITMAP
24
7e
24
fe
ec
6e
b4
00
ENDCHAR
STARTCHAR 3353
ENCODING 13139
SWIDTH 960 0
DWIDTH 8 0
BBX 8 8 0 -2
BITMAP
c8
7e
d4
e2
54
c8
76
00
ENDCHAR
STARTCHAR 3354
ENCODING 13140
SWIDTH 960 0
DWIDTH 8 0
BBX 8 8 0 -2
BITMAP
2e
fa
5c
7a
3a
ec
28
00
ENDCHAR
STARTCHAR 3355
ENCODING 13141
SWIDTH 960 0
DWIDTH 8 0
BBX 8 8 0 -2
BITMAP
ee
ee
9a
aa
92
ee
ba
00
ENDCHAR
STARTCHAR 3356
ENCODING 13142
SWIDTH 960 0
DWIDTH 8 0
BBX 8 8 0 -2
BITMAP
fe
ac
cc
be
b2
de
96
00
ENDCHAR
STARTCHAR 3357
ENCODING 13143
SWIDTH 960 0
DWIDTH 8 0
BBX 8 8 0 -2
BITMAP
28
fe
28
7c
54
fe
10
00
ENDCHAR
STARTCHAR 3358
ENCODING 13144
SWIDTH 960 0
DWIDTH 8 0
BBX 8 8 0 -2
BITMAP
54
fe
ba
08
fe
10
30
00
ENDCHAR
STARTCHAR 3359
ENCODING 13145
SWIDTH 960 0
DWIDTH 8 0
BBX 8 8 0 -2
BITMAP
0c
70
7c
48
fe
54
7c
00
ENDCHAR
STARTCHAR 335a
ENCODING 13146
SWIDTH 960 0
DWIDTH 8 0
BBX 8 8 0 -2
BITMAP
92
6c
ba
10
fe
38
d6
00
ENDCHAR
STARTCHAR 335b
ENCODING 13147
SWIDTH 960 0
DWIDTH 8 0
BBX 8 8 0 -2
BITMAP
2e
f4
be
5a
2e
d0
7a
00
ENDCHAR
STARTCHAR 335c
ENCODING 13148
SWIDTH 960 0
DWIDTH 8 0
BBX 8 8 0 -2
BITMAP
de
d4
6e
fa
4e
20
6a
00
ENDCHAR
STARTCHAR 335d
ENCODING 13149
SWIDTH 960 0
DWIDTH 8 0
BBX 8 8 0 -2
BITMAP
54
fc
54
7e
d4
7c
c4
00
ENDCHAR
STARTCHAR 335e
ENCODING 13150
SWIDTH 960 0
DWIDTH 8 0
BBX 8 8 0 -2
BITMAP
48
6e
b4
10
7c
28
fe
00
ENDCHAR
STARTCHAR 335f
ENCODING 13151
SWIDTH 960 0
DWIDTH 8 0
BBX 8 8 0 -2
BITMAP
7e
fa
74
ca
dc
48
7e
00
ENDCHAR
STARTCHAR 3360
ENCODING 13152
SWIDTH 960 0
DWIDTH 8 0
BBX 8 8 0 -2
BITMAP
5e
ec
4c
de
cc
4c
5e
00
ENDCHAR
STARTCHAR 3361
ENCODING 13153
SWIDTH 960 0
DWIDTH 8 0
BBX 8 8 0 -2
BITMAP
5e
de
56
dc
d6
5c
66
00
ENDCHAR
STARTCHAR 3362
ENCODING 13154
SWIDTH 960 0
DWIDTH 8 0
BBX 8 8 0 -2
BITMAP
f4
54
fe
dc
f4
34
9a
00
ENDCHAR
STARTCHAR 3363
ENCODING 13155
SWIDTH 960 0
DWIDTH 8 0
BBX 8 8 0 -2
BITMAP
94
24
bc
10
be
c2
aa
00
ENDCHAR
STARTCHAR 3364
ENCODING 13156
SWIDTH 960 0
DWIDTH 8 0
BBX 8 8 0 -2
BITMAP
22
fa
aa
7a
22
fa
76
00
ENDCHAR
STARTCHAR 3365
ENCODING 13157
SWIDTH 960 0
DWIDTH 8 0
BBX 8 8 0 -2
BITMAP
1c
d4
dc
de
f2
1a
06
00
ENDCHAR
STARTCHAR 3366
ENCODING 13158
SWIDTH 960 0
DWIDTH 8 0
BBX 8 8 0 -2
BITMAP
48
d4
ee
40
5c
54
5c
00
ENDCHAR
STARTCHAR 3367
ENCODING 13159
SWIDTH 960 0
DWIDTH 8 0
BBX 8 8 0 -2
BITMAP
44
d8
7e
48
dc
54
dc
00
ENDCHAR
STARTCHAR 3368
ENCODING 13160
SWIDTH 960 0
DWIDTH 8 0
BBX 8 8 0 -2
BITMAP
84
18
be
08
9c
94
9c
00
ENDCHAR
STARTCHAR 3369
ENCODING 13161
SWIDTH 960 0
DWIDTH 8 0
BBX 8 8 0 -2
BITMAP
9c
14
9c
1e
b2
9a
86
00
ENDCHAR
STARTCHAR 336a
ENCODING 13162
SWIDTH 960 0
DWIDTH 8 0
BBX 8 8 0 -2
BITMAP
9c
14
be
22
9c
9c
94
00
ENDCHAR
STARTCHAR 336b
ENCODING 13163
SWIDTH 960 0
DWIDTH 8 0
BBX 8 8 0 -2
BITMAP
28
fe
44
7c
7e
a2
36
00
ENDCHAR
STARTCHAR 336c
ENCODING 13164
SWIDTH 960 0
DWIDTH 8 0
BBX 8 8 0 -2
BITMAP
5c
f4
3c
5e
f2
7a
46
00
ENDCHAR
STARTCHAR 336d
ENCODING 13165
SWIDTH 960 0
DWIDTH 8 0
BBX 8 8 0 -2
BITMAP
c8
7e
ea
dc
48
fe
5c
00
ENDCHAR
STARTCHAR 336e
ENCODING 13166
SWIDTH 960 0
DWIDTH 8 0
BBX 8 8 0 -2
BITMAP
7c
44
7c
44
7c
44
fe
00
ENDCHAR
STARTCHAR 336f
ENCODING 13167
SWIDTH 960 0
DWIDTH 8 0
BBX 8 8 0 -2
BITMAP
fe
7a
f4
ca
dc
08
be
00
ENDCHAR
STARTCHAR 3370
ENCODING 13168
SWIDTH 960 0
DWIDTH 8 0
BBX 8 8 0 -2
BITMAP
04
e4
be
a4
e4
04
04
00
ENDCHAR
STARTCHAR 3371
ENCODING 13169
SWIDTH 960 0
DWIDTH 8 0
BBX 8 8 0 -2
BITMAP
54
fe
44
d4
f6
54
56
00
ENDCHAR
STARTCHAR 3372
ENCODING 13170
SWIDTH 960 0
DWIDTH 8 0
BBX 8 8 0 -2
BITMAP
54
fe
5c
fe
dc
7e
48
00
ENDCHAR
STARTCHAR 3373
ENCODING 13171
SWIDTH 960 0
DWIDTH 8 0
BBX 8 8 0 -2
BITMAP
a8
ee
f6
42
ee
e8
4e
00
ENDCHAR
STARTCHAR 3374
ENCODING 13172
SWIDTH 960 0
DWIDTH 8 0
BBX 8 8 0 -2
BITMAP
58
dc
68
fe
c8
5c
6a
00
ENDCHAR
STARTCHAR 3375
ENCODING 13173
SWIDTH 960 0
DWIDTH 8 0
BBX 8 8 0 -2
BITMAP
56
aa
ba
aa
fe
28
ce
00
ENDCHAR
STARTCHAR 3376
ENCODING 13174
SWIDTH 960 0
DWIDTH 8 0
BBX 8 8 0 -2
BITMAP
10
fe
aa
5c
7c
7c
0e
00
ENDCHAR
STARTCHAR 3377
ENCODING 13175
SWIDTH 960 0
DWIDTH 8 0
BBX 8 8 0 -2
BITMAP
28
fe
88
3e
aa
3e
aa
00
ENDCHAR
STARTCHAR 3378
ENCODING 13176
SWIDTH 960 0
DWIDTH 8 0
BBX 8 8 0 -2
BITMAP
28
c6
38
d6
38
54
fe
00
ENDCHAR
STARTCHAR 3379
ENCODING 13177
SWIDTH 960 0
DWIDTH 8 0
BBX 8 8 0 -2
BITMAP
54
be
dc
4e
fc
5c
ea
00
ENDCHAR
STARTCHAR 337a
ENCODING 13178
SWIDTH 960 0
DWIDTH 8 0
BBX 8 8 0 -2
BITMAP
14
f6
bc
b6
ea
36
3e
00
ENDCHAR
STARTCHAR 337b
ENCODING 13179
SWIDTH 960 0
DWIDTH 8 0
BBX 8 8 0 -2
BITMAP
e8
fc
fc
f0
5e
42
56
00
ENDCHAR
STARTCHAR 337c
ENCODING 13180
SWIDTH 960 0
DWIDTH 8 0
BBX 8 8 0 -2
BITMAP
5e
e8
5e
f2
de
52
5e
00
ENDCHAR
STARTCHAR 337d
ENCODING 13181
SWIDTH 960 0
DWIDTH 8 0
BBX 8 8 0 -2
BITMAP
28
fe
7c
08
fe
52
b0
00
ENDCHAR
STARTCHAR 337e
ENCODING 13182
SWIDTH 960 0
DWIDTH 8 0
BBX 8 8 0 -2
BITMAP
28
fe
28
fe
ba
38
fe
00
ENDCHAR
STARTCHAR 3421
ENCODING 13345
SWIDTH 960 0
DWIDTH 8 0
BBX 8 8 0 -2
BITMAP
d6
7a
d6
bc
d6
7a
d6
00
ENDCHAR
STARTCHAR 3422
ENCODING 13346
SWIDTH 960 0
DWIDTH 8 0
BBX 8 8 0 -2
BITMAP
12
1a
5a
2a
22
52
86
00
ENDCHAR
STARTCHAR 3423
ENCODING 13347
SWIDTH 960 0
DWIDTH 8 0
BBX 8 8 0 -2
BITMAP
28
fe
12
5a
2a
52
86
00
ENDCHAR
STARTCHAR 3424
ENCODING 13348
SWIDTH 960 0
DWIDTH 8 0
BBX 8 8 0 -2
BITMAP
fe
20
38
28
58
4a
ee
00
ENDCHAR
STARTCHAR 3425
ENCODING 13349
SWIDTH 960 0
DWIDTH 8 0
BBX 8 8 0 -2
BITMAP
f0
5e
ec
a4
48
f2
4e
00
ENDCHAR
STARTCHAR 3426
ENCODING 13350
SWIDTH 960 0
DWIDTH 8 0
BBX 8 8 0 -2
BITMAP
3e
52
de
40
5a
5a
6a
00
ENDCHAR
STARTCHAR 3427
ENCODING 13351
SWIDTH 960 0
DWIDTH 8 0
BBX 8 8 0 -2
BITMAP
fe
82
64
0e
f4
6c
be
00
ENDCHAR
STARTCHAR 3428
ENCODING 13352
SWIDTH 960 0
DWIDTH 8 0
BBX 8 8 0 -2
BITMAP
10
fe
aa
7c
7c
b2
08
00
ENDCHAR
STARTCHAR 3429
ENCODING 13353
SWIDTH 960 0
DWIDTH 8 0
BBX 8 8 0 -2
BITMAP
72
2a
2a
fa
22
22
26
00
ENDCHAR
STARTCHAR 342a
ENCODING 13354
SWIDTH 960 0
DWIDTH 8 0
BBX 8 8 0 -2
BITMAP
54
fe
56
56
f6
aa
fa
00
ENDCHAR
STARTCHAR 342b
ENCODING 13355
SWIDTH 960 0
DWIDTH 8 0
BBX 8 8 0 -2
BITMAP
48
7e
aa
7a
ea
6a
76
00
ENDCHAR
STARTCHAR 342c
ENCODING 13356
SWIDTH 960 0
DWIDTH 8 0
BBX 8 8 0 -2
BITMAP
54
38
fe
4c
ba
20
3c
00
ENDCHAR
STARTCHAR 342d
ENCODING 13357
SWIDTH 960 0
DWIDTH 8 0
BBX 8 8 0 -2
BITMAP
1c
e4
dc
dc
fe
08
36
00
ENDCHAR
STARTCHAR 342e
ENCODING 13358
SWIDTH 960 0
DWIDTH 8 0
BBX 8 8 0 -2
BITMAP
54
7e
d4
54
7e
e8
3e
00
ENDCHAR
STARTCHAR 342f
ENCODING 13359
SWIDTH 960 0
DWIDTH 8 0
BBX 8 8 0 -2
BITMAP
10
fe
28
74
fe
54
aa
00
ENDCHAR
STARTCHAR 3430
ENCODING 13360
SWIDTH 960 0
DWIDTH 8 0
BBX 8 8 0 -2
BITMAP
10
fe
ba
00
fe
28
ce
00
ENDCHAR
STARTCHAR 3431
ENCODING 13361
SWIDTH 960 0
DWIDTH 8 0
BBX 8 8 0 -2
BITMAP
10
fe
ba
28
3c
24
3c
00
ENDCHAR
STARTCHAR 3432
ENCODING 13362
SWIDTH 960 0
DWIDTH 8 0
BBX 8 8 0 -2
BITMAP
10
fe
aa
7c
38
3a
ce
00
ENDCHAR
STARTCHAR 3433
ENCODING 13363
SWIDTH 960 0
DWIDTH 8 0
BBX 8 8 0 -2
BITMAP
7c
10
10
fe
10
10
10
00
ENDCHAR
STARTCHAR 3434
ENCODING 13364
SWIDTH 960 0
DWIDTH 8 0
BBX 8 8 0 -2
BITMAP
e4
4a
e0
ae
44
ee
44
00
ENDCHAR
STARTCHAR 3435
ENCODING 13365
SWIDTH 960 0
DWIDTH 8 0
BBX 8 8 0 -2
BITMAP
10
38
38
7c
7c
ca
ba
00
ENDCHAR
STARTCHAR 3436
ENCODING 13366
SWIDTH 960 0
DWIDTH 8 0
BBX 8 8 0 -2
BITMAP
04
7e
74
b2
00
ca
ba
00
ENDCHAR
STARTCHAR 3437
ENCODING 13367
SWIDTH 960 0
DWIDTH 8 0
BBX 8 8 0 -2
BITMAP
5c
f6
dc
5c
5c
5c
62
00
ENDCHAR
STARTCHAR 3438
ENCODING 13368
SWIDTH 960 0
DWIDTH 8 0
BBX 8 8 0 -2
BITMAP
44
fe
f4
72
40
72
6e
00
ENDCHAR
STARTCHAR 3439
ENCODING 13369
SWIDTH 960 0
DWIDTH 8 0
BBX 8 8 0 -2
BITMAP
5c
e4
5c
5c
fe
48
f6
00
ENDCHAR
STARTCHAR 343a
ENCODING 13370
SWIDTH 960 0
DWIDTH 8 0
BBX 8 8 0 -2
BITMAP
74
26
fa
5a
5a
f4
1a
00
ENDCHAR
STARTCHAR 343b
ENCODING 13371
SWIDTH 960 0
DWIDTH 8 0
BBX 8 8 0 -2
BITMAP
54
fe
54
dc
d4
54
5c
00
ENDCHAR
STARTCHAR 343c
ENCODING 13372
SWIDTH 960 0
DWIDTH 8 0
BBX 8 8 0 -2
BITMAP
7e
dc
54
dc
d4
5c
7e
00
ENDCHAR
STARTCHAR 343d
ENCODING 13373
SWIDTH 960 0
DWIDTH 8 0
BBX 8 8 0 -2
BITMAP
48
fe
62
dc
de
52
5e
00
ENDCHAR
STARTCHAR 343e
ENCODING 13374
SWIDTH 960 0
DWIDTH 8 0
BBX 8 8 0 -2
BITMAP
48
ee
56
e4
04
e4
5a
00
ENDCHAR
STARTCHAR 343f
ENCODING 13375
SWIDTH 960 0
DWIDTH 8 0
BBX 8 8 0 -2
BITMAP
44
76
aa
74
e4
64
7a
00
ENDCHAR
STARTCHAR 3440
ENCODING 13376
SWIDTH 960 0
DWIDTH 8 0
BBX 8 8 0 -2
BITMAP
9c
08
88
3e
88
88
88
00
ENDCHAR
STARTCHAR 3441
ENCODING 13377
SWIDTH 960 0
DWIDTH 8 0
BBX 8 8 0 -2
BITMAP
94
7e
aa
3e
fe
88
b6
00
ENDCHAR
STARTCHAR 3442
ENCODING 13378
SWIDTH 960 0
DWIDTH 8 0
BBX 8 8 0 -2
BITMAP
b6
36
a2
2e
ae
ae
a2
00
ENDCHAR
STARTCHAR 3443
ENCODING 13379
SWIDTH 960 0
DWIDTH 8 0
BBX 8 8 0 -2
BITMAP
90
1e
a8
1e
b4
94
9e
00
ENDCHAR
STARTCHAR 3444
ENCODING 13380
SWIDTH 960 0
DWIDTH 8 0
BBX 8 8 0 -2
BITMAP
fe
6a
7e
dc
54
dc
2a
00
ENDCHAR
STARTCHAR 3445
ENCODING 13381
SWIDTH 960 0
DWIDTH 8 0
BBX 8 8 0 -2
BITMAP
44
fe
44
7c
44
44
7c
00
ENDCHAR
STARTCHAR 3446
ENCODING 13382
SWIDTH 960 0
DWIDTH 8 0
BBX 8 8 0 -2
BITMAP
e8
ce
d0
e6
7c
54
fe
00
ENDCHAR
STARTCHAR 3447
ENCODING 13383
SWIDTH 960 0
DWIDTH 8 0
BBX 8 8 0 -2
BITMAP
0c
70
3c
fe
7c
a4
3c
00
ENDCHAR
STARTCHAR 3448
ENCODING 13384
SWIDTH 960 0
DWIDTH 8 0
BBX 8 8 0 -2
BITMAP
48
6e
b4
7c
10
fe
10
00
ENDCHAR
STARTCHAR 3449
ENCODING 13385
SWIDTH 960 0
DWIDTH 8 0
BBX 8 8 0 -2
BITMAP
48
6e
b4
fe
b2
3c
3c
00
ENDCHAR
STARTCHAR 344a
ENCODING 13386
SWIDTH 960 0
DWIDTH 8 0
BBX 8 8 0 -2
BITMAP
48
6e
b4
ee
ee
ba
ba
00
ENDCHAR
STARTCHAR 344b
ENCODING 13387
SWIDTH 960 0
DWIDTH 8 0
BBX 8 8 0 -2
BITMAP
46
b8
6a
9e
4a
d4
6a
00
ENDCHAR
STARTCHAR 344c
ENCODING 13388
SWIDTH 960 0
DWIDTH 8 0
BBX 8 8 0 -2
BITMAP
20
3c
50
fe
10
54
7c
00
ENDCHAR
STARTCHAR 344d
ENCODING 13389
SWIDTH 960 0
DWIDTH 8 0
BBX 8 8 0 -2
BITMAP
e8
54
e2
be
4a
de
6a
00
ENDCHAR
STARTCHAR 344e
ENCODING 13390
SWIDTH 960 0
DWIDTH 8 0
BBX 8 8 0 -2
BITMAP
ee
a4
e4
be
e4
a4
a4
00
ENDCHAR
STARTCHAR 344f
ENCODING 13391
SWIDTH 960 0
DWIDTH 8 0
BBX 8 8 0 -2
BITMAP
54
f6
b0
b6
e0
ac
be
00
ENDCHAR
STARTCHAR 3450
ENCODING 13392
SWIDTH 960 0
DWIDTH 8 0
BBX 8 8 0 -2
BITMAP
28
fe
ba
00
fe
28
ce
00
ENDCHAR
STARTCHAR 3451
ENCODING 13393
SWIDTH 960 0
DWIDTH 8 0
BBX 8 8 0 -2
BITMAP
4e
7a
ae
7a
ee
6c
76
00
ENDCHAR
STARTCHAR 3452
ENCODING 13394
SWIDTH 960 0
DWIDTH 8 0
BBX 8 8 0 -2
BITMAP
48
fe
1c
dc
08
dc
ea
00
ENDCHAR
STARTCHAR 3453
ENCODING 13395
SWIDTH 960 0
DWIDTH 8 0
BBX 8 8 0 -2
BITMAP
7c
d6
7c
7c
44
7c
c6
00
ENDCHAR
STARTCHAR 3454
ENCODING 13396
SWIDTH 960 0
DWIDTH 8 0
BBX 8 8 0 -2
BITMAP
be
3e
1c
d4
5c
6a
be
00
ENDCHAR
STARTCHAR 3455
ENCODING 13397
SWIDTH 960 0
DWIDTH 8 0
BBX 8 8 0 -2
BITMAP
54
b6
f0
56
e0
6c
de
00
ENDCHAR
STARTCHAR 3456
ENCODING 13398
SWIDTH 960 0
DWIDTH 8 0
BBX 8 8 0 -2
BITMAP
ee
aa
fe
aa
ba
aa
ba
00
ENDCHAR
STARTCHAR 3457
ENCODING 13399
SWIDTH 960 0
DWIDTH 8 0
BBX 8 8 0 -2
BITMAP
ee
ee
92
fe
ba
d6
92
00
ENDCHAR
STARTCHAR 3458
ENCODING 13400
SWIDTH 960 0
DWIDTH 8 0
BBX 8 8 0 -2
BITMAP
ee
ee
aa
92
fe
92
aa
00
ENDCHAR
STARTCHAR 3459
ENCODING 13401
SWIDTH 960 0
DWIDTH 8 0
BBX 8 8 0 -2
BITMAP
ee
b2
c4
b6
b6
d6
96
00
ENDCHAR
STARTCHAR 345a
ENCODING 13402
SWIDTH 960 0
DWIDTH 8 0
BBX 8 8 0 -2
BITMAP
e8
5e
ea
be
54
fe
44
00
ENDCHAR
STARTCHAR 345b
ENCODING 13403
SWIDTH 960 0
DWIDTH 8 0
BBX 8 8 0 -2
BITMAP
44
be
52
ec
ee
8a
ee
00
ENDCHAR
STARTCHAR 345c
ENCODING 13404
SWIDTH 960 0
DWIDTH 8 0
BBX 8 8 0 -2
BITMAP
44
be
52
ec
4e
aa
ee
00
ENDCHAR
STARTCHAR 345d
ENCODING 13405
SWIDTH 960 0
DWIDTH 8 0
BBX 8 8 0 -2
BITMAP
20
f8
28
68
38
4a
8e
00
ENDCHAR
STARTCHAR 345e
ENCODING 13406
SWIDTH 960 0
DWIDTH 8 0
BBX 8 8 0 -2
BITMAP
10
28
fe
08
7c
44
7c
00
ENDCHAR
STARTCHAR 345f
ENCODING 13407
SWIDTH 960 0
DWIDTH 8 0
BBX 8 8 0 -2
BITMAP
92
fe
40
5c
48
7e
88
00
ENDCHAR
STARTCHAR 3460
ENCODING 13408
SWIDTH 960 0
DWIDTH 8 0
BBX 8 8 0 -2
BITMAP
92
fe
54
7e
5a
74
9a
00
ENDCHAR
STARTCHAR 3461
ENCODING 13409
SWIDTH 960 0
DWIDTH 8 0
BBX 8 8 0 -2
BITMAP
dc
40
7e
d4
54
d4
26
00
ENDCHAR
STARTCHAR 3462
ENCODING 13410
SWIDTH 960 0
DWIDTH 8 0
BBX 8 8 0 -2
BITMAP
08
7e
dc
76
f6
6a
be
00
ENDCHAR
STARTCHAR 3463
ENCODING 13411
SWIDTH 960 0
DWIDTH 8 0
BBX 8 8 0 -2
BITMAP
fe
b2
fe
b2
fe
b4
fa
00
ENDCHAR
STARTCHAR 3464
ENCODING 13412
SWIDTH 960 0
DWIDTH 8 0
BBX 8 8 0 -2
BITMAP
54
7c
00
fe
40
bc
3c
00
ENDCHAR
STARTCHAR 3465
ENCODING 13413
SWIDTH 960 0
DWIDTH 8 0
BBX 8 8 0 -2
BITMAP
f6
50
fe
54
24
74
7a
00
ENDCHAR
STARTCHAR 3466
ENCODING 13414
SWIDTH 960 0
DWIDTH 8 0
BBX 8 8 0 -2
BITMAP
7e
56
6c
6e
5c
5c
a2
00
ENDCHAR
STARTCHAR 3467
ENCODING 13415
SWIDTH 960 0
DWIDTH 8 0
BBX 8 8 0 -2
BITMAP
7e
54
6e
7c
6e
6c
ae
00
ENDCHAR
STARTCHAR 3468
ENCODING 13416
SWIDTH 960 0
DWIDTH 8 0
BBX 8 8 0 -2
BITMAP
6e
04
fe
6a
6e
b0
0a
00
ENDCHAR
STARTCHAR 3469
ENCODING 13417
SWIDTH 960 0
DWIDTH 8 0
BBX 8 8 0 -2
BITMAP
2e
f4
5e
fa
ae
90
aa
00
ENDCHAR
STARTCHAR 346a
ENCODING 13418
SWIDTH 960 0
DWIDTH 8 0
BBX 8 8 0 -2
BITMAP
fe
a4
fe
fa
ae
f0
aa
00
ENDCHAR
STARTCHAR 346b
ENCODING 13419
SWIDTH 960 0
DWIDTH 8 0
BBX 8 8 0 -2
BITMAP
10
28
d6
10
5c
50
fe
00
ENDCHAR
STARTCHAR 346c
ENCODING 13420
SWIDTH 960 0
DWIDTH 8 0
BBX 8 8 0 -2
BITMAP
28
7e
c8
7c
54
48
76
00
ENDCHAR
STARTCHAR 346d
ENCODING 13421
SWIDTH 960 0
DWIDTH 8 0
BBX 8 8 0 -2
BITMAP
38
c8
7e
5c
54
52
9e
00
ENDCHAR
STARTCHAR 346e
ENCODING 13422
SWIDTH 960 0
DWIDTH 8 0
BBX 8 8 0 -2
BITMAP
10
fe
7c
28
fe
44
7c
00
ENDCHAR
STARTCHAR 346f
ENCODING 13423
SWIDTH 960 0
DWIDTH 8 0
BBX 8 8 0 -2
BITMAP
6c
6c
10
fe
10
ee
6c
00
ENDCHAR
STARTCHAR 3470
ENCODING 13424
SWIDTH 960 0
DWIDTH 8 0
BBX 8 8 0 -2
BITMAP
28
7c
28
fe
44
92
38
00
ENDCHAR
STARTCHAR 3471
ENCODING 13425
SWIDTH 960 0
DWIDTH 8 0
BBX 8 8 0 -2
BITMAP
10
7c
10
28
fe
54
74
00
ENDCHAR
STARTCHAR 3472
ENCODING 13426
SWIDTH 960 0
DWIDTH 8 0
BBX 8 8 0 -2
BITMAP
88
be
dc
d4
fe
54
9c
00
ENDCHAR
STARTCHAR 3473
ENCODING 13427
SWIDTH 960 0
DWIDTH 8 0
BBX 8 8 0 -2
BITMAP
10
fe
92
28
fe
54
74
00
ENDCHAR
STARTCHAR 3474
ENCODING 13428
SWIDTH 960 0
DWIDTH 8 0
BBX 8 8 0 -2
BITMAP
44
5e
44
ee
ea
e4
1a
00
ENDCHAR
STARTCHAR 3475
ENCODING 13429
SWIDTH 960 0
DWIDTH 8 0
BBX 8 8 0 -2
BITMAP
64
18
24
fe
48
be
2a
00
ENDCHAR
STARTCHAR 3476
ENCODING 13430
SWIDTH 960 0
DWIDTH 8 0
BBX 8 8 0 -2
BITMAP
54
98
54
fc
4a
64
9a
00
ENDCHAR
STARTCHAR 3477
ENCODING 13431
SWIDTH 960 0
DWIDTH 8 0
BBX 8 8 0 -2
BITMAP
7c
04
7c
40
7c
ca
ba
00
ENDCHAR
STARTCHAR 3478
ENCODING 13432
SWIDTH 960 0
DWIDTH 8 0
BBX 8 8 0 -2
BITMAP
7e
ea
7e
5c
dc
7e
c8
00
ENDCHAR
STARTCHAR 3479
ENCODING 13433
SWIDTH 960 0
DWIDTH 8 0
BBX 8 8 0 -2
BITMAP
5c
d4
54
d4
d4
54
66
00
ENDCHAR
STARTCHAR 347a
ENCODING 13434
SWIDTH 960 0
DWIDTH 8 0
BBX 8 8 0 -2
BITMAP
48
ee
5c
6c
7e
a0
b2
00
ENDCHAR
STARTCHAR 347b
ENCODING 13435
SWIDTH 960 0
DWIDTH 8 0
BBX 8 8 0 -2
BITMAP
fe
aa
ea
be
e4
8c
f6
00
ENDCHAR
STARTCHAR 347c
ENCODING 13436
SWIDTH 960 0
DWIDTH 8 0
BBX 8 8 0 -2
BITMAP
5e
fa
5e
7a
fe
0a
96
00
ENDCHAR
STARTCHAR 347d
ENCODING 13437
SWIDTH 960 0
DWIDTH 8 0
BBX 8 8 0 -2
BITMAP
54
fe
54
dc
fe
40
62
00
ENDCHAR
STARTCHAR 347e
ENCODING 13438
SWIDTH 960 0
DWIDTH 8 0
BBX 8 8 0 -2
BITMAP
10
fe
28
74
fe
38
d6
00
ENDCHAR
STARTCHAR 3521
ENCODING 13601
SWIDTH 960 0
DWIDTH 8 0
BBX 8 8 0 -2
BITMAP
52
e4
52
fc
d6
54
6a
00
ENDCHAR
STARTCHAR 3522
ENCODING 13602
SWIDTH 960 0
DWIDTH 8 0
BBX 8 8 0 -2
BITMAP
5c
c4
fe
ea
5c
5c
88
00
ENDCHAR
STARTCHAR 3523
ENCODING 13603
SWIDTH 960 0
DWIDTH 8 0
BBX 8 8 0 -2
BITMAP
2e
fa
50
fe
6a
b4
6a
00
ENDCHAR
STARTCHAR 3524
ENCODING 13604
SWIDTH 960 0
DWIDTH 8 0
BBX 8 8 0 -2
BITMAP
40
7e
b8
7c
54
24
d2
00
ENDCHAR
STARTCHAR 3525
ENCODING 13605
SWIDTH 960 0
DWIDTH 8 0
BBX 8 8 0 -2
BITMAP
a0
3e
d8
3c
84
84
82
00
ENDCHAR
STARTCHAR 3526
ENCODING 13606
SWIDTH 960 0
DWIDTH 8 0
BBX 8 8 0 -2
BITMAP
54
98
54
fc
0a
e4
ea
00
ENDCHAR
STARTCHAR 3527
ENCODING 13607
SWIDTH 960 0
DWIDTH 8 0
BBX 8 8 0 -2
BITMAP
42
ec
28
4e
ea
4a
52
00
ENDCHAR
STARTCHAR 3528
ENCODING 13608
SWIDTH 960 0
DWIDTH 8 0
BBX 8 8 0 -2
BITMAP
38
fe
3c
da
08
fe
10
00
ENDCHAR
STARTCHAR 3529
ENCODING 13609
SWIDTH 960 0
DWIDTH 8 0
BBX 8 8 0 -2
BITMAP
d4
48
d4
7e
c8
de
6a
00
ENDCHAR
STARTCHAR 352a
ENCODING 13610
SWIDTH 960 0
DWIDTH 8 0
BBX 8 8 0 -2
BITMAP
5e
82
42
be
50
f2
5e
00
ENDCHAR
STARTCHAR 352b
ENCODING 13611
SWIDTH 960 0
DWIDTH 8 0
BBX 8 8 0 -2
BITMAP
54
be
56
ee
56
7c
52
00
ENDCHAR
STARTCHAR 352c
ENCODING 13612
SWIDTH 960 0
DWIDTH 8 0
BBX 8 8 0 -2
BITMAP
5e
f2
5e
f2
5e
6c
96
00
ENDCHAR
STARTCHAR 352d
ENCODING 13613
SWIDTH 960 0
DWIDTH 8 0
BBX 8 8 0 -2
BITMAP
5e
e2
02
de
10
d2
de
00
ENDCHAR
STARTCHAR 352e
ENCODING 13614
SWIDTH 960 0
DWIDTH 8 0
BBX 8 8 0 -2
BITMAP
10
7c
54
fe
44
7c
c6
00
ENDCHAR
STARTCHAR 352f
ENCODING 13615
SWIDTH 960 0
DWIDTH 8 0
BBX 8 8 0 -2
BITMAP
2e
f2
2e
f8
6e
60
9e
00
ENDCHAR
STARTCHAR 3530
ENCODING 13616
SWIDTH 960 0
DWIDTH 8 0
BBX 8 8 0 -2
BITMAP
d0
7c
d4
d4
54
d4
66
00
ENDCHAR
STARTCHAR 3531
ENCODING 13617
SWIDTH 960 0
DWIDTH 8 0
BBX 8 8 0 -2
BITMAP
3e
b6
3e
ec
6c
7e
84
00
ENDCHAR
STARTCHAR 3532
ENCODING 13618
SWIDTH 960 0
DWIDTH 8 0
BBX 8 8 0 -2
BITMAP
5c
b4
54
d4
d4
94
e6
00
ENDCHAR
STARTCHAR 3533
ENCODING 13619
SWIDTH 960 0
DWIDTH 8 0
BBX 8 8 0 -2
BITMAP
e4
de
e4
ca
fe
22
aa
00
ENDCHAR
STARTCHAR 3534
ENCODING 13620
SWIDTH 960 0
DWIDTH 8 0
BBX 8 8 0 -2
BITMAP
10
7c
54
7c
7a
2c
ce
00
ENDCHAR
STARTCHAR 3535
ENCODING 13621
SWIDTH 960 0
DWIDTH 8 0
BBX 8 8 0 -2
BITMAP
38
c8
7c
7c
94
fc
0e
00
ENDCHAR
STARTCHAR 3536
ENCODING 13622
SWIDTH 960 0
DWIDTH 8 0
BBX 8 8 0 -2
BITMAP
54
7c
cc
d4
7e
42
6a
00
ENDCHAR
STARTCHAR 3537
ENCODING 13623
SWIDTH 960 0
DWIDTH 8 0
BBX 8 8 0 -2
BITMAP
54
7e
c8
fe
56
7c
52
00
ENDCHAR
STARTCHAR 3538
ENCODING 13624
SWIDTH 960 0
DWIDTH 8 0
BBX 8 8 0 -2
BITMAP
24
2e
f4
5e
6a
24
da
00
ENDCHAR
STARTCHAR 3539
ENCODING 13625
SWIDTH 960 0
DWIDTH 8 0
BBX 8 8 0 -2
BITMAP
10
fe
ba
28
38
28
fe
00
ENDCHAR
STARTCHAR 353a
ENCODING 13626
SWIDTH 960 0
DWIDTH 8 0
BBX 8 8 0 -2
BITMAP
26
34
ee
b4
a6
b4
ea
00
ENDCHAR
STARTCHAR 353b
ENCODING 13627
SWIDTH 960 0
DWIDTH 8 0
BBX 8 8 0 -2
BITMAP
48
fe
48
7c
d4
48
f6
00
ENDCHAR
STARTCHAR 353c
ENCODING 13628
SWIDTH 960 0
DWIDTH 8 0
BBX 8 8 0 -2
BITMAP
66
fa
66
5c
fe
54
ea
00
ENDCHAR
STARTCHAR 353d
ENCODING 13629
SWIDTH 960 0
DWIDTH 8 0
BBX 8 8 0 -2
BITMAP
54
fe
52
74
fc
04
9a
00
ENDCHAR
STARTCHAR 353e
ENCODING 13630
SWIDTH 960 0
DWIDTH 8 0
BBX 8 8 0 -2
BITMAP
d4
fe
c8
7e
d6
7c
52
00
ENDCHAR
STARTCHAR 353f
ENCODING 13631
SWIDTH 960 0
DWIDTH 8 0
BBX 8 8 0 -2
BITMAP
9e
e4
9e
6a
ec
58
b6
00
ENDCHAR
STARTCHAR 3540
ENCODING 13632
SWIDTH 960 0
DWIDTH 8 0
BBX 8 8 0 -2
BITMAP
42
fc
34
5e
f4
54
5a
00
ENDCHAR
STARTCHAR 3541
ENCODING 13633
SWIDTH 960 0
DWIDTH 8 0
BBX 8 8 0 -2
BITMAP
24
fe
10
fe
2a
fc
2a
00
ENDCHAR
STARTCHAR 3542
ENCODING 13634
SWIDTH 960 0
DWIDTH 8 0
BBX 8 8 0 -2
BITMAP
54
fe
c8
fe
56
7c
d2
00
ENDCHAR
STARTCHAR 3543
ENCODING 13635
SWIDTH 960 0
DWIDTH 8 0
BBX 8 8 0 -2
BITMAP
44
de
12
cc
0c
cc
de
00
ENDCHAR
STARTCHAR 3544
ENCODING 13636
SWIDTH 960 0
DWIDTH 8 0
BBX 8 8 0 -2
BITMAP
94
fe
08
be
16
fc
d2
00
ENDCHAR
STARTCHAR 3545
ENCODING 13637
SWIDTH 960 0
DWIDTH 8 0
BBX 8 8 0 -2
BITMAP
50
de
76
4a
de
4a
d6
00
ENDCHAR
STARTCHAR 3546
ENCODING 13638
SWIDTH 960 0
DWIDTH 8 0
BBX 8 8 0 -2
BITMAP
28
fe
40
7e
d6
3a
56
00
ENDCHAR
STARTCHAR 3547
ENCODING 13639
SWIDTH 960 0
DWIDTH 8 0
BBX 8 8 0 -2
BITMAP
b0
fe
f6
4a
fe
ea
56
00
ENDCHAR
STARTCHAR 3548
ENCODING 13640
SWIDTH 960 0
DWIDTH 8 0
BBX 8 8 0 -2
BITMAP
10
fe
10
7c
00
7c
7c
00
ENDCHAR
STARTCHAR 3549
ENCODING 13641
SWIDTH 960 0
DWIDTH 8 0
BBX 8 8 0 -2
BITMAP
10
de
ec
c4
c8
12
0e
00
ENDCHAR
STARTCHAR 354a
ENCODING 13642
SWIDTH 960 0
DWIDTH 8 0
BBX 8 8 0 -2
BITMAP
16
fe
d6
fa
dc
08
36
00
ENDCHAR
STARTCHAR 354b
ENCODING 13643
SWIDTH 960 0
DWIDTH 8 0
BBX 8 8 0 -2
BITMAP
48
fe
48
dc
c0
5c
5c
00
ENDCHAR
STARTCHAR 354c
ENCODING 13644
SWIDTH 960 0
DWIDTH 8 0
BBX 8 8 0 -2
BITMAP
5c
fe
5a
e8
fe
76
6a
00
ENDCHAR
STARTCHAR 354d
ENCODING 13645
SWIDTH 960 0
DWIDTH 8 0
BBX 8 8 0 -2
BITMAP
48
fe
08
dc
00
dc
dc
00
ENDCHAR
STARTCHAR 354e
ENCODING 13646
SWIDTH 960 0
DWIDTH 8 0
BBX 8 8 0 -2
BITMAP
e8
48
4e
88
7e
72
1e
00
ENDCHAR
STARTCHAR 354f
ENCODING 13647
SWIDTH 960 0
DWIDTH 8 0
BBX 8 8 0 -2
BITMAP
50
dc
68
c8
fe
48
48
00
ENDCHAR
STARTCHAR 3550
ENCODING 13648
SWIDTH 960 0
DWIDTH 8 0
BBX 8 8 0 -2
BITMAP
38
fe
38
d6
28
fe
54
00
ENDCHAR
STARTCHAR 3551
ENCODING 13649
SWIDTH 960 0
DWIDTH 8 0
BBX 8 8 0 -2
BITMAP
2e
7a
2a
fa
2a
58
e8
00
ENDCHAR
STARTCHAR 3552
ENCODING 13650
SWIDTH 960 0
DWIDTH 8 0
BBX 8 8 0 -2
BITMAP
10
fe
9a
68
10
ee
38
00
ENDCHAR
STARTCHAR 3553
ENCODING 13651
SWIDTH 960 0
DWIDTH 8 0
BBX 8 8 0 -2
BITMAP
ee
be
ee
be
ee
b4
bc
00
ENDCHAR
STARTCHAR 3554
ENCODING 13652
SWIDTH 960 0
DWIDTH 8 0
BBX 8 8 0 -2
BITMAP
08
0e
78
4e
5e
50
9e
00
ENDCHAR
STARTCHAR 3555
ENCODING 13653
SWIDTH 960 0
DWIDTH 8 0
BBX 8 8 0 -2
BITMAP
94
3e
08
ea
7e
50
be
00
ENDCHAR
STARTCHAR 3556
ENCODING 13654
SWIDTH 960 0
DWIDTH 8 0
BBX 8 8 0 -2
BITMAP
0c
70
40
7c
48
48
fe
00
ENDCHAR
STARTCHAR 3557
ENCODING 13655
SWIDTH 960 0
DWIDTH 8 0
BBX 8 8 0 -2
BITMAP
20
3c
44
88
08
34
c2
00
ENDCHAR
STARTCHAR 3558
ENCODING 13656
SWIDTH 960 0
DWIDTH 8 0
BBX 8 8 0 -2
BITMAP
28
7c
d4
54
54
54
66
00
ENDCHAR
STARTCHAR 3559
ENCODING 13657
SWIDTH 960 0
DWIDTH 8 0
BBX 8 8 0 -2
BITMAP
28
7e
c8
5c
5c
6a
48
00
ENDCHAR
STARTCHAR 355a
ENCODING 13658
SWIDTH 960 0
DWIDTH 8 0
BBX 8 8 0 -2
BITMAP
f8
28
2c
24
54
48
b6
00
ENDCHAR
STARTCHAR 355b
ENCODING 13659
SWIDTH 960 0
DWIDTH 8 0
BBX 8 8 0 -2
BITMAP
3c
d4
d6
d2
ea
24
5a
00
ENDCHAR
STARTCHAR 355c
ENCODING 13660
SWIDTH 960 0
DWIDTH 8 0
BBX 8 8 0 -2
BITMAP
10
fe
aa
38
10
7c
7c
00
ENDCHAR
STARTCHAR 355d
ENCODING 13661
SWIDTH 960 0
DWIDTH 8 0
BBX 8 8 0 -2
BITMAP
7c
04
7c
40
fe
02
0e
00
ENDCHAR
STARTCHAR 355e
ENCODING 13662
SWIDTH 960 0
DWIDTH 8 0
BBX 8 8 0 -2
BITMAP
38
c8
7c
04
7c
ca
ba
00
ENDCHAR
STARTCHAR 355f
ENCODING 13663
SWIDTH 960 0
DWIDTH 8 0
BBX 8 8 0 -2
BITMAP
24
f6
2a
ba
6a
b4
6a
00
ENDCHAR
STARTCHAR 3560
ENCODING 13664
SWIDTH 960 0
DWIDTH 8 0
BBX 8 8 0 -2
BITMAP
5e
e8
48
ee
c2
42
46
00
ENDCHAR
STARTCHAR 3561
ENCODING 13665
SWIDTH 960 0
DWIDTH 8 0
BBX 8 8 0 -2
BITMAP
14
fe
10
54
38
d4
32
00
ENDCHAR
STARTCHAR 3562
ENCODING 13666
SWIDTH 960 0
DWIDTH 8 0
BBX 8 8 0 -2
BITMAP
bc
14
96
12
aa
a4
da
00
ENDCHAR
STARTCHAR 3563
ENCODING 13667
SWIDTH 960 0
DWIDTH 8 0
BBX 8 8 0 -2
BITMAP
88
3e
94
14
94
98
be
00
ENDCHAR
STARTCHAR 3564
ENCODING 13668
SWIDTH 960 0
DWIDTH 8 0
BBX 8 8 0 -2
BITMAP
3c
44
18
e6
54
28
c6
00
ENDCHAR
STARTCHAR 3565
ENCODING 13669
SWIDTH 960 0
DWIDTH 8 0
BBX 8 8 0 -2
BITMAP
ca
7e
48
ea
5c
ea
18
00
ENDCHAR
STARTCHAR 3566
ENCODING 13670
SWIDTH 960 0
DWIDTH 8 0
BBX 8 8 0 -2
BITMAP
10
fe
aa
4c
f8
2a
ce
00
ENDCHAR
STARTCHAR 3567
ENCODING 13671
SWIDTH 960 0
DWIDTH 8 0
BBX 8 8 0 -2
BITMAP
10
fe
b6
74
d6
32
d6
00
ENDCHAR
STARTCHAR 3568
ENCODING 13672
SWIDTH 960 0
DWIDTH 8 0
BBX 8 8 0 -2
BITMAP
48
6e
b4
7c
14
28
d6
00
ENDCHAR
STARTCHAR 3569
ENCODING 13673
SWIDTH 960 0
DWIDTH 8 0
BBX 8 8 0 -2
BITMAP
7c
94
56
92
5a
e4
5a
00
ENDCHAR
STARTCHAR 356a
ENCODING 13674
SWIDTH 960 0
DWIDTH 8 0
BBX 8 8 0 -2
BITMAP
44
94
54
94
56
fc
44
00
ENDCHAR
STARTCHAR 356b
ENCODING 13675
SWIDTH 960 0
DWIDTH 8 0
BBX 8 8 0 -2
BITMAP
48
94
6e
80
5c
d4
5c
00
ENDCHAR
STARTCHAR 356c
ENCODING 13676
SWIDTH 960 0
DWIDTH 8 0
BBX 8 8 0 -2
BITMAP
be
a2
a2
be
a2
a2
be
00
ENDCHAR
STARTCHAR 356d
ENCODING 13677
SWIDTH 960 0
DWIDTH 8 0
BBX 8 8 0 -2
BITMAP
50
7c
90
10
fe
10
10
00
ENDCHAR
STARTCHAR 356e
ENCODING 13678
SWIDTH 960 0
DWIDTH 8 0
BBX 8 8 0 -2
BITMAP
10
7c
10
fe
10
24
fa
00
ENDCHAR
STARTCHAR 356f
ENCODING 13679
SWIDTH 960 0
DWIDTH 8 0
BBX 8 8 0 -2
BITMAP
7e
7e
48
7e
48
5c
9c
00
ENDCHAR
STARTCHAR 3570
ENCODING 13680
SWIDTH 960 0
DWIDTH 8 0
BBX 8 8 0 -2
BITMAP
fe
80
fc
84
fc
80
fe
00
ENDCHAR
STARTCHAR 3571
ENCODING 13681
SWIDTH 960 0
DWIDTH 8 0
BBX 8 8 0 -2
BITMAP
5e
f0
5e
72
de
50
de
00
ENDCHAR
STARTCHAR 3572
ENCODING 13682
SWIDTH 960 0
DWIDTH 8 0
BBX 8 8 0 -2
BITMAP
50
de
6a
6a
da
50
ee
00
ENDCHAR
STARTCHAR 3573
ENCODING 13683
SWIDTH 960 0
DWIDTH 8 0
BBX 8 8 0 -2
BITMAP
54
fe
44
ba
7c
fe
30
00
ENDCHAR
STARTCHAR 3574
ENCODING 13684
SWIDTH 960 0
DWIDTH 8 0
BBX 8 8 0 -2
BITMAP
be
3c
a4
3e
fe
38
d6
00
ENDCHAR
STARTCHAR 3575
ENCODING 13685
SWIDTH 960 0
DWIDTH 8 0
BBX 8 8 0 -2
BITMAP
08
0e
78
4e
40
54
be
00
ENDCHAR
STARTCHAR 3576
ENCODING 13686
SWIDTH 960 0
DWIDTH 8 0
BBX 8 8 0 -2
BITMAP
50
dc
28
c8
3e
c8
c8
00
ENDCHAR
STARTCHAR 3577
ENCODING 13687
SWIDTH 960 0
DWIDTH 8 0
BBX 8 8 0 -2
BITMAP
fe
b0
de
72
de
f0
de
00
ENDCHAR
STARTCHAR 3578
ENCODING 13688
SWIDTH 960 0
DWIDTH 8 0
BBX 8 8 0 -2
BITMAP
5e
be
f4
5e
f4
6a
ce
00
ENDCHAR
STARTCHAR 3579
ENCODING 13689
SWIDTH 960 0
DWIDTH 8 0
BBX 8 8 0 -2
BITMAP
8c
34
9e
1a
9e
80
aa
00
ENDCHAR
STARTCHAR 357a
ENCODING 13690
SWIDTH 960 0
DWIDTH 8 0
BBX 8 8 0 -2
BITMAP
66
be
56
dc
7c
54
b2
00
ENDCHAR
STARTCHAR 357b
ENCODING 13691
SWIDTH 960 0
DWIDTH 8 0
BBX 8 8 0 -2
BITMAP
38
c8
7c
54
7c
00
aa
00
ENDCHAR
STARTCHAR 357c
ENCODING 13692
SWIDTH 960 0
DWIDTH 8 0
BBX 8 8 0 -2
BITMAP
10
fe
44
7c
08
10
30
00
ENDCHAR
STARTCHAR 357d
ENCODING 13693
SWIDTH 960 0
DWIDTH 8 0
BBX 8 8 0 -2
BITMAP
10
fe
44
7c
08
fe
10
00
ENDCHAR
STARTCHAR 357e
ENCODING 13694
SWIDTH 960 0
DWIDTH 8 0
BBX 8 8 0 -2
BITMAP
10
fe
44
7c
10
54
b2
00
ENDCHAR
STARTCHAR 3621
ENCODING 13857
SWIDTH 960 0
DWIDTH 8 0
BBX 8 8 0 -2
BITMAP
54
7e
d4
d4
7e
40
62
00
ENDCHAR
STARTCHAR 3622
ENCODING 13858
SWIDTH 960 0
DWIDTH 8 0
BBX 8 8 0 -2
BITMAP
28
7e
c8
6a
7e
48
76
00
ENDCHAR
STARTCHAR 3623
ENCODING 13859
SWIDTH 960 0
DWIDTH 8 0
BBX 8 8 0 -2
BITMAP
5c
7e
d4
ea
7e
62
6a
00
ENDCHAR
STARTCHAR 3624
ENCODING 13860
SWIDTH 960 0
DWIDTH 8 0
BBX 8 8 0 -2
BITMAP
6c
54
6c
44
7c
2a
ce
00
ENDCHAR
STARTCHAR 3625
ENCODING 13861
SWIDTH 960 0
DWIDTH 8 0
BBX 8 8 0 -2
BITMAP
24
fe
5a
fe
5a
6c
b6
00
ENDCHAR
STARTCHAR 3626
ENCODING 13862
SWIDTH 960 0
DWIDTH 8 0
BBX 8 8 0 -2
BITMAP
28
7c
28
28
fe
00
c6
00
ENDCHAR
STARTCHAR 3627
ENCODING 13863
SWIDTH 960 0
DWIDTH 8 0
BBX 8 8 0 -2
BITMAP
82
8a
aa
92
aa
c2
fe
00
ENDCHAR
STARTCHAR 3628
ENCODING 13864
SWIDTH 960 0
DWIDTH 8 0
BBX 8 8 0 -2
BITMAP
48
5e
ea
40
4a
7e
56
00
ENDCHAR
STARTCHAR 3629
ENCODING 13865
SWIDTH 960 0
DWIDTH 8 0
BBX 8 8 0 -2
BITMAP
fe
bc
88
9c
88
bc
fe
00
ENDCHAR
STARTCHAR 362a
ENCODING 13866
SWIDTH 960 0
DWIDTH 8 0
BBX 8 8 0 -2
BITMAP
46
be
ae
be
e6
6c
b4
00
ENDCHAR
STARTCHAR 362b
ENCODING 13867
SWIDTH 960 0
DWIDTH 8 0
BBX 8 8 0 -2
BITMAP
04
d4
d4
d4
d6
3c
04
00
ENDCHAR
STARTCHAR 362c
ENCODING 13868
SWIDTH 960 0
DWIDTH 8 0
BBX 8 8 0 -2
BITMAP
38
fe
28
d6
fe
aa
ba
00
ENDCHAR
STARTCHAR 362d
ENCODING 13869
SWIDTH 960 0
DWIDTH 8 0
BBX 8 8 0 -2
BITMAP
48
7e
d4
7e
5c
dc
26
00
ENDCHAR
STARTCHAR 362e
ENCODING 13870
SWIDTH 960 0
DWIDTH 8 0
BBX 8 8 0 -2
BITMAP
48
7e
48
ea
fe
c8
36
00
ENDCHAR
STARTCHAR 362f
ENCODING 13871
SWIDTH 960 0
DWIDTH 8 0
BBX 8 8 0 -2
BITMAP
c8
52
fe
9c
dc
4a
fe
00
ENDCHAR
STARTCHAR 3630
ENCODING 13872
SWIDTH 960 0
DWIDTH 8 0
BBX 8 8 0 -2
BITMAP
de
4c
cc
9e
cc
4c
de
00
ENDCHAR
STARTCHAR 3631
ENCODING 13873
SWIDTH 960 0
DWIDTH 8 0
BBX 8 8 0 -2
BITMAP
48
dc
c8
7e
48
54
7a
00
ENDCHAR
STARTCHAR 3632
ENCODING 13874
SWIDTH 960 0
DWIDTH 8 0
BBX 8 8 0 -2
BITMAP
ec
4c
6c
d6
00
ca
ba
00
ENDCHAR
STARTCHAR 3633
ENCODING 13875
SWIDTH 960 0
DWIDTH 8 0
BBX 8 8 0 -2
BITMAP
28
7c
28
fe
44
20
aa
00
ENDCHAR
STARTCHAR 3634
ENCODING 13876
SWIDTH 960 0
DWIDTH 8 0
BBX 8 8 0 -2
BITMAP
48
fe
48
6a
fe
48
f6
00
ENDCHAR
STARTCHAR 3635
ENCODING 13877
SWIDTH 960 0
DWIDTH 8 0
BBX 8 8 0 -2
BITMAP
24
76
2a
fa
5a
b4
2a
00
ENDCHAR
STARTCHAR 3636
ENCODING 13878
SWIDTH 960 0
DWIDTH 8 0
BBX 8 8 0 -2
BITMAP
5c
fe
54
ea
fe
62
6a
00
ENDCHAR
STARTCHAR 3637
ENCODING 13879
SWIDTH 960 0
DWIDTH 8 0
BBX 8 8 0 -2
BITMAP
be
22
a2
3e
94
94
a6
00
ENDCHAR
STARTCHAR 3638
ENCODING 13880
SWIDTH 960 0
DWIDTH 8 0
BBX 8 8 0 -2
BITMAP
ae
44
a4
6e
a4
24
de
00
ENDCHAR
STARTCHAR 3639
ENCODING 13881
SWIDTH 960 0
DWIDTH 8 0
BBX 8 8 0 -2
BITMAP
a8
7e
c8
6a
fe
48
b6
00
ENDCHAR
STARTCHAR 363a
ENCODING 13882
SWIDTH 960 0
DWIDTH 8 0
BBX 8 8 0 -2
BITMAP
9c
fe
54
ea
7e
62
aa
00
ENDCHAR
STARTCHAR 363b
ENCODING 13883
SWIDTH 960 0
DWIDTH 8 0
BBX 8 8 0 -2
BITMAP
e8
ae
f6
aa
f6
be
a2
00
ENDCHAR
STARTCHAR 363c
ENCODING 13884
SWIDTH 960 0
DWIDTH 8 0
BBX 8 8 0 -2
BITMAP
10
7c
24
fe
56
bc
24
00
ENDCHAR
STARTCHAR 363d
ENCODING 13885
SWIDTH 960 0
DWIDTH 8 0
BBX 8 8 0 -2
BITMAP
46
ba
ee
ba
fe
00
c6
00
ENDCHAR
STARTCHAR 363e
ENCODING 13886
SWIDTH 960 0
DWIDTH 8 0
BBX 8 8 0 -2
BITMAP
28
fe
38
ee
fe
aa
ba
00
ENDCHAR
STARTCHAR 363f
ENCODING 13887
SWIDTH 960 0
DWIDTH 8 0
BBX 8 8 0 -2
BITMAP
46
be
6c
be
e6
6c
b4
00
ENDCHAR
STARTCHAR 3640
ENCODING 13888
SWIDTH 960 0
DWIDTH 8 0
BBX 8 8 0 -2
BITMAP
48
be
d4
7e
dc
5c
e6
00
ENDCHAR
STARTCHAR 3641
ENCODING 13889
SWIDTH 960 0
DWIDTH 8 0
BBX 8 8 0 -2
BITMAP
76
b6
66
bc
28
fe
38
00
ENDCHAR
STARTCHAR 3642
ENCODING 13890
SWIDTH 960 0
DWIDTH 8 0
BBX 8 8 0 -2
BITMAP
76
b6
64
b8
f6
38
76
00
ENDCHAR
STARTCHAR 3643
ENCODING 13891
SWIDTH 960 0
DWIDTH 8 0
BBX 8 8 0 -2
BITMAP
56
fa
74
ba
3e
02
aa
00
ENDCHAR
STARTCHAR 3644
ENCODING 13892
SWIDTH 960 0
DWIDTH 8 0
BBX 8 8 0 -2
BITMAP
50
6e
ea
ea
7a
68
48
00
ENDCHAR
STARTCHAR 3645
ENCODING 13893
SWIDTH 960 0
DWIDTH 8 0
BBX 8 8 0 -2
BITMAP
a6
3a
26
1c
be
94
aa
00
ENDCHAR
STARTCHAR 3646
ENCODING 13894
SWIDTH 960 0
DWIDTH 8 0
BBX 8 8 0 -2
BITMAP
10
7c
fe
28
fe
28
ce
00
ENDCHAR
STARTCHAR 3647
ENCODING 13895
SWIDTH 960 0
DWIDTH 8 0
BBX 8 8 0 -2
BITMAP
08
fc
be
f4
be
d4
26
00
ENDCHAR
STARTCHAR 3648
ENCODING 13896
SWIDTH 960 0
DWIDTH 8 0
BBX 8 8 0 -2
BITMAP
aa
fe
28
7c
fe
38
d6
00
ENDCHAR
STARTCHAR 3649
ENCODING 13897
SWIDTH 960 0
DWIDTH 8 0
BBX 8 8 0 -2
BITMAP
7c
44
7e
42
7a
6a
ba
00
ENDCHAR
STARTCHAR 364a
ENCODING 13898
SWIDTH 960 0
DWIDTH 8 0
BBX 8 8 0 -2
BITMAP
28
fe
aa
fe
aa
aa
fe
00
ENDCHAR
STARTCHAR 364b
ENCODING 13899
SWIDTH 960 0
DWIDTH 8 0
BBX 8 8 0 -2
BITMAP
5e
e8
4c
f6
d6
44
5e
00
ENDCHAR
STARTCHAR 364c
ENCODING 13900
SWIDTH 960 0
DWIDTH 8 0
BBX 8 8 0 -2
BITMAP
fe
10
10
7c
10
14
fe
00
ENDCHAR
STARTCHAR 364d
ENCODING 13901
SWIDTH 960 0
DWIDTH 8 0
BBX 8 8 0 -2
BITMAP
5e
f2
5e
f2
de
5e
52
00
ENDCHAR
STARTCHAR 364e
ENCODING 13902
SWIDTH 960 0
DWIDTH 8 0
BBX 8 8 0 -2
BITMAP
a2
4c
e4
5e
e4
c4
44
00
ENDCHAR
STARTCHAR 364f
ENCODING 13903
SWIDTH 960 0
DWIDTH 8 0
BBX 8 8 0 -2
BITMAP
54
7e
d4
fe
7e
48
7e
00
ENDCHAR
STARTCHAR 3650
ENCODING 13904
SWIDTH 960 0
DWIDTH 8 0
BBX 8 8 0 -2
BITMAP
54
fe
56
f6
f6
2a
fa
00
ENDCHAR
STARTCHAR 3651
ENCODING 13905
SWIDTH 960 0
DWIDTH 8 0
BBX 8 8 0 -2
BITMAP
50
5e
e2
4a
66
da
06
00
ENDCHAR
STARTCHAR 3652
ENCODING 13906
SWIDTH 960 0
DWIDTH 8 0
BBX 8 8 0 -2
BITMAP
10
fe
92
92
92
96
10
00
ENDCHAR
STARTCHAR 3653
ENCODING 13907
SWIDTH 960 0
DWIDTH 8 0
BBX 8 8 0 -2
BITMAP
48
bc
d4
5c
fe
6a
c8
00
ENDCHAR
STARTCHAR 3654
ENCODING 13908
SWIDTH 960 0
DWIDTH 8 0
BBX 8 8 0 -2
BITMAP
0c
70
40
7e
48
48
88
00
ENDCHAR
STARTCHAR 3655
ENCODING 13909
SWIDTH 960 0
DWIDTH 8 0
BBX 8 8 0 -2
BITMAP
14
66
4a
74
54
54
9a
00
ENDCHAR
STARTCHAR 3656
ENCODING 13910
SWIDTH 960 0
DWIDTH 8 0
BBX 8 8 0 -2
BITMAP
48
ae
f6
44
e4
64
da
00
ENDCHAR
STARTCHAR 3657
ENCODING 13911
SWIDTH 960 0
DWIDTH 8 0
BBX 8 8 0 -2
BITMAP
ee
44
ee
38
c6
38
08
00
ENDCHAR
STARTCHAR 3658
ENCODING 13912
SWIDTH 960 0
DWIDTH 8 0
BBX 8 8 0 -2
BITMAP
24
fe
6c
b6
fe
54
b2
00
ENDCHAR
STARTCHAR 3659
ENCODING 13913
SWIDTH 960 0
DWIDTH 8 0
BBX 8 8 0 -2
BITMAP
10
ee
54
6c
fe
aa
b6
00
ENDCHAR
STARTCHAR 365a
ENCODING 13914
SWIDTH 960 0
DWIDTH 8 0
BBX 8 8 0 -2
BITMAP
48
6e
b4
68
7e
6a
b6
00
ENDCHAR
STARTCHAR 365b
ENCODING 13915
SWIDTH 960 0
DWIDTH 8 0
BBX 8 8 0 -2
BITMAP
ee
ca
e4
2a
fe
10
92
00
ENDCHAR
STARTCHAR 365c
ENCODING 13916
SWIDTH 960 0
DWIDTH 8 0
BBX 8 8 0 -2
BITMAP
28
fe
2c
70
7e
48
88
00
ENDCHAR
STARTCHAR 365d
ENCODING 13917
SWIDTH 960 0
DWIDTH 8 0
BBX 8 8 0 -2
BITMAP
28
fe
28
fe
ba
d6
fe
00
ENDCHAR
STARTCHAR 365e
ENCODING 13918
SWIDTH 960 0
DWIDTH 8 0
BBX 8 8 0 -2
BITMAP
48
f4
2e
40
fe
64
48
00
ENDCHAR
STARTCHAR 365f
ENCODING 13919
SWIDTH 960 0
DWIDTH 8 0
BBX 8 8 0 -2
BITMAP
52
f6
32
5c
fe
48
6a
00
ENDCHAR
STARTCHAR 3660
ENCODING 13920
SWIDTH 960 0
DWIDTH 8 0
BBX 8 8 0 -2
BITMAP
94
fe
14
be
3e
c8
fe
00
ENDCHAR
STARTCHAR 3661
ENCODING 13921
SWIDTH 960 0
DWIDTH 8 0
BBX 8 8 0 -2
BITMAP
84
58
10
de
54
64
be
00
ENDCHAR
STARTCHAR 3662
ENCODING 13922
SWIDTH 960 0
DWIDTH 8 0
BBX 8 8 0 -2
BITMAP
10
28
fe
10
fe
54
fe
00
ENDCHAR
STARTCHAR 3663
ENCODING 13923
SWIDTH 960 0
DWIDTH 8 0
BBX 8 8 0 -2
BITMAP
08
f4
ae
a0
fe
04
18
00
ENDCHAR
STARTCHAR 3664
ENCODING 13924
SWIDTH 960 0
DWIDTH 8 0
BBX 8 8 0 -2
BITMAP
5e
b2
fe
52
fe
74
da
00
ENDCHAR
STARTCHAR 3665
ENCODING 13925
SWIDTH 960 0
DWIDTH 8 0
BBX 8 8 0 -2
BITMAP
20
f8
28
28
48
4a
8e
00
ENDCHAR
STARTCHAR 3666
ENCODING 13926
SWIDTH 960 0
DWIDTH 8 0
BBX 8 8 0 -2
BITMAP
3c
54
dc
54
7e
40
62
00
ENDCHAR
STARTCHAR 3667
ENCODING 13927
SWIDTH 960 0
DWIDTH 8 0
BBX 8 8 0 -2
BITMAP
20
3e
42
ba
2a
3a
06
00
ENDCHAR
STARTCHAR 3668
ENCODING 13928
SWIDTH 960 0
DWIDTH 8 0
BBX 8 8 0 -2
BITMAP
fe
84
b4
88
94
a0
fe
00
ENDCHAR
STARTCHAR 3669
ENCODING 13929
SWIDTH 960 0
DWIDTH 8 0
BBX 8 8 0 -2
BITMAP
a8
4e
b2
6e
ae
22
c6
00
ENDCHAR
STARTCHAR 366a
ENCODING 13930
SWIDTH 960 0
DWIDTH 8 0
BBX 8 8 0 -2
BITMAP
e8
4e
52
e4
44
ea
12
00
ENDCHAR
STARTCHAR 366b
ENCODING 13931
SWIDTH 960 0
DWIDTH 8 0
BBX 8 8 0 -2
BITMAP
4e
78
ae
7a
2e
58
8e
00
ENDCHAR
STARTCHAR 366c
ENCODING 13932
SWIDTH 960 0
DWIDTH 8 0
BBX 8 8 0 -2
BITMAP
28
fe
28
fe
10
7c
7c
00
ENDCHAR
STARTCHAR 366d
ENCODING 13933
SWIDTH 960 0
DWIDTH 8 0
BBX 8 8 0 -2
BITMAP
2e
78
5a
7c
da
38
de
00
ENDCHAR
STARTCHAR 366e
ENCODING 13934
SWIDTH 960 0
DWIDTH 8 0
BBX 8 8 0 -2
BITMAP
ee
c8
ea
cc
ea
28
ae
00
ENDCHAR
STARTCHAR 366f
ENCODING 13935
SWIDTH 960 0
DWIDTH 8 0
BBX 8 8 0 -2
BITMAP
e4
d8
f0
de
f4
34
be
00
ENDCHAR
STARTCHAR 3670
ENCODING 13936
SWIDTH 960 0
DWIDTH 8 0
BBX 8 8 0 -2
BITMAP
e8
ce
f2
ce
ee
22
a6
00
ENDCHAR
STARTCHAR 3671
ENCODING 13937
SWIDTH 960 0
DWIDTH 8 0
BBX 8 8 0 -2
BITMAP
7c
44
7c
44
fe
00
c6
00
ENDCHAR
STARTCHAR 3672
ENCODING 13938
SWIDTH 960 0
DWIDTH 8 0
BBX 8 8 0 -2
BITMAP
38
38
7c
5c
74
ca
ba
00
ENDCHAR
STARTCHAR 3673
ENCODING 13939
SWIDTH 960 0
DWIDTH 8 0
BBX 8 8 0 -2
BITMAP
08
0e
78
4e
6c
7e
94
00
ENDCHAR
STARTCHAR 3674
ENCODING 13940
SWIDTH 960 0
DWIDTH 8 0
BBX 8 8 0 -2
BITMAP
08
d4
ea
d8
da
14
3a
00
ENDCHAR
STARTCHAR 3675
ENCODING 13941
SWIDTH 960 0
DWIDTH 8 0
BBX 8 8 0 -2
BITMAP
10
fe
aa
4c
38
10
fe
00
ENDCHAR
STARTCHAR 3676
ENCODING 13942
SWIDTH 960 0
DWIDTH 8 0
BBX 8 8 0 -2
BITMAP
3c
5c
c8
7e
6a
6e
7a
00
ENDCHAR
STARTCHAR 3677
ENCODING 13943
SWIDTH 960 0
DWIDTH 8 0
BBX 8 8 0 -2
BITMAP
10
fe
ba
38
fe
9a
b6
00
ENDCHAR
STARTCHAR 3678
ENCODING 13944
SWIDTH 960 0
DWIDTH 8 0
BBX 8 8 0 -2
BITMAP
9c
5c
08
fe
6e
7a
be
00
ENDCHAR
STARTCHAR 3679
ENCODING 13945
SWIDTH 960 0
DWIDTH 8 0
BBX 8 8 0 -2
BITMAP
dc
dc
88
fe
ea
ae
ba
00
ENDCHAR
STARTCHAR 367a
ENCODING 13946
SWIDTH 960 0
DWIDTH 8 0
BBX 8 8 0 -2
BITMAP
10
7c
7c
10
fe
fe
10
00
ENDCHAR
STARTCHAR 367b
ENCODING 13947
SWIDTH 960 0
DWIDTH 8 0
BBX 8 8 0 -2
BITMAP
64
f6
52
f6
f6
64
74
00
ENDCHAR
STARTCHAR 367c
ENCODING 13948
SWIDTH 960 0
DWIDTH 8 0
BBX 8 8 0 -2
BITMAP
52
ba
fa
5a
fa
52
e2
00
ENDCHAR
STARTCHAR 367d
ENCODING 13949
SWIDTH 960 0
DWIDTH 8 0
BBX 8 8 0 -2
BITMAP
7e
7e
6a
5e
52
5e
92
00
ENDCHAR
STARTCHAR 367e
ENCODING 13950
SWIDTH 960 0
DWIDTH 8 0
BBX 8 8 0 -2
BITMAP
7e
42
7e
5c
48
6a
be
00
ENDCHAR
STARTCHAR 3721
ENCODING 14113
SWIDTH 960 0
DWIDTH 8 0
BBX 8 8 0 -2
BITMAP
7e
e2
7e
6e
e4
56
de
00
ENDCHAR
STARTCHAR 3722
ENCODING 14114
SWIDTH 960 0
DWIDTH 8 0
BBX 8 8 0 -2
BITMAP
10
fe
b6
7c
7c
6a
be
00
ENDCHAR
STARTCHAR 3723
ENCODING 14115
SWIDTH 960 0
DWIDTH 8 0
BBX 8 8 0 -2
BITMAP
10
f4
38
d6
7c
44
7c
00
ENDCHAR
STARTCHAR 3724
ENCODING 14116
SWIDTH 960 0
DWIDTH 8 0
BBX 8 8 0 -2
BITMAP
ac
f4
f6
54
f4
f4
56
00
ENDCHAR
STARTCHAR 3725
ENCODING 14117
SWIDTH 960 0
DWIDTH 8 0
BBX 8 8 0 -2
BITMAP
54
b8
54
ee
54
7c
7c
00
ENDCHAR
STARTCHAR 3726
ENCODING 14118
SWIDTH 960 0
DWIDTH 8 0
BBX 8 8 0 -2
BITMAP
10
fe
aa
4c
be
08
be
00
ENDCHAR
STARTCHAR 3727
ENCODING 14119
SWIDTH 960 0
DWIDTH 8 0
BBX 8 8 0 -2
BITMAP
54
f6
50
74
56
00
aa
00
ENDCHAR
STARTCHAR 3728
ENCODING 14120
SWIDTH 960 0
DWIDTH 8 0
BBX 8 8 0 -2
BITMAP
fe
b6
de
a0
be
d4
9a
00
ENDCHAR
STARTCHAR 3729
ENCODING 14121
SWIDTH 960 0
DWIDTH 8 0
BBX 8 8 0 -2
BITMAP
3c
44
38
d6
7c
38
d6
00
ENDCHAR
STARTCHAR 372a
ENCODING 14122
SWIDTH 960 0
DWIDTH 8 0
BBX 8 8 0 -2
BITMAP
fe
54
7c
10
fe
38
d6
00
ENDCHAR
STARTCHAR 372b
ENCODING 14123
SWIDTH 960 0
DWIDTH 8 0
BBX 8 8 0 -2
BITMAP
5c
94
7e
aa
7e
dc
6a
00
ENDCHAR
STARTCHAR 372c
ENCODING 14124
SWIDTH 960 0
DWIDTH 8 0
BBX 8 8 0 -2
BITMAP
38
08
e6
22
dc
38
d6
00
ENDCHAR
STARTCHAR 372d
ENCODING 14125
SWIDTH 960 0
DWIDTH 8 0
BBX 8 8 0 -2
BITMAP
54
b4
fe
5c
f4
74
da
00
ENDCHAR
STARTCHAR 372e
ENCODING 14126
SWIDTH 960 0
DWIDTH 8 0
BBX 8 8 0 -2
BITMAP
68
fe
6a
6a
f6
00
aa
00
ENDCHAR
STARTCHAR 372f
ENCODING 14127
SWIDTH 960 0
DWIDTH 8 0
BBX 8 8 0 -2
BITMAP
7c
14
fe
14
3e
e2
3e
00
ENDCHAR
STARTCHAR 3730
ENCODING 14128
SWIDTH 960 0
DWIDTH 8 0
BBX 8 8 0 -2
BITMAP
28
fe
38
fe
54
fe
aa
00
ENDCHAR
STARTCHAR 3731
ENCODING 14129
SWIDTH 960 0
DWIDTH 8 0
BBX 8 8 0 -2
BITMAP
52
da
1a
da
1a
d2
e2
00
ENDCHAR
STARTCHAR 3732
ENCODING 14130
SWIDTH 960 0
DWIDTH 8 0
BBX 8 8 0 -2
BITMAP
fa
5e
f4
5e
64
fe
74
00
ENDCHAR
STARTCHAR 3733
ENCODING 14131
SWIDTH 960 0
DWIDTH 8 0
BBX 8 8 0 -2
BITMAP
fe
92
fe
7c
54
fe
10
00
ENDCHAR
STARTCHAR 3734
ENCODING 14132
SWIDTH 960 0
DWIDTH 8 0
BBX 8 8 0 -2
BITMAP
f6
56
fc
56
66
f4
74
00
ENDCHAR
STARTCHAR 3735
ENCODING 14133
SWIDTH 960 0
DWIDTH 8 0
BBX 8 8 0 -2
BITMAP
28
78
28
fc
6a
38
c8
00
ENDCHAR
STARTCHAR 3736
ENCODING 14134
SWIDTH 960 0
DWIDTH 8 0
BBX 8 8 0 -2
BITMAP
40
fe
5a
be
fe
68
b6
00
ENDCHAR
STARTCHAR 3737
ENCODING 14135
SWIDTH 960 0
DWIDTH 8 0
BBX 8 8 0 -2
BITMAP
4e
ea
2c
4a
ea
4c
48
00
ENDCHAR
STARTCHAR 3738
ENCODING 14136
SWIDTH 960 0
DWIDTH 8 0
BBX 8 8 0 -2
BITMAP
3e
48
d0
4a
7e
48
6a
00
ENDCHAR
STARTCHAR 3739
ENCODING 14137
SWIDTH 960 0
DWIDTH 8 0
BBX 8 8 0 -2
BITMAP
2e
64
fe
6a
6e
70
4a
00
ENDCHAR
STARTCHAR 373a
ENCODING 14138
SWIDTH 960 0
DWIDTH 8 0
BBX 8 8 0 -2
BITMAP
fa
56
56
fe
52
52
96
00
ENDCHAR
STARTCHAR 373b
ENCODING 14139
SWIDTH 960 0
DWIDTH 8 0
BBX 8 8 0 -2
BITMAP
7c
44
44
7c
28
2a
ce
00
ENDCHAR
STARTCHAR 373c
ENCODING 14140
SWIDTH 960 0
DWIDTH 8 0
BBX 8 8 0 -2
BITMAP
f6
5a
74
8a
7c
44
7c
00
ENDCHAR
STARTCHAR 373d
ENCODING 14141
SWIDTH 960 0
DWIDTH 8 0
BBX 8 8 0 -2
BITMAP
10
7c
10
fe
7c
10
fe
00
ENDCHAR
STARTCHAR 373e
ENCODING 14142
SWIDTH 960 0
DWIDTH 8 0
BBX 8 8 0 -2
BITMAP
e8
5c
48
fe
5c
c8
3e
00
ENDCHAR
STARTCHAR 373f
ENCODING 14143
SWIDTH 960 0
DWIDTH 8 0
BBX 8 8 0 -2
BITMAP
fa
56
fe
52
ba
10
fe
00
ENDCHAR
STARTCHAR 3740
ENCODING 14144
SWIDTH 960 0
DWIDTH 8 0
BBX 8 8 0 -2
BITMAP
5e
ea
4a
f6
7c
10
ee
00
ENDCHAR
STARTCHAR 3741
ENCODING 14145
SWIDTH 960 0
DWIDTH 8 0
BBX 8 8 0 -2
BITMAP
fa
54
52
fc
50
52
94
00
ENDCHAR
STARTCHAR 3742
ENCODING 14146
SWIDTH 960 0
DWIDTH 8 0
BBX 8 8 0 -2
BITMAP
7c
94
48
f6
5c
48
7e
00
ENDCHAR
STARTCHAR 3743
ENCODING 14147
SWIDTH 960 0
DWIDTH 8 0
BBX 8 8 0 -2
BITMAP
10
fe
7c
54
7c
ca
ba
00
ENDCHAR
STARTCHAR 3744
ENCODING 14148
SWIDTH 960 0
DWIDTH 8 0
BBX 8 8 0 -2
BITMAP
08
7e
54
7e
7a
4c
b6
00
ENDCHAR
STARTCHAR 3745
ENCODING 14149
SWIDTH 960 0
DWIDTH 8 0
BBX 8 8 0 -2
BITMAP
44
ee
44
fe
3c
ca
ba
00
ENDCHAR
STARTCHAR 3746
ENCODING 14150
SWIDTH 960 0
DWIDTH 8 0
BBX 8 8 0 -2
BITMAP
f4
4e
fa
6e
00
ca
ba
00
ENDCHAR
STARTCHAR 3747
ENCODING 14151
SWIDTH 960 0
DWIDTH 8 0
BBX 8 8 0 -2
BITMAP
5c
d4
5c
5e
f2
5a
c6
00
ENDCHAR
STARTCHAR 3748
ENCODING 14152
SWIDTH 960 0
DWIDTH 8 0
BBX 8 8 0 -2
BITMAP
54
de
74
5e
fc
56
e2
00
ENDCHAR
STARTCHAR 3749
ENCODING 14153
SWIDTH 960 0
DWIDTH 8 0
BBX 8 8 0 -2
BITMAP
54
f6
5a
7a
9a
54
3a
00
ENDCHAR
STARTCHAR 374a
ENCODING 14154
SWIDTH 960 0
DWIDTH 8 0
BBX 8 8 0 -2
BITMAP
7c
44
fe
44
7c
54
b2
00
ENDCHAR
STARTCHAR 374b
ENCODING 14155
SWIDTH 960 0
DWIDTH 8 0
BBX 8 8 0 -2
BITMAP
48
dc
48
fe
dc
48
7e
00
ENDCHAR
STARTCHAR 374c
ENCODING 14156
SWIDTH 960 0
DWIDTH 8 0
BBX 8 8 0 -2
BITMAP
86
38
aa
1c
be
88
b6
00
ENDCHAR
STARTCHAR 374d
ENCODING 14157
SWIDTH 960 0
DWIDTH 8 0
BBX 8 8 0 -2
BITMAP
04
ee
e4
fe
ee
e4
1e
00
ENDCHAR
STARTCHAR 374e
ENCODING 14158
SWIDTH 960 0
DWIDTH 8 0
BBX 8 8 0 -2
BITMAP
ca
7e
d8
6e
d0
de
5e
00
ENDCHAR
STARTCHAR 374f
ENCODING 14159
SWIDTH 960 0
DWIDTH 8 0
BBX 8 8 0 -2
BITMAP
7c
10
60
14
fa
10
92
00
ENDCHAR
STARTCHAR 3750
ENCODING 14160
SWIDTH 960 0
DWIDTH 8 0
BBX 8 8 0 -2
BITMAP
7c
94
48
b6
5c
c8
7e
00
ENDCHAR
STARTCHAR 3751
ENCODING 14161
SWIDTH 960 0
DWIDTH 8 0
BBX 8 8 0 -2
BITMAP
5a
94
5e
b4
5a
f0
5e
00
ENDCHAR
STARTCHAR 3752
ENCODING 14162
SWIDTH 960 0
DWIDTH 8 0
BBX 8 8 0 -2
BITMAP
2e
fa
74
ea
7c
10
92
00
ENDCHAR
STARTCHAR 3753
ENCODING 14163
SWIDTH 960 0
DWIDTH 8 0
BBX 8 8 0 -2
BITMAP
fe
aa
fe
48
ec
4a
e8
00
ENDCHAR
STARTCHAR 3754
ENCODING 14164
SWIDTH 960 0
DWIDTH 8 0
BBX 8 8 0 -2
BITMAP
28
fe
28
10
ee
10
7c
00
ENDCHAR
STARTCHAR 3755
ENCODING 14165
SWIDTH 960 0
DWIDTH 8 0
BBX 8 8 0 -2
BITMAP
28
fe
f0
5a
fa
52
96
00
ENDCHAR
STARTCHAR 3756
ENCODING 14166
SWIDTH 960 0
DWIDTH 8 0
BBX 8 8 0 -2
BITMAP
54
fe
92
7c
7c
14
fa
00
ENDCHAR
STARTCHAR 3757
ENCODING 14167
SWIDTH 960 0
DWIDTH 8 0
BBX 8 8 0 -2
BITMAP
44
e4
1e
c4
04
e4
e4
00
ENDCHAR
STARTCHAR 3758
ENCODING 14168
SWIDTH 960 0
DWIDTH 8 0
BBX 8 8 0 -2
BITMAP
52
dc
12
de
00
de
de
00
ENDCHAR
STARTCHAR 3759
ENCODING 14169
SWIDTH 960 0
DWIDTH 8 0
BBX 8 8 0 -2
BITMAP
56
fa
74
9a
30
fe
38
00
ENDCHAR
STARTCHAR 375a
ENCODING 14170
SWIDTH 960 0
DWIDTH 8 0
BBX 8 8 0 -2
BITMAP
fc
54
c8
f6
5c
c8
7e
00
ENDCHAR
STARTCHAR 375b
ENCODING 14171
SWIDTH 960 0
DWIDTH 8 0
BBX 8 8 0 -2
BITMAP
fe
54
2e
da
6e
30
ca
00
ENDCHAR
STARTCHAR 375c
ENCODING 14172
SWIDTH 960 0
DWIDTH 8 0
BBX 8 8 0 -2
BITMAP
e4
0e
ae
48
ee
42
aa
00
ENDCHAR
STARTCHAR 375d
ENCODING 14173
SWIDTH 960 0
DWIDTH 8 0
BBX 8 8 0 -2
BITMAP
28
fe
28
7c
fe
24
fa
00
ENDCHAR
STARTCHAR 375e
ENCODING 14174
SWIDTH 960 0
DWIDTH 8 0
BBX 8 8 0 -2
BITMAP
90
2e
2a
ea
7a
48
be
00
ENDCHAR
STARTCHAR 375f
ENCODING 14175
SWIDTH 960 0
DWIDTH 8 0
BBX 8 8 0 -2
BITMAP
64
be
6a
6e
64
16
ac
00
ENDCHAR
STARTCHAR 3760
ENCODING 14176
SWIDTH 960 0
DWIDTH 8 0
BBX 8 8 0 -2
BITMAP
22
3a
ea
da
b2
da
b6
00
ENDCHAR
STARTCHAR 3761
ENCODING 14177
SWIDTH 960 0
DWIDTH 8 0
BBX 8 8 0 -2
BITMAP
ea
48
fe
a8
4a
e4
5a
00
ENDCHAR
STARTCHAR 3762
ENCODING 14178
SWIDTH 960 0
DWIDTH 8 0
BBX 8 8 0 -2
BITMAP
2e
fa
74
ea
3c
fe
30
00
ENDCHAR
STARTCHAR 3763
ENCODING 14179
SWIDTH 960 0
DWIDTH 8 0
BBX 8 8 0 -2
BITMAP
94
36
ba
7a
9a
ac
da
00
ENDCHAR
STARTCHAR 3764
ENCODING 14180
SWIDTH 960 0
DWIDTH 8 0
BBX 8 8 0 -2
BITMAP
e4
b6
cc
ac
a4
d6
8c
00
ENDCHAR
STARTCHAR 3765
ENCODING 14181
SWIDTH 960 0
DWIDTH 8 0
BBX 8 8 0 -2
BITMAP
56
e0
56
f2
d2
52
56
00
ENDCHAR
STARTCHAR 3766
ENCODING 14182
SWIDTH 960 0
DWIDTH 8 0
BBX 8 8 0 -2
BITMAP
5a
6e
d6
ea
7e
5c
6a
00
ENDCHAR
STARTCHAR 3767
ENCODING 14183
SWIDTH 960 0
DWIDTH 8 0
BBX 8 8 0 -2
BITMAP
40
7e
52
90
10
28
c6
00
ENDCHAR
STARTCHAR 3768
ENCODING 14184
SWIDTH 960 0
DWIDTH 8 0
BBX 8 8 0 -2
BITMAP
88
1c
8c
3e
88
88
b6
00
ENDCHAR
STARTCHAR 3769
ENCODING 14185
SWIDTH 960 0
DWIDTH 8 0
BBX 8 8 0 -2
BITMAP
96
3e
96
3a
be
88
aa
00
ENDCHAR
STARTCHAR 376a
ENCODING 14186
SWIDTH 960 0
DWIDTH 8 0
BBX 8 8 0 -2
BITMAP
10
fe
82
28
28
44
82
00
ENDCHAR
STARTCHAR 376b
ENCODING 14187
SWIDTH 960 0
DWIDTH 8 0
BBX 8 8 0 -2
BITMAP
48
be
48
9c
40
dc
5c
00
ENDCHAR
STARTCHAR 376c
ENCODING 14188
SWIDTH 960 0
DWIDTH 8 0
BBX 8 8 0 -2
BITMAP
20
7c
54
54
54
54
fe
00
ENDCHAR
STARTCHAR 376d
ENCODING 14189
SWIDTH 960 0
DWIDTH 8 0
BBX 8 8 0 -2
BITMAP
48
dc
0c
be
08
c8
f6
00
ENDCHAR
STARTCHAR 376e
ENCODING 14190
SWIDTH 960 0
DWIDTH 8 0
BBX 8 8 0 -2
BITMAP
3e
22
3e
22
3e
42
86
00
ENDCHAR
STARTCHAR 376f
ENCODING 14191
SWIDTH 960 0
DWIDTH 8 0
BBX 8 8 0 -2
BITMAP
2c
4e
d4
44
5e
44
44
00
ENDCHAR
STARTCHAR 3770
ENCODING 14192
SWIDTH 960 0
DWIDTH 8 0
BBX 8 8 0 -2
BITMAP
28
54
fe
6a
7e
48
76
00
ENDCHAR
STARTCHAR 3771
ENCODING 14193
SWIDTH 960 0
DWIDTH 8 0
BBX 8 8 0 -2
BITMAP
2a
5c
fe
54
6a
50
5c
00
ENDCHAR
STARTCHAR 3772
ENCODING 14194
SWIDTH 960 0
DWIDTH 8 0
BBX 8 8 0 -2
BITMAP
34
5e
ee
54
7e
54
6e
00
ENDCHAR
STARTCHAR 3773
ENCODING 14195
SWIDTH 960 0
DWIDTH 8 0
BBX 8 8 0 -2
BITMAP
24
fe
78
2e
f8
6c
aa
00
ENDCHAR
STARTCHAR 3774
ENCODING 14196
SWIDTH 960 0
DWIDTH 8 0
BBX 8 8 0 -2
BITMAP
54
38
fe
44
be
14
6c
00
ENDCHAR
STARTCHAR 3775
ENCODING 14197
SWIDTH 960 0
DWIDTH 8 0
BBX 8 8 0 -2
BITMAP
22
56
fe
ae
fa
22
da
00
ENDCHAR
STARTCHAR 3776
ENCODING 14198
SWIDTH 960 0
DWIDTH 8 0
BBX 8 8 0 -2
BITMAP
08
fe
ee
c0
dc
14
3e
00
ENDCHAR
STARTCHAR 3777
ENCODING 14199
SWIDTH 960 0
DWIDTH 8 0
BBX 8 8 0 -2
BITMAP
fe
aa
fe
ba
d6
9a
fe
00
ENDCHAR
STARTCHAR 3778
ENCODING 14200
SWIDTH 960 0
DWIDTH 8 0
BBX 8 8 0 -2
BITMAP
ee
ca
e4
1a
7c
10
fe
00
ENDCHAR
STARTCHAR 3779
ENCODING 14201
SWIDTH 960 0
DWIDTH 8 0
BBX 8 8 0 -2
BITMAP
94
be
dc
ce
fc
5c
aa
00
ENDCHAR
STARTCHAR 377a
ENCODING 14202
SWIDTH 960 0
DWIDTH 8 0
BBX 8 8 0 -2
BITMAP
dc
4e
9c
48
de
48
be
00
ENDCHAR
STARTCHAR 377b
ENCODING 14203
SWIDTH 960 0
DWIDTH 8 0
BBX 8 8 0 -2
BITMAP
10
fe
92
7c
38
ca
ba
00
ENDCHAR
STARTCHAR 377c
ENCODING 14204
SWIDTH 960 0
DWIDTH 8 0
BBX 8 8 0 -2
BITMAP
6e
e4
88
ee
54
ca
ba
00
ENDCHAR
STARTCHAR 377d
ENCODING 14205
SWIDTH 960 0
DWIDTH 8 0
BBX 8 8 0 -2
BITMAP
54
38
fe
44
ba
7c
30
00
ENDCHAR
STARTCHAR 377e
ENCODING 14206
SWIDTH 960 0
DWIDTH 8 0
BBX 8 8 0 -2
BITMAP
6a
dc
7e
54
ea
50
dc
00
ENDCHAR
STARTCHAR 3821
ENCODING 14369
SWIDTH 960 0
DWIDTH 8 0
BBX 8 8 0 -2
BITMAP
48
d4
7e
ea
fe
48
76
00
ENDCHAR
STARTCHAR 3822
ENCODING 14370
SWIDTH 960 0
DWIDTH 8 0
BBX 8 8 0 -2
BITMAP
48
ee
54
ee
dc
4c
4e
00
ENDCHAR
STARTCHAR 3823
ENCODING 14371
SWIDTH 960 0
DWIDTH 8 0
BBX 8 8 0 -2
BITMAP
10
fe
64
fe
ba
7c
10
00
ENDCHAR
STARTCHAR 3824
ENCODING 14372
SWIDTH 960 0
DWIDTH 8 0
BBX 8 8 0 -2
BITMAP
14
10
fe
10
10
28
c6
00
ENDCHAR
STARTCHAR 3825
ENCODING 14373
SWIDTH 960 0
DWIDTH 8 0
BBX 8 8 0 -2
BITMAP
26
f4
2e
f4
d4
f4
ba
00
ENDCHAR
STARTCHAR 3826
ENCODING 14374
SWIDTH 960 0
DWIDTH 8 0
BBX 8 8 0 -2
BITMAP
fe
4a
4a
9e
6a
6a
12
00
ENDCHAR
STARTCHAR 3827
ENCODING 14375
SWIDTH 960 0
DWIDTH 8 0
BBX 8 8 0 -2
BITMAP
fe
52
5e
92
7e
6c
16
00
ENDCHAR
STARTCHAR 3828
ENCODING 14376
SWIDTH 960 0
DWIDTH 8 0
BBX 8 8 0 -2
BITMAP
4c
8c
40
be
52
fe
52
00
ENDCHAR
STARTCHAR 3829
ENCODING 14377
SWIDTH 960 0
DWIDTH 8 0
BBX 8 8 0 -2
BITMAP
3c
a4
bc
a4
fe
10
92
00
ENDCHAR
STARTCHAR 382a
ENCODING 14378
SWIDTH 960 0
DWIDTH 8 0
BBX 8 8 0 -2
BITMAP
fe
44
7c
5c
54
5c
94
00
ENDCHAR
STARTCHAR 382b
ENCODING 14379
SWIDTH 960 0
DWIDTH 8 0
BBX 8 8 0 -2
BITMAP
7c
44
7c
44
7c
2a
ce
00
ENDCHAR
STARTCHAR 382c
ENCODING 14380
SWIDTH 960 0
DWIDTH 8 0
BBX 8 8 0 -2
BITMAP
94
fe
1c
ce
3c
dc
ea
00
ENDCHAR
STARTCHAR 382d
ENCODING 14381
SWIDTH 960 0
DWIDTH 8 0
BBX 8 8 0 -2
BITMAP
ee
ca
e4
0a
7c
7c
c6
00
ENDCHAR
STARTCHAR 382e
ENCODING 14382
SWIDTH 960 0
DWIDTH 8 0
BBX 8 8 0 -2
BITMAP
ee
44
e4
fe
44
e4
44
00
ENDCHAR
STARTCHAR 382f
ENCODING 14383
SWIDTH 960 0
DWIDTH 8 0
BBX 8 8 0 -2
BITMAP
88
3e
2a
fe
5c
5e
be
00
ENDCHAR
STARTCHAR 3830
ENCODING 14384
SWIDTH 960 0
DWIDTH 8 0
BBX 8 8 0 -2
BITMAP
5a
ae
ea
56
ea
68
d6
00
ENDCHAR
STARTCHAR 3831
ENCODING 14385
SWIDTH 960 0
DWIDTH 8 0
BBX 8 8 0 -2
BITMAP
c8
d4
be
ea
fe
88
b6
00
ENDCHAR
STARTCHAR 3832
ENCODING 14386
SWIDTH 960 0
DWIDTH 8 0
BBX 8 8 0 -2
BITMAP
fe
94
6e
fa
6e
70
ca
00
ENDCHAR
STARTCHAR 3833
ENCODING 14387
SWIDTH 960 0
DWIDTH 8 0
BBX 8 8 0 -2
BITMAP
e8
d4
fe
ea
fe
28
b6
00
ENDCHAR
STARTCHAR 3834
ENCODING 14388
SWIDTH 960 0
DWIDTH 8 0
BBX 8 8 0 -2
BITMAP
48
74
de
aa
be
a8
f6
00
ENDCHAR
STARTCHAR 3835
ENCODING 14389
SWIDTH 960 0
DWIDTH 8 0
BBX 8 8 0 -2
BITMAP
7c
00
fe
28
28
4a
8e
00
ENDCHAR
STARTCHAR 3836
ENCODING 14390
SWIDTH 960 0
DWIDTH 8 0
BBX 8 8 0 -2
BITMAP
7e
48
5c
5c
48
6a
98
00
ENDCHAR
STARTCHAR 3837
ENCODING 14391
SWIDTH 960 0
DWIDTH 8 0
BBX 8 8 0 -2
BITMAP
54
7e
60
76
5a
74
9a
00
ENDCHAR
STARTCHAR 3838
ENCODING 14392
SWIDTH 960 0
DWIDTH 8 0
BBX 8 8 0 -2
BITMAP
2e
22
d2
62
22
52
f4
00
ENDCHAR
STARTCHAR 3839
ENCODING 14393
SWIDTH 960 0
DWIDTH 8 0
BBX 8 8 0 -2
BITMAP
c8
7e
d0
b4
c8
54
fa
00
ENDCHAR
STARTCHAR 383a
ENCODING 14394
SWIDTH 960 0
DWIDTH 8 0
BBX 8 8 0 -2
BITMAP
84
3e
a4
3c
a6
bc
da
00
ENDCHAR
STARTCHAR 383b
ENCODING 14395
SWIDTH 960 0
DWIDTH 8 0
BBX 8 8 0 -2
BITMAP
be
24
ae
2e
a4
b6
cc
00
ENDCHAR
STARTCHAR 383c
ENCODING 14396
SWIDTH 960 0
DWIDTH 8 0
BBX 8 8 0 -2
BITMAP
10
fe
20
68
10
24
fa
00
ENDCHAR
STARTCHAR 383d
ENCODING 14397
SWIDTH 960 0
DWIDTH 8 0
BBX 8 8 0 -2
BITMAP
fe
52
5e
f2
5e
ec
16
00
ENDCHAR
STARTCHAR 383e
ENCODING 14398
SWIDTH 960 0
DWIDTH 8 0
BBX 8 8 0 -2
BITMAP
48
be
50
b4
48
d4
7a
00
ENDCHAR
STARTCHAR 383f
ENCODING 14399
SWIDTH 960 0
DWIDTH 8 0
BBX 8 8 0 -2
BITMAP
44
fe
a8
ba
e4
aa
be
00
ENDCHAR
STARTCHAR 3840
ENCODING 14400
SWIDTH 960 0
DWIDTH 8 0
BBX 8 8 0 -2
BITMAP
38
fe
00
38
00
7c
7c
00
ENDCHAR
STARTCHAR 3841
ENCODING 14401
SWIDTH 960 0
DWIDTH 8 0
BBX 8 8 0 -2
BITMAP
48
fe
14
be
28
e2
ec
00
ENDCHAR
STARTCHAR 3842
ENCODING 14402
SWIDTH 960 0
DWIDTH 8 0
BBX 8 8 0 -2
BITMAP
fe
b2
de
b2
be
d4
9a
00
ENDCHAR
STARTCHAR 3843
ENCODING 14403
SWIDTH 960 0
DWIDTH 8 0
BBX 8 8 0 -2
BITMAP
0e
f0
54
10
fe
10
30
00
ENDCHAR
STARTCHAR 3844
ENCODING 14404
SWIDTH 960 0
DWIDTH 8 0
BBX 8 8 0 -2
BITMAP
3e
6a
fe
6a
76
7e
7e
00
ENDCHAR
STARTCHAR 3845
ENCODING 14405
SWIDTH 960 0
DWIDTH 8 0
BBX 8 8 0 -2
BITMAP
10
10
fe
10
7c
44
7c
00
ENDCHAR
STARTCHAR 3846
ENCODING 14406
SWIDTH 960 0
DWIDTH 8 0
BBX 8 8 0 -2
BITMAP
06
f8
ea
c8
fe
08
18
00
ENDCHAR
STARTCHAR 3847
ENCODING 14407
SWIDTH 960 0
DWIDTH 8 0
BBX 8 8 0 -2
BITMAP
fe
92
ba
92
aa
ba
fe
00
ENDCHAR
STARTCHAR 3848
ENCODING 14408
SWIDTH 960 0
DWIDTH 8 0
BBX 8 8 0 -2
BITMAP
24
24
fe
54
6e
3a
ce
00
ENDCHAR
STARTCHAR 3849
ENCODING 14409
SWIDTH 960 0
DWIDTH 8 0
BBX 8 8 0 -2
BITMAP
e2
3c
54
74
d4
56
ea
00
ENDCHAR
STARTCHAR 384a
ENCODING 14410
SWIDTH 960 0
DWIDTH 8 0
BBX 8 8 0 -2
BITMAP
fc
04
04
fc
80
82
7e
00
ENDCHAR
STARTCHAR 384b
ENCODING 14411
SWIDTH 960 0
DWIDTH 8 0
BBX 8 8 0 -2
BITMAP
08
7e
48
7e
5c
7e
88
00
ENDCHAR
STARTCHAR 384c
ENCODING 14412
SWIDTH 960 0
DWIDTH 8 0
BBX 8 8 0 -2
BITMAP
c2
5c
d4
94
d4
56
ea
00
ENDCHAR
STARTCHAR 384d
ENCODING 14413
SWIDTH 960 0
DWIDTH 8 0
BBX 8 8 0 -2
BITMAP
fe
00
7c
44
7c
40
80
00
ENDCHAR
STARTCHAR 384e
ENCODING 14414
SWIDTH 960 0
DWIDTH 8 0
BBX 8 8 0 -2
BITMAP
48
ee
5a
ea
aa
e4
1a
00
ENDCHAR
STARTCHAR 384f
ENCODING 14415
SWIDTH 960 0
DWIDTH 8 0
BBX 8 8 0 -2
BITMAP
48
c8
7e
c8
dc
54
5c
00
ENDCHAR
STARTCHAR 3850
ENCODING 14416
SWIDTH 960 0
DWIDTH 8 0
BBX 8 8 0 -2
BITMAP
ae
7a
ae
7a
de
fa
8a
00
ENDCHAR
STARTCHAR 3851
ENCODING 14417
SWIDTH 960 0
DWIDTH 8 0
BBX 8 8 0 -2
BITMAP
a2
5c
d4
54
d4
56
aa
00
ENDCHAR
STARTCHAR 3852
ENCODING 14418
SWIDTH 960 0
DWIDTH 8 0
BBX 8 8 0 -2
BITMAP
96
7e
d6
7e
ee
fe
4a
00
ENDCHAR
STARTCHAR 3853
ENCODING 14419
SWIDTH 960 0
DWIDTH 8 0
BBX 8 8 0 -2
BITMAP
44
fe
2c
5a
ec
62
46
00
ENDCHAR
STARTCHAR 3854
ENCODING 14420
SWIDTH 960 0
DWIDTH 8 0
BBX 8 8 0 -2
BITMAP
ee
aa
e0
ae
ea
a4
ba
00
ENDCHAR
STARTCHAR 3855
ENCODING 14421
SWIDTH 960 0
DWIDTH 8 0
BBX 8 8 0 -2
BITMAP
4e
ea
4e
ea
ae
ea
16
00
ENDCHAR
STARTCHAR 3856
ENCODING 14422
SWIDTH 960 0
DWIDTH 8 0
BBX 8 8 0 -2
BITMAP
28
fe
de
54
94
56
ea
00
ENDCHAR
STARTCHAR 3857
ENCODING 14423
SWIDTH 960 0
DWIDTH 8 0
BBX 8 8 0 -2
BITMAP
08
0e
78
4e
40
54
a6
00
ENDCHAR
STARTCHAR 3858
ENCODING 14424
SWIDTH 960 0
DWIDTH 8 0
BBX 8 8 0 -2
BITMAP
48
fe
14
aa
1c
c2
c6
00
ENDCHAR
STARTCHAR 3859
ENCODING 14425
SWIDTH 960 0
DWIDTH 8 0
BBX 8 8 0 -2
BITMAP
e4
be
ec
5a
ec
c2
e6
00
ENDCHAR
STARTCHAR 385a
ENCODING 14426
SWIDTH 960 0
DWIDTH 8 0
BBX 8 8 0 -2
BITMAP
44
a4
fe
44
ee
6a
ce
00
ENDCHAR
STARTCHAR 385b
ENCODING 14427
SWIDTH 960 0
DWIDTH 8 0
BBX 8 8 0 -2
BITMAP
fe
44
7c
54
5e
74
9e
00
ENDCHAR
STARTCHAR 385c
ENCODING 14428
SWIDTH 960 0
DWIDTH 8 0
BBX 8 8 0 -2
BITMAP
fe
54
76
66
f6
60
7a
00
ENDCHAR
STARTCHAR 385d
ENCODING 14429
SWIDTH 960 0
DWIDTH 8 0
BBX 8 8 0 -2
BITMAP
44
ee
44
ae
ca
64
da
00
ENDCHAR
STARTCHAR 385e
ENCODING 14430
SWIDTH 960 0
DWIDTH 8 0
BBX 8 8 0 -2
BITMAP
7c
10
10
7c
24
24
fe
00
ENDCHAR
STARTCHAR 385f
ENCODING 14431
SWIDTH 960 0
DWIDTH 8 0
BBX 8 8 0 -2
BITMAP
fe
20
3c
24
78
08
fe
00
ENDCHAR
STARTCHAR 3860
ENCODING 14432
SWIDTH 960 0
DWIDTH 8 0
BBX 8 8 0 -2
BITMAP
3c
48
c8
7c
54
54
7e
00
ENDCHAR
STARTCHAR 3861
ENCODING 14433
SWIDTH 960 0
DWIDTH 8 0
BBX 8 8 0 -2
BITMAP
40
7c
90
10
fe
10
10
00
ENDCHAR
STARTCHAR 3862
ENCODING 14434
SWIDTH 960 0
DWIDTH 8 0
BBX 8 8 0 -2
BITMAP
3c
a4
fc
08
fe
00
c6
00
ENDCHAR
STARTCHAR 3863
ENCODING 14435
SWIDTH 960 0
DWIDTH 8 0
BBX 8 8 0 -2
BITMAP
7c
10
78
28
fe
44
7c
00
ENDCHAR
STARTCHAR 3864
ENCODING 14436
SWIDTH 960 0
DWIDTH 8 0
BBX 8 8 0 -2
BITMAP
46
56
fc
a4
de
60
92
00
ENDCHAR
STARTCHAR 3865
ENCODING 14437
SWIDTH 960 0
DWIDTH 8 0
BBX 8 8 0 -2
BITMAP
48
90
4a
fe
54
48
76
00
ENDCHAR
STARTCHAR 3866
ENCODING 14438
SWIDTH 960 0
DWIDTH 8 0
BBX 8 8 0 -2
BITMAP
66
be
56
de
76
7c
44
00
ENDCHAR
STARTCHAR 3867
ENCODING 14439
SWIDTH 960 0
DWIDTH 8 0
BBX 8 8 0 -2
BITMAP
5c
c8
fc
54
7e
54
5c
00
ENDCHAR
STARTCHAR 3868
ENCODING 14440
SWIDTH 960 0
DWIDTH 8 0
BBX 8 8 0 -2
BITMAP
5c
c8
7c
d4
fe
54
5c
00
ENDCHAR
STARTCHAR 3869
ENCODING 14441
SWIDTH 960 0
DWIDTH 8 0
BBX 8 8 0 -2
BITMAP
48
f6
5c
fe
ea
6e
7a
00
ENDCHAR
STARTCHAR 386a
ENCODING 14442
SWIDTH 960 0
DWIDTH 8 0
BBX 8 8 0 -2
BITMAP
d6
7e
56
fe
6e
fe
0a
00
ENDCHAR
STARTCHAR 386b
ENCODING 14443
SWIDTH 960 0
DWIDTH 8 0
BBX 8 8 0 -2
BITMAP
28
7c
28
fe
44
ba
58
00
ENDCHAR
STARTCHAR 386c
ENCODING 14444
SWIDTH 960 0
DWIDTH 8 0
BBX 8 8 0 -2
BITMAP
5c
c8
3c
d4
3e
d4
dc
00
ENDCHAR
STARTCHAR 386d
ENCODING 14445
SWIDTH 960 0
DWIDTH 8 0
BBX 8 8 0 -2
BITMAP
46
d6
1c
c4
1e
c0
d2
00
ENDCHAR
STARTCHAR 386e
ENCODING 14446
SWIDTH 960 0
DWIDTH 8 0
BBX 8 8 0 -2
BITMAP
94
fe
1c
de
14
c8
f6
00
ENDCHAR
STARTCHAR 386f
ENCODING 14447
SWIDTH 960 0
DWIDTH 8 0
BBX 8 8 0 -2
BITMAP
d6
7e
d6
fe
ee
fe
ca
00
ENDCHAR
STARTCHAR 3870
ENCODING 14448
SWIDTH 960 0
DWIDTH 8 0
BBX 8 8 0 -2
BITMAP
40
7e
b8
08
30
42
3e
00
ENDCHAR
STARTCHAR 3871
ENCODING 14449
SWIDTH 960 0
DWIDTH 8 0
BBX 8 8 0 -2
BITMAP
7e
aa
7e
6a
7e
08
be
00
ENDCHAR
STARTCHAR 3872
ENCODING 14450
SWIDTH 960 0
DWIDTH 8 0
BBX 8 8 0 -2
BITMAP
10
fe
28
c6
28
10
ee
00
ENDCHAR
STARTCHAR 3873
ENCODING 14451
SWIDTH 960 0
DWIDTH 8 0
BBX 8 8 0 -2
BITMAP
28
7e
d4
62
54
48
76
00
ENDCHAR
STARTCHAR 3874
ENCODING 14452
SWIDTH 960 0
DWIDTH 8 0
BBX 8 8 0 -2
BITMAP
2c
44
de
48
5e
44
5a
00
ENDCHAR
STARTCHAR 3875
ENCODING 14453
SWIDTH 960 0
DWIDTH 8 0
BBX 8 8 0 -2
BITMAP
2c
64
fe
68
7e
64
5a
00
ENDCHAR
STARTCHAR 3876
ENCODING 14454
SWIDTH 960 0
DWIDTH 8 0
BBX 8 8 0 -2
BITMAP
28
5c
fe
54
7e
5c
48
00
ENDCHAR
STARTCHAR 3877
ENCODING 14455
SWIDTH 960 0
DWIDTH 8 0
BBX 8 8 0 -2
BITMAP
10
54
10
fe
28
2a
ce
00
ENDCHAR
STARTCHAR 3878
ENCODING 14456
SWIDTH 960 0
DWIDTH 8 0
BBX 8 8 0 -2
BITMAP
28
28
44
92
10
24
fa
00
ENDCHAR
STARTCHAR 3879
ENCODING 14457
SWIDTH 960 0
DWIDTH 8 0
BBX 8 8 0 -2
BITMAP
08
fe
4a
4a
6a
ca
16
00
ENDCHAR
STARTCHAR 387a
ENCODING 14458
SWIDTH 960 0
DWIDTH 8 0
BBX 8 8 0 -2
BITMAP
28
fe
5a
8a
5a
2a
d6
00
ENDCHAR
STARTCHAR 387b
ENCODING 14459
SWIDTH 960 0
DWIDTH 8 0
BBX 8 8 0 -2
BITMAP
20
3e
52
92
2a
76
02
00
ENDCHAR
STARTCHAR 387c
ENCODING 14460
SWIDTH 960 0
DWIDTH 8 0
BBX 8 8 0 -2
BITMAP
7e
5c
5c
44
7e
48
98
00
ENDCHAR
STARTCHAR 387d
ENCODING 14461
SWIDTH 960 0
DWIDTH 8 0
BBX 8 8 0 -2
BITMAP
00
7e
42
42
42
7e
42
00
ENDCHAR
STARTCHAR 387e
ENCODING 14462
SWIDTH 960 0
DWIDTH 8 0
BBX 8 8 0 -2
BITMAP
10
fe
82
ba
aa
ba
86
00
ENDCHAR
STARTCHAR 3921
ENCODING 14625
SWIDTH 960 0
DWIDTH 8 0
BBX 8 8 0 -2
BITMAP
0c
70
40
7e
40
5c
9c
00
ENDCHAR
STARTCHAR 3922
ENCODING 14626
SWIDTH 960 0
DWIDTH 8 0
BBX 8 8 0 -2
BITMAP
2c
e4
be
a8
fe
24
3a
00
ENDCHAR
STARTCHAR 3923
ENCODING 14627
SWIDTH 960 0
DWIDTH 8 0
BBX 8 8 0 -2
BITMAP
48
7e
c0
5c
54
d4
26
00
ENDCHAR
STARTCHAR 3924
ENCODING 14628
SWIDTH 960 0
DWIDTH 8 0
BBX 8 8 0 -2
BITMAP
42
5c
d0
5e
50
d6
26
00
ENDCHAR
STARTCHAR 3925
ENCODING 14629
SWIDTH 960 0
DWIDTH 8 0
BBX 8 8 0 -2
BITMAP
2e
22
f4
5e
64
34
cc
00
ENDCHAR
STARTCHAR 3926
ENCODING 14630
SWIDTH 960 0
DWIDTH 8 0
BBX 8 8 0 -2
BITMAP
e8
28
48
68
c8
4a
ce
00
ENDCHAR
STARTCHAR 3927
ENCODING 14631
SWIDTH 960 0
DWIDTH 8 0
BBX 8 8 0 -2
BITMAP
12
7c
18
fe
24
de
08
00
ENDCHAR
STARTCHAR 3928
ENCODING 14632
SWIDTH 960 0
DWIDTH 8 0
BBX 8 8 0 -2
BITMAP
10
fe
a2
fc
50
a4
7a
00
ENDCHAR
STARTCHAR 3929
ENCODING 14633
SWIDTH 960 0
DWIDTH 8 0
BBX 8 8 0 -2
BITMAP
00
7c
10
10
10
10
fe
00
ENDCHAR
STARTCHAR 392a
ENCODING 14634
SWIDTH 960 0
DWIDTH 8 0
BBX 8 8 0 -2
BITMAP
1e
e8
48
4e
62
c2
06
00
ENDCHAR
STARTCHAR 392b
ENCODING 14635
SWIDTH 960 0
DWIDTH 8 0
BBX 8 8 0 -2
BITMAP
28
7c
28
fe
74
a2
38
00
ENDCHAR
STARTCHAR 392c
ENCODING 14636
SWIDTH 960 0
DWIDTH 8 0
BBX 8 8 0 -2
BITMAP
10
7c
fe
28
fe
7c
10
00
ENDCHAR
STARTCHAR 392d
ENCODING 14637
SWIDTH 960 0
DWIDTH 8 0
BBX 8 8 0 -2
BITMAP
08
7e
40
48
48
54
ba
00
ENDCHAR
STARTCHAR 392e
ENCODING 14638
SWIDTH 960 0
DWIDTH 8 0
BBX 8 8 0 -2
BITMAP
08
7e
5e
4a
5e
48
b6
00
ENDCHAR
STARTCHAR 392f
ENCODING 14639
SWIDTH 960 0
DWIDTH 8 0
BBX 8 8 0 -2
BITMAP
08
7e
4e
7c
6a
5c
aa
00
ENDCHAR
STARTCHAR 3930
ENCODING 14640
SWIDTH 960 0
DWIDTH 8 0
BBX 8 8 0 -2
BITMAP
c8
48
c8
88
d0
54
fa
00
ENDCHAR
STARTCHAR 3931
ENCODING 14641
SWIDTH 960 0
DWIDTH 8 0
BBX 8 8 0 -2
BITMAP
7e
dc
d4
5c
54
5c
7e
00
ENDCHAR
STARTCHAR 3932
ENCODING 14642
SWIDTH 960 0
DWIDTH 8 0
BBX 8 8 0 -2
BITMAP
54
fe
d0
5c
40
5a
6a
00
ENDCHAR
STARTCHAR 3933
ENCODING 14643
SWIDTH 960 0
DWIDTH 8 0
BBX 8 8 0 -2
BITMAP
48
fe
40
5c
d4
54
e6
00
ENDCHAR
STARTCHAR 3934
ENCODING 14644
SWIDTH 960 0
DWIDTH 8 0
BBX 8 8 0 -2
BITMAP
50
de
62
5a
da
42
c6
00
ENDCHAR
STARTCHAR 3935
ENCODING 14645
SWIDTH 960 0
DWIDTH 8 0
BBX 8 8 0 -2
BITMAP
48
fe
76
40
dc
48
fe
00
ENDCHAR
STARTCHAR 3936
ENCODING 14646
SWIDTH 960 0
DWIDTH 8 0
BBX 8 8 0 -2
BITMAP
08
ee
5a
4a
6a
c4
1a
00
ENDCHAR
STARTCHAR 3937
ENCODING 14647
SWIDTH 960 0
DWIDTH 8 0
BBX 8 8 0 -2
BITMAP
7c
44
7c
4e
8a
ea
08
00
ENDCHAR
STARTCHAR 3938
ENCODING 14648
SWIDTH 960 0
DWIDTH 8 0
BBX 8 8 0 -2
BITMAP
7c
7c
10
54
fe
28
ce
00
ENDCHAR
STARTCHAR 3939
ENCODING 14649
SWIDTH 960 0
DWIDTH 8 0
BBX 8 8 0 -2
BITMAP
fe
54
7c
54
7c
30
ce
00
ENDCHAR
STARTCHAR 393a
ENCODING 14650
SWIDTH 960 0
DWIDTH 8 0
BBX 8 8 0 -2
BITMAP
48
fe
40
dc
d4
54
66
00
ENDCHAR
STARTCHAR 393b
ENCODING 14651
SWIDTH 960 0
DWIDTH 8 0
BBX 8 8 0 -2
BITMAP
48
fe
54
e2
d4
48
76
00
ENDCHAR
STARTCHAR 393c
ENCODING 14652
SWIDTH 960 0
DWIDTH 8 0
BBX 8 8 0 -2
BITMAP
7e
dc
5c
c8
d8
48
76
00
ENDCHAR
STARTCHAR 393d
ENCODING 14653
SWIDTH 960 0
DWIDTH 8 0
BBX 8 8 0 -2
BITMAP
54
fe
54
fe
dc
7e
54
00
ENDCHAR
STARTCHAR 393e
ENCODING 14654
SWIDTH 960 0
DWIDTH 8 0
BBX 8 8 0 -2
BITMAP
80
3e
88
08
88
88
be
00
ENDCHAR
STARTCHAR 393f
ENCODING 14655
SWIDTH 960 0
DWIDTH 8 0
BBX 8 8 0 -2
BITMAP
94
3e
94
14
be
80
a2
00
ENDCHAR
STARTCHAR 3940
ENCODING 14656
SWIDTH 960 0
DWIDTH 8 0
BBX 8 8 0 -2
BITMAP
98
1c
a8
3e
80
9c
9c
00
ENDCHAR
STARTCHAR 3941
ENCODING 14657
SWIDTH 960 0
DWIDTH 8 0
BBX 8 8 0 -2
BITMAP
94
3e
94
7e
aa
d0
9c
00
ENDCHAR
STARTCHAR 3942
ENCODING 14658
SWIDTH 960 0
DWIDTH 8 0
BBX 8 8 0 -2
BITMAP
94
3e
94
3e
9c
be
94
00
ENDCHAR
STARTCHAR 3943
ENCODING 14659
SWIDTH 960 0
DWIDTH 8 0
BBX 8 8 0 -2
BITMAP
fe
92
fe
92
fe
10
10
00
ENDCHAR
STARTCHAR 3944
ENCODING 14660
SWIDTH 960 0
DWIDTH 8 0
BBX 8 8 0 -2
BITMAP
10
7c
44
7c
fe
10
fe
00
ENDCHAR
STARTCHAR 3945
ENCODING 14661
SWIDTH 960 0
DWIDTH 8 0
BBX 8 8 0 -2
BITMAP
fe
4e
4e
84
6c
64
1a
00
ENDCHAR
STARTCHAR 3946
ENCODING 14662
SWIDTH 960 0
DWIDTH 8 0
BBX 8 8 0 -2
BITMAP
c8
7e
d4
5c
fe
e2
6a
00
ENDCHAR
STARTCHAR 3947
ENCODING 14663
SWIDTH 960 0
DWIDTH 8 0
BBX 8 8 0 -2
BITMAP
88
7e
ee
6c
fa
ec
5a
00
ENDCHAR
STARTCHAR 3948
ENCODING 14664
SWIDTH 960 0
DWIDTH 8 0
BBX 8 8 0 -2
BITMAP
40
9e
44
a4
44
e4
5e
00
ENDCHAR
STARTCHAR 3949
ENCODING 14665
SWIDTH 960 0
DWIDTH 8 0
BBX 8 8 0 -2
BITMAP
48
be
48
92
54
ea
5e
00
ENDCHAR
STARTCHAR 394a
ENCODING 14666
SWIDTH 960 0
DWIDTH 8 0
BBX 8 8 0 -2
BITMAP
48
be
54
a2
54
c8
76
00
ENDCHAR
STARTCHAR 394b
ENCODING 14667
SWIDTH 960 0
DWIDTH 8 0
BBX 8 8 0 -2
BITMAP
7e
a2
76
aa
76
fe
62
00
ENDCHAR
STARTCHAR 394c
ENCODING 14668
SWIDTH 960 0
DWIDTH 8 0
BBX 8 8 0 -2
BITMAP
54
fe
54
d4
7e
d4
64
00
ENDCHAR
STARTCHAR 394d
ENCODING 14669
SWIDTH 960 0
DWIDTH 8 0
BBX 8 8 0 -2
BITMAP
12
7c
18
fe
30
de
02
00
ENDCHAR
STARTCHAR 394e
ENCODING 14670
SWIDTH 960 0
DWIDTH 8 0
BBX 8 8 0 -2
BITMAP
10
5c
50
fe
44
7c
44
00
ENDCHAR
STARTCHAR 394f
ENCODING 14671
SWIDTH 960 0
DWIDTH 8 0
BBX 8 8 0 -2
BITMAP
e8
be
e8
b2
e4
aa
be
00
ENDCHAR
STARTCHAR 3950
ENCODING 14672
SWIDTH 960 0
DWIDTH 8 0
BBX 8 8 0 -2
BITMAP
e4
be
fa
a0
ee
a4
be
00
ENDCHAR
STARTCHAR 3951
ENCODING 14673
SWIDTH 960 0
DWIDTH 8 0
BBX 8 8 0 -2
BITMAP
10
fe
44
fe
ba
7c
44
00
ENDCHAR
STARTCHAR 3952
ENCODING 14674
SWIDTH 960 0
DWIDTH 8 0
BBX 8 8 0 -2
BITMAP
48
fe
a0
bc
f4
b4
b6
00
ENDCHAR
STARTCHAR 3953
ENCODING 14675
SWIDTH 960 0
DWIDTH 8 0
BBX 8 8 0 -2
BITMAP
28
fe
40
7c
00
54
96
00
ENDCHAR
STARTCHAR 3954
ENCODING 14676
SWIDTH 960 0
DWIDTH 8 0
BBX 8 8 0 -2
BITMAP
5c
80
7e
c4
44
44
4c
00
ENDCHAR
STARTCHAR 3955
ENCODING 14677
SWIDTH 960 0
DWIDTH 8 0
BBX 8 8 0 -2
BITMAP
5e
a8
56
fa
7a
52
6a
00
ENDCHAR
STARTCHAR 3956
ENCODING 14678
SWIDTH 960 0
DWIDTH 8 0
BBX 8 8 0 -2
BITMAP
94
fe
14
be
1c
fe
d4
00
ENDCHAR
STARTCHAR 3957
ENCODING 14679
SWIDTH 960 0
DWIDTH 8 0
BBX 8 8 0 -2
BITMAP
7c
10
fe
7c
44
7c
c6
00
ENDCHAR
STARTCHAR 3958
ENCODING 14680
SWIDTH 960 0
DWIDTH 8 0
BBX 8 8 0 -2
BITMAP
d4
fe
d4
fe
dc
3e
94
00
ENDCHAR
STARTCHAR 3959
ENCODING 14681
SWIDTH 960 0
DWIDTH 8 0
BBX 8 8 0 -2
BITMAP
2e
fa
5c
8a
5a
2c
d8
00
ENDCHAR
STARTCHAR 395a
ENCODING 14682
SWIDTH 960 0
DWIDTH 8 0
BBX 8 8 0 -2
BITMAP
ea
5c
c8
fe
d4
ee
c4
00
ENDCHAR
STARTCHAR 395b
ENCODING 14683
SWIDTH 960 0
DWIDTH 8 0
BBX 8 8 0 -2
BITMAP
44
be
f0
54
f4
6a
ce
00
ENDCHAR
STARTCHAR 395c
ENCODING 14684
SWIDTH 960 0
DWIDTH 8 0
BBX 8 8 0 -2
BITMAP
e4
5e
50
94
74
6a
0e
00
ENDCHAR
STARTCHAR 395d
ENCODING 14685
SWIDTH 960 0
DWIDTH 8 0
BBX 8 8 0 -2
BITMAP
7e
a2
f6
6a
f6
7e
e2
00
ENDCHAR
STARTCHAR 395e
ENCODING 14686
SWIDTH 960 0
DWIDTH 8 0
BBX 8 8 0 -2
BITMAP
ee
ee
92
aa
fe
aa
ba
00
ENDCHAR
STARTCHAR 395f
ENCODING 14687
SWIDTH 960 0
DWIDTH 8 0
BBX 8 8 0 -2
BITMAP
cc
d4
88
f6
dc
be
84
00
ENDCHAR
STARTCHAR 3960
ENCODING 14688
SWIDTH 960 0
DWIDTH 8 0
BBX 8 8 0 -2
BITMAP
1e
e8
5e
52
7e
c0
12
00
ENDCHAR
STARTCHAR 3961
ENCODING 14689
SWIDTH 960 0
DWIDTH 8 0
BBX 8 8 0 -2
BITMAP
0c
70
fe
38
d6
7c
7c
00
ENDCHAR
STARTCHAR 3962
ENCODING 14690
SWIDTH 960 0
DWIDTH 8 0
BBX 8 8 0 -2
BITMAP
10
fe
28
38
fe
aa
ba
00
ENDCHAR
STARTCHAR 3963
ENCODING 14691
SWIDTH 960 0
DWIDTH 8 0
BBX 8 8 0 -2
BITMAP
84
7e
ae
28
be
e2
96
00
ENDCHAR
STARTCHAR 3964
ENCODING 14692
SWIDTH 960 0
DWIDTH 8 0
BBX 8 8 0 -2
BITMAP
fa
8e
de
ae
da
fa
8a
00
ENDCHAR
STARTCHAR 3965
ENCODING 14693
SWIDTH 960 0
DWIDTH 8 0
BBX 8 8 0 -2
BITMAP
28
7e
2a
fa
2a
5a
f6
00
ENDCHAR
STARTCHAR 3966
ENCODING 14694
SWIDTH 960 0
DWIDTH 8 0
BBX 8 8 0 -2
BITMAP
38
28
fe
20
3c
04
1c
00
ENDCHAR
STARTCHAR 3967
ENCODING 14695
SWIDTH 960 0
DWIDTH 8 0
BBX 8 8 0 -2
BITMAP
10
28
de
00
7c
44
7c
00
ENDCHAR
STARTCHAR 3968
ENCODING 14696
SWIDTH 960 0
DWIDTH 8 0
BBX 8 8 0 -2
BITMAP
48
7e
d4
7e
5a
ec
1a
00
ENDCHAR
STARTCHAR 3969
ENCODING 14697
SWIDTH 960 0
DWIDTH 8 0
BBX 8 8 0 -2
BITMAP
4a
dc
48
7e
d8
6e
c2
00
ENDCHAR
STARTCHAR 396a
ENCODING 14698
SWIDTH 960 0
DWIDTH 8 0
BBX 8 8 0 -2
BITMAP
88
3e
94
7e
da
ac
9a
00
ENDCHAR
STARTCHAR 396b
ENCODING 14699
SWIDTH 960 0
DWIDTH 8 0
BBX 8 8 0 -2
BITMAP
10
fe
44
fe
da
2c
da
00
ENDCHAR
STARTCHAR 396c
ENCODING 14700
SWIDTH 960 0
DWIDTH 8 0
BBX 8 8 0 -2
BITMAP
10
7c
38
fe
6c
fe
24
00
ENDCHAR
STARTCHAR 396d
ENCODING 14701
SWIDTH 960 0
DWIDTH 8 0
BBX 8 8 0 -2
BITMAP
50
fe
56
6a
be
4a
be
00
ENDCHAR
STARTCHAR 396e
ENCODING 14702
SWIDTH 960 0
DWIDTH 8 0
BBX 8 8 0 -2
BITMAP
10
fe
7c
44
7c
2a
ce
00
ENDCHAR
STARTCHAR 396f
ENCODING 14703
SWIDTH 960 0
DWIDTH 8 0
BBX 8 8 0 -2
BITMAP
22
fa
4a
aa
52
22
d6
00
ENDCHAR
STARTCHAR 3970
ENCODING 14704
SWIDTH 960 0
DWIDTH 8 0
BBX 8 8 0 -2
BITMAP
50
7c
90
fe
00
7c
7c
00
ENDCHAR
STARTCHAR 3971
ENCODING 14705
SWIDTH 960 0
DWIDTH 8 0
BBX 8 8 0 -2
BITMAP
fe
ba
92
ba
96
ba
fe
00
ENDCHAR
STARTCHAR 3972
ENCODING 14706
SWIDTH 960 0
DWIDTH 8 0
BBX 8 8 0 -2
BITMAP
2e
fa
20
fe
aa
74
aa
00
ENDCHAR
STARTCHAR 3973
ENCODING 14707
SWIDTH 960 0
DWIDTH 8 0
BBX 8 8 0 -2
BITMAP
ec
4e
f4
fe
a0
ee
ee
00
ENDCHAR
STARTCHAR 3974
ENCODING 14708
SWIDTH 960 0
DWIDTH 8 0
BBX 8 8 0 -2
BITMAP
64
7e
ae
f8
0e
62
6a
00
ENDCHAR
STARTCHAR 3975
ENCODING 14709
SWIDTH 960 0
DWIDTH 8 0
BBX 8 8 0 -2
BITMAP
7c
54
7c
10
fe
00
aa
00
ENDCHAR
STARTCHAR 3976
ENCODING 14710
SWIDTH 960 0
DWIDTH 8 0
BBX 8 8 0 -2
BITMAP
b6
5c
a6
7c
a4
3c
da
00
ENDCHAR
STARTCHAR 3977
ENCODING 14711
SWIDTH 960 0
DWIDTH 8 0
BBX 8 8 0 -2
BITMAP
88
3e
ac
3c
a0
b4
de
00
ENDCHAR
STARTCHAR 3978
ENCODING 14712
SWIDTH 960 0
DWIDTH 8 0
BBX 8 8 0 -2
BITMAP
fe
ac
ec
a8
fe
ac
ba
00
ENDCHAR
STARTCHAR 3979
ENCODING 14713
SWIDTH 960 0
DWIDTH 8 0
BBX 8 8 0 -2
BITMAP
be
10
fc
f4
1c
d4
fa
00
ENDCHAR
STARTCHAR 397a
ENCODING 14714
SWIDTH 960 0
DWIDTH 8 0
BBX 8 8 0 -2
BITMAP
40
7e
aa
2a
54
ca
ba
00
ENDCHAR
STARTCHAR 397b
ENCODING 14715
SWIDTH 960 0
DWIDTH 8 0
BBX 8 8 0 -2
BITMAP
50
de
ea
4a
54
72
6e
00
ENDCHAR
STARTCHAR 397c
ENCODING 14716
SWIDTH 960 0
DWIDTH 8 0
BBX 8 8 0 -2
BITMAP
7c
4c
fe
c6
7c
44
4c
00
ENDCHAR
STARTCHAR 397d
ENCODING 14717
SWIDTH 960 0
DWIDTH 8 0
BBX 8 8 0 -2
BITMAP
a8
5e
d2
5e
d2
52
9e
00
ENDCHAR
STARTCHAR 397e
ENCODING 14718
SWIDTH 960 0
DWIDTH 8 0
BBX 8 8 0 -2
BITMAP
98
48
08
d4
62
40
be
00
ENDCHAR
STARTCHAR 3a21
ENCODING 14881
SWIDTH 960 0
DWIDTH 8 0
BBX 8 8 0 -2
BITMAP
28
28
ba
ac
a8
ba
ce
00
ENDCHAR
STARTCHAR 3a22
ENCODING 14882
SWIDTH 960 0
DWIDTH 8 0
BBX 8 8 0 -2
BITMAP
9e
a8
de
92
be
e0
12
00
ENDCHAR
STARTCHAR 3a23
ENCODING 14883
SWIDTH 960 0
DWIDTH 8 0
BBX 8 8 0 -2
BITMAP
10
28
de
00
7c
08
30
00
ENDCHAR
STARTCHAR 3a24
ENCODING 14884
SWIDTH 960 0
DWIDTH 8 0
BBX 8 8 0 -2
BITMAP
fe
92
fe
ba
d6
92
fe
00
ENDCHAR
STARTCHAR 3a25
ENCODING 14885
SWIDTH 960 0
DWIDTH 8 0
BBX 8 8 0 -2
BITMAP
48
7e
ea
7e
6a
fe
08
00
ENDCHAR
STARTCHAR 3a26
ENCODING 14886
SWIDTH 960 0
DWIDTH 8 0
BBX 8 8 0 -2
BITMAP
2c
dc
6a
ac
6a
10
fe
00
ENDCHAR
STARTCHAR 3a27
ENCODING 14887
SWIDTH 960 0
DWIDTH 8 0
BBX 8 8 0 -2
BITMAP
5e
54
fe
b4
da
6c
8c
00
ENDCHAR
STARTCHAR 3a28
ENCODING 14888
SWIDTH 960 0
DWIDTH 8 0
BBX 8 8 0 -2
BITMAP
5e
f2
de
52
5e
54
5a
00
ENDCHAR
STARTCHAR 3a29
ENCODING 14889
SWIDTH 960 0
DWIDTH 8 0
BBX 8 8 0 -2
BITMAP
2c
dc
6a
ac
6a
c0
ba
00
ENDCHAR
STARTCHAR 3a2a
ENCODING 14890
SWIDTH 960 0
DWIDTH 8 0
BBX 8 8 0 -2
BITMAP
0c
70
7c
48
e6
7c
7c
00
ENDCHAR
STARTCHAR 3a2b
ENCODING 14891
SWIDTH 960 0
DWIDTH 8 0
BBX 8 8 0 -2
BITMAP
7c
44
7c
48
6e
48
ee
00
ENDCHAR
STARTCHAR 3a2c
ENCODING 14892
SWIDTH 960 0
DWIDTH 8 0
BBX 8 8 0 -2
BITMAP
5e
f2
5e
f2
de
54
5a
00
ENDCHAR
STARTCHAR 3a2d
ENCODING 14893
SWIDTH 960 0
DWIDTH 8 0
BBX 8 8 0 -2
BITMAP
7e
ea
7e
ea
fe
6a
7e
00
ENDCHAR
STARTCHAR 3a2e
ENCODING 14894
SWIDTH 960 0
DWIDTH 8 0
BBX 8 8 0 -2
BITMAP
be
22
be
24
b6
a4
b6
00
ENDCHAR
STARTCHAR 3a2f
ENCODING 14895
SWIDTH 960 0
DWIDTH 8 0
BBX 8 8 0 -2
BITMAP
08
7e
dc
54
dc
54
9a
00
ENDCHAR
STARTCHAR 3a30
ENCODING 14896
SWIDTH 960 0
DWIDTH 8 0
BBX 8 8 0 -2
BITMAP
54
be
54
9c
54
d4
5c
00
ENDCHAR
STARTCHAR 3a31
ENCODING 14897
SWIDTH 960 0
DWIDTH 8 0
BBX 8 8 0 -2
BITMAP
7c
44
7c
44
7c
48
e6
00
ENDCHAR
STARTCHAR 3a32
ENCODING 14898
SWIDTH 960 0
DWIDTH 8 0
BBX 8 8 0 -2
BITMAP
e8
1e
fa
5e
be
ec
16
00
ENDCHAR
STARTCHAR 3a33
ENCODING 14899
SWIDTH 960 0
DWIDTH 8 0
BBX 8 8 0 -2
BITMAP
24
b6
a4
f6
7c
00
fe
00
ENDCHAR
STARTCHAR 3a34
ENCODING 14900
SWIDTH 960 0
DWIDTH 8 0
BBX 8 8 0 -2
BITMAP
28
7e
d0
5e
54
64
5e
00
ENDCHAR
STARTCHAR 3a35
ENCODING 14901
SWIDTH 960 0
DWIDTH 8 0
BBX 8 8 0 -2
BITMAP
7c
14
44
28
10
28
c6
00
ENDCHAR
STARTCHAR 3a36
ENCODING 14902
SWIDTH 960 0
DWIDTH 8 0
BBX 8 8 0 -2
BITMAP
12
fe
d4
e6
dc
28
16
00
ENDCHAR
STARTCHAR 3a37
ENCODING 14903
SWIDTH 960 0
DWIDTH 8 0
BBX 8 8 0 -2
BITMAP
54
7e
48
fe
de
d4
2e
00
ENDCHAR
STARTCHAR 3a38
ENCODING 14904
SWIDTH 960 0
DWIDTH 8 0
BBX 8 8 0 -2
BITMAP
20
fe
20
3c
48
88
7e
00
ENDCHAR
STARTCHAR 3a39
ENCODING 14905
SWIDTH 960 0
DWIDTH 8 0
BBX 8 8 0 -2
BITMAP
24
fe
10
fe
5c
48
be
00
ENDCHAR
STARTCHAR 3a3a
ENCODING 14906
SWIDTH 960 0
DWIDTH 8 0
BBX 8 8 0 -2
BITMAP
10
fe
38
d6
7c
44
fe
00
ENDCHAR
STARTCHAR 3a3b
ENCODING 14907
SWIDTH 960 0
DWIDTH 8 0
BBX 8 8 0 -2
BITMAP
88
1c
9a
28
8a
84
98
00
ENDCHAR
STARTCHAR 3a3c
ENCODING 14908
SWIDTH 960 0
DWIDTH 8 0
BBX 8 8 0 -2
BITMAP
d4
7e
48
fe
5e
d4
2e
00
ENDCHAR
STARTCHAR 3a3d
ENCODING 14909
SWIDTH 960 0
DWIDTH 8 0
BBX 8 8 0 -2
BITMAP
e8
5c
5a
88
6a
64
18
00
ENDCHAR
STARTCHAR 3a3e
ENCODING 14910
SWIDTH 960 0
DWIDTH 8 0
BBX 8 8 0 -2
BITMAP
50
de
28
ce
08
ce
c8
00
ENDCHAR
STARTCHAR 3a3f
ENCODING 14911
SWIDTH 960 0
DWIDTH 8 0
BBX 8 8 0 -2
BITMAP
56
a4
fe
52
fe
60
d2
00
ENDCHAR
STARTCHAR 3a40
ENCODING 14912
SWIDTH 960 0
DWIDTH 8 0
BBX 8 8 0 -2
BITMAP
88
2a
8c
30
fe
68
b6
00
ENDCHAR
STARTCHAR 3a41
ENCODING 14913
SWIDTH 960 0
DWIDTH 8 0
BBX 8 8 0 -2
BITMAP
54
54
ba
10
7c
10
fe
00
ENDCHAR
STARTCHAR 3a42
ENCODING 14914
SWIDTH 960 0
DWIDTH 8 0
BBX 8 8 0 -2
BITMAP
08
7e
54
6a
5c
48
be
00
ENDCHAR
STARTCHAR 3a43
ENCODING 14915
SWIDTH 960 0
DWIDTH 8 0
BBX 8 8 0 -2
BITMAP
54
d4
6a
48
dc
48
fe
00
ENDCHAR
STARTCHAR 3a44
ENCODING 14916
SWIDTH 960 0
DWIDTH 8 0
BBX 8 8 0 -2
BITMAP
28
5c
c8
7e
5c
5c
62
00
ENDCHAR
STARTCHAR 3a45
ENCODING 14917
SWIDTH 960 0
DWIDTH 8 0
BBX 8 8 0 -2
BITMAP
2a
7e
d4
5e
74
54
5e
00
ENDCHAR
STARTCHAR 3a46
ENCODING 14918
SWIDTH 960 0
DWIDTH 8 0
BBX 8 8 0 -2
BITMAP
fe
54
7c
54
fe
44
4c
00
ENDCHAR
STARTCHAR 3a47
ENCODING 14919
SWIDTH 960 0
DWIDTH 8 0
BBX 8 8 0 -2
BITMAP
7c
44
fe
52
5a
f4
1a
00
ENDCHAR
STARTCHAR 3a48
ENCODING 14920
SWIDTH 960 0
DWIDTH 8 0
BBX 8 8 0 -2
BITMAP
28
7a
28
fe
06
64
6a
00
ENDCHAR
STARTCHAR 3a49
ENCODING 14921
SWIDTH 960 0
DWIDTH 8 0
BBX 8 8 0 -2
BITMAP
10
fe
aa
7c
fe
54
ba
00
ENDCHAR
STARTCHAR 3a4a
ENCODING 14922
SWIDTH 960 0
DWIDTH 8 0
BBX 8 8 0 -2
BITMAP
10
fe
14
7c
fe
28
f6
00
ENDCHAR
STARTCHAR 3a4b
ENCODING 14923
SWIDTH 960 0
DWIDTH 8 0
BBX 8 8 0 -2
BITMAP
10
fe
92
7c
28
fe
10
00
ENDCHAR
STARTCHAR 3a4c
ENCODING 14924
SWIDTH 960 0
DWIDTH 8 0
BBX 8 8 0 -2
BITMAP
1a
e4
52
24
f8
72
ac
00
ENDCHAR
STARTCHAR 3a4d
ENCODING 14925
SWIDTH 960 0
DWIDTH 8 0
BBX 8 8 0 -2
BITMAP
08
fe
08
0c
18
e8
18
00
ENDCHAR
STARTCHAR 3a4e
ENCODING 14926
SWIDTH 960 0
DWIDTH 8 0
BBX 8 8 0 -2
BITMAP
46
f8
6a
44
fe
5c
ea
00
ENDCHAR
STARTCHAR 3a4f
ENCODING 14927
SWIDTH 960 0
DWIDTH 8 0
BBX 8 8 0 -2
BITMAP
28
7a
28
fe
26
74
aa
00
ENDCHAR
STARTCHAR 3a50
ENCODING 14928
SWIDTH 960 0
DWIDTH 8 0
BBX 8 8 0 -2
BITMAP
10
5c
50
fe
46
74
aa
00
ENDCHAR
STARTCHAR 3a51
ENCODING 14929
SWIDTH 960 0
DWIDTH 8 0
BBX 8 8 0 -2
BITMAP
88
3e
94
08
b6
9c
a4
00
ENDCHAR
STARTCHAR 3a52
ENCODING 14930
SWIDTH 960 0
DWIDTH 8 0
BBX 8 8 0 -2
BITMAP
4a
94
4a
10
54
28
c6
00
ENDCHAR
STARTCHAR 3a53
ENCODING 14931
SWIDTH 960 0
DWIDTH 8 0
BBX 8 8 0 -2
BITMAP
0e
f0
54
08
fe
38
d6
00
ENDCHAR
STARTCHAR 3a54
ENCODING 14932
SWIDTH 960 0
DWIDTH 8 0
BBX 8 8 0 -2
BITMAP
7e
7e
44
76
5c
7e
84
00
ENDCHAR
STARTCHAR 3a55
ENCODING 14933
SWIDTH 960 0
DWIDTH 8 0
BBX 8 8 0 -2
BITMAP
e8
5c
4c
96
68
7e
08
00
ENDCHAR
STARTCHAR 3a56
ENCODING 14934
SWIDTH 960 0
DWIDTH 8 0
BBX 8 8 0 -2
BITMAP
24
b6
a4
fe
40
bc
3c
00
ENDCHAR
STARTCHAR 3a57
ENCODING 14935
SWIDTH 960 0
DWIDTH 8 0
BBX 8 8 0 -2
BITMAP
76
52
ac
44
ba
54
b2
00
ENDCHAR
STARTCHAR 3a58
ENCODING 14936
SWIDTH 960 0
DWIDTH 8 0
BBX 8 8 0 -2
BITMAP
10
fe
38
ee
54
7c
94
00
ENDCHAR
STARTCHAR 3a59
ENCODING 14937
SWIDTH 960 0
DWIDTH 8 0
BBX 8 8 0 -2
BITMAP
5e
96
56
be
56
f6
5e
00
ENDCHAR
STARTCHAR 3a5a
ENCODING 14938
SWIDTH 960 0
DWIDTH 8 0
BBX 8 8 0 -2
BITMAP
28
fe
54
08
fe
38
d6
00
ENDCHAR
STARTCHAR 3a5b
ENCODING 14939
SWIDTH 960 0
DWIDTH 8 0
BBX 8 8 0 -2
BITMAP
28
7a
28
fe
66
d4
6a
00
ENDCHAR
STARTCHAR 3a5c
ENCODING 14940
SWIDTH 960 0
DWIDTH 8 0
BBX 8 8 0 -2
BITMAP
28
7a
28
fe
66
f4
2a
00
ENDCHAR
STARTCHAR 3a5d
ENCODING 14941
SWIDTH 960 0
DWIDTH 8 0
BBX 8 8 0 -2
BITMAP
de
ea
94
e2
dc
88
aa
00
ENDCHAR
STARTCHAR 3a5e
ENCODING 14942
SWIDTH 960 0
DWIDTH 8 0
BBX 8 8 0 -2
BITMAP
22
fa
5a
2a
da
72
96
00
ENDCHAR
STARTCHAR 3a5f
ENCODING 14943
SWIDTH 960 0
DWIDTH 8 0
BBX 8 8 0 -2
BITMAP
20
fe
28
5c
c8
48
7e
00
ENDCHAR
STARTCHAR 3a60
ENCODING 14944
SWIDTH 960 0
DWIDTH 8 0
BBX 8 8 0 -2
BITMAP
44
fe
44
c6
cc
74
4c
00
ENDCHAR
STARTCHAR 3a61
ENCODING 14945
SWIDTH 960 0
DWIDTH 8 0
BBX 8 8 0 -2
BITMAP
fe
fe
28
ee
28
ee
48
00
ENDCHAR
STARTCHAR 3a62
ENCODING 14946
SWIDTH 960 0
DWIDTH 8 0
BBX 8 8 0 -2
BITMAP
e4
be
e4
a6
ec
14
ac
00
ENDCHAR
STARTCHAR 3a63
ENCODING 14947
SWIDTH 960 0
DWIDTH 8 0
BBX 8 8 0 -2
BITMAP
9e
14
14
3e
8c
b4
8c
00
ENDCHAR
STARTCHAR 3a64
ENCODING 14948
SWIDTH 960 0
DWIDTH 8 0
BBX 8 8 0 -2
BITMAP
5e
50
fe
5a
5a
e4
1a
00
ENDCHAR
STARTCHAR 3a65
ENCODING 14949
SWIDTH 960 0
DWIDTH 8 0
BBX 8 8 0 -2
BITMAP
de
d0
9e
da
da
a4
9a
00
ENDCHAR
STARTCHAR 3a66
ENCODING 14950
SWIDTH 960 0
DWIDTH 8 0
BBX 8 8 0 -2
BITMAP
7e
6a
fe
6a
5c
f6
14
00
ENDCHAR
STARTCHAR 3a67
ENCODING 14951
SWIDTH 960 0
DWIDTH 8 0
BBX 8 8 0 -2
BITMAP
54
fe
5a
ee
da
5e
54
00
ENDCHAR
STARTCHAR 3a68
ENCODING 14952
SWIDTH 960 0
DWIDTH 8 0
BBX 8 8 0 -2
BITMAP
64
18
24
fe
64
bc
24
00
ENDCHAR
STARTCHAR 3a69
ENCODING 14953
SWIDTH 960 0
DWIDTH 8 0
BBX 8 8 0 -2
BITMAP
14
e0
be
a8
fe
08
36
00
ENDCHAR
STARTCHAR 3a6a
ENCODING 14954
SWIDTH 960 0
DWIDTH 8 0
BBX 8 8 0 -2
BITMAP
48
7e
48
d4
fe
c4
14
00
ENDCHAR
STARTCHAR 3a6b
ENCODING 14955
SWIDTH 960 0
DWIDTH 8 0
BBX 8 8 0 -2
BITMAP
48
7e
c8
54
7e
c4
14
00
ENDCHAR
STARTCHAR 3a6c
ENCODING 14956
SWIDTH 960 0
DWIDTH 8 0
BBX 8 8 0 -2
BITMAP
e8
5e
48
94
7e
64
14
00
ENDCHAR
STARTCHAR 3a6d
ENCODING 14957
SWIDTH 960 0
DWIDTH 8 0
BBX 8 8 0 -2
BITMAP
ec
b4
5e
ec
3e
02
aa
00
ENDCHAR
STARTCHAR 3a6e
ENCODING 14958
SWIDTH 960 0
DWIDTH 8 0
BBX 8 8 0 -2
BITMAP
28
4e
d8
4e
48
4e
48
00
ENDCHAR
STARTCHAR 3a6f
ENCODING 14959
SWIDTH 960 0
DWIDTH 8 0
BBX 8 8 0 -2
BITMAP
b2
2a
fa
9a
f2
92
b6
00
ENDCHAR
STARTCHAR 3a70
ENCODING 14960
SWIDTH 960 0
DWIDTH 8 0
BBX 8 8 0 -2
BITMAP
08
ee
b8
ae
e8
0e
08
00
ENDCHAR
STARTCHAR 3a71
ENCODING 14961
SWIDTH 960 0
DWIDTH 8 0
BBX 8 8 0 -2
BITMAP
48
fe
76
50
dc
6e
c8
00
ENDCHAR
STARTCHAR 3a72
ENCODING 14962
SWIDTH 960 0
DWIDTH 8 0
BBX 8 8 0 -2
BITMAP
08
ee
b8
ee
a8
ee
08
00
ENDCHAR
STARTCHAR 3a73
ENCODING 14963
SWIDTH 960 0
DWIDTH 8 0
BBX 8 8 0 -2
BITMAP
5e
fa
2e
aa
fe
4a
96
00
ENDCHAR
STARTCHAR 3a74
ENCODING 14964
SWIDTH 960 0
DWIDTH 8 0
BBX 8 8 0 -2
BITMAP
5e
da
5a
fe
da
5a
52
00
ENDCHAR
STARTCHAR 3a75
ENCODING 14965
SWIDTH 960 0
DWIDTH 8 0
BBX 8 8 0 -2
BITMAP
10
fe
aa
4c
78
9e
10
00
ENDCHAR
STARTCHAR 3a76
ENCODING 14966
SWIDTH 960 0
DWIDTH 8 0
BBX 8 8 0 -2
BITMAP
48
6e
b4
fe
92
38
d6
00
ENDCHAR
STARTCHAR 3a77
ENCODING 14967
SWIDTH 960 0
DWIDTH 8 0
BBX 8 8 0 -2
BITMAP
10
7c
fe
aa
74
10
92
00
ENDCHAR
STARTCHAR 3a78
ENCODING 14968
SWIDTH 960 0
DWIDTH 8 0
BBX 8 8 0 -2
BITMAP
54
be
d4
7e
dc
54
dc
00
ENDCHAR
STARTCHAR 3a79
ENCODING 14969
SWIDTH 960 0
DWIDTH 8 0
BBX 8 8 0 -2
BITMAP
6a
c4
48
fe
d4
4c
72
00
ENDCHAR
STARTCHAR 3a7a
ENCODING 14970
SWIDTH 960 0
DWIDTH 8 0
BBX 8 8 0 -2
BITMAP
64
ae
64
7e
6e
04
ae
00
ENDCHAR
STARTCHAR 3a7b
ENCODING 14971
SWIDTH 960 0
DWIDTH 8 0
BBX 8 8 0 -2
BITMAP
48
6e
b4
2c
fe
2c
3e
00
ENDCHAR
STARTCHAR 3a7c
ENCODING 14972
SWIDTH 960 0
DWIDTH 8 0
BBX 8 8 0 -2
BITMAP
68
6a
fc
28
7a
6e
9e
00
ENDCHAR
STARTCHAR 3a7d
ENCODING 14973
SWIDTH 960 0
DWIDTH 8 0
BBX 8 8 0 -2
BITMAP
7e
6a
6a
fe
6a
6a
42
00
ENDCHAR
STARTCHAR 3a7e
ENCODING 14974
SWIDTH 960 0
DWIDTH 8 0
BBX 8 8 0 -2
BITMAP
7a
4a
7a
52
7a
5a
96
00
ENDCHAR
STARTCHAR 3b21
ENCODING 15137
SWIDTH 960 0
DWIDTH 8 0
BBX 8 8 0 -2
BITMAP
10
fe
ea
44
ba
54
b2
00
ENDCHAR
STARTCHAR 3b22
ENCODING 15138
SWIDTH 960 0
DWIDTH 8 0
BBX 8 8 0 -2
BITMAP
4a
f4
4a
6e
da
44
d8
00
ENDCHAR
STARTCHAR 3b23
ENCODING 15139
SWIDTH 960 0
DWIDTH 8 0
BBX 8 8 0 -2
BITMAP
5c
d4
7e
5e
da
7c
ca
00
ENDCHAR
STARTCHAR 3b24
ENCODING 15140
SWIDTH 960 0
DWIDTH 8 0
BBX 8 8 0 -2
BITMAP
48
fe
6a
54
e2
5c
ea
00
ENDCHAR
STARTCHAR 3b25
ENCODING 15141
SWIDTH 960 0
DWIDTH 8 0
BBX 8 8 0 -2
BITMAP
28
f8
28
78
68
aa
2e
00
ENDCHAR
STARTCHAR 3b26
ENCODING 15142
SWIDTH 960 0
DWIDTH 8 0
BBX 8 8 0 -2
BITMAP
5e
2a
d0
2e
fa
74
aa
00
ENDCHAR
STARTCHAR 3b27
ENCODING 15143
SWIDTH 960 0
DWIDTH 8 0
BBX 8 8 0 -2
BITMAP
28
fe
cc
9e
dc
d4
ae
00
ENDCHAR
STARTCHAR 3b28
ENCODING 15144
SWIDTH 960 0
DWIDTH 8 0
BBX 8 8 0 -2
BITMAP
4a
ee
6c
be
ec
7c
ae
00
ENDCHAR
STARTCHAR 3b29
ENCODING 15145
SWIDTH 960 0
DWIDTH 8 0
BBX 8 8 0 -2
BITMAP
10
7c
7c
d6
10
fe
10
00
ENDCHAR
STARTCHAR 3b2a
ENCODING 15146
SWIDTH 960 0
DWIDTH 8 0
BBX 8 8 0 -2
BITMAP
64
ae
64
7e
6a
0e
aa
00
ENDCHAR
STARTCHAR 3b2b
ENCODING 15147
SWIDTH 960 0
DWIDTH 8 0
BBX 8 8 0 -2
BITMAP
7a
ee
7e
56
da
6a
ea
00
ENDCHAR
STARTCHAR 3b2c
ENCODING 15148
SWIDTH 960 0
DWIDTH 8 0
BBX 8 8 0 -2
BITMAP
44
ae
e4
5e
ea
6e
ca
00
ENDCHAR
STARTCHAR 3b2d
ENCODING 15149
SWIDTH 960 0
DWIDTH 8 0
BBX 8 8 0 -2
BITMAP
64
be
6a
70
6a
04
ba
00
ENDCHAR
STARTCHAR 3b2e
ENCODING 15150
SWIDTH 960 0
DWIDTH 8 0
BBX 8 8 0 -2
BITMAP
00
7c
54
54
54
54
fe
00
ENDCHAR
STARTCHAR 3b2f
ENCODING 15151
SWIDTH 960 0
DWIDTH 8 0
BBX 8 8 0 -2
BITMAP
3e
d4
be
f6
b6
e2
3e
00
ENDCHAR
STARTCHAR 3b30
ENCODING 15152
SWIDTH 960 0
DWIDTH 8 0
BBX 8 8 0 -2
BITMAP
00
7c
00
38
00
00
fe
00
ENDCHAR
STARTCHAR 3b31
ENCODING 15153
SWIDTH 960 0
DWIDTH 8 0
BBX 8 8 0 -2
BITMAP
10
28
d6
38
54
fe
10
00
ENDCHAR
STARTCHAR 3b32
ENCODING 15154
SWIDTH 960 0
DWIDTH 8 0
BBX 8 8 0 -2
BITMAP
28
74
fe
54
a2
08
70
00
ENDCHAR
STARTCHAR 3b33
ENCODING 15155
SWIDTH 960 0
DWIDTH 8 0
BBX 8 8 0 -2
BITMAP
10
10
92
92
92
92
fe
00
ENDCHAR
STARTCHAR 3b34
ENCODING 15156
SWIDTH 960 0
DWIDTH 8 0
BBX 8 8 0 -2
BITMAP
48
d4
fa
54
6a
44
58
00
ENDCHAR
STARTCHAR 3b35
ENCODING 15157
SWIDTH 960 0
DWIDTH 8 0
BBX 8 8 0 -2
BITMAP
54
fe
5a
7a
da
5c
da
00
ENDCHAR
STARTCHAR 3b36
ENCODING 15158
SWIDTH 960 0
DWIDTH 8 0
BBX 8 8 0 -2
BITMAP
54
f6
5a
fa
5a
74
5a
00
ENDCHAR
STARTCHAR 3b37
ENCODING 15159
SWIDTH 960 0
DWIDTH 8 0
BBX 8 8 0 -2
BITMAP
4a
fe
48
fc
ca
44
5a
00
ENDCHAR
STARTCHAR 3b38
ENCODING 15160
SWIDTH 960 0
DWIDTH 8 0
BBX 8 8 0 -2
BITMAP
58
56
ea
d4
6a
5c
aa
00
ENDCHAR
STARTCHAR 3b39
ENCODING 15161
SWIDTH 960 0
DWIDTH 8 0
BBX 8 8 0 -2
BITMAP
de
5a
5a
fe
5a
da
12
00
ENDCHAR
STARTCHAR 3b3a
ENCODING 15162
SWIDTH 960 0
DWIDTH 8 0
BBX 8 8 0 -2
BITMAP
10
fe
24
7e
5c
48
be
00
ENDCHAR
STARTCHAR 3b3b
ENCODING 15163
SWIDTH 960 0
DWIDTH 8 0
BBX 8 8 0 -2
BITMAP
48
6e
b4
7c
44
fe
48
00
ENDCHAR
STARTCHAR 3b3c
ENCODING 15164
SWIDTH 960 0
DWIDTH 8 0
BBX 8 8 0 -2
BITMAP
48
6e
bc
38
e6
38
92
00
ENDCHAR
STARTCHAR 3b3d
ENCODING 15165
SWIDTH 960 0
DWIDTH 8 0
BBX 8 8 0 -2
BITMAP
fe
10
ee
54
7c
14
fa
00
ENDCHAR
STARTCHAR 3b3e
ENCODING 15166
SWIDTH 960 0
DWIDTH 8 0
BBX 8 8 0 -2
BITMAP
94
fe
14
aa
1c
dc
e2
00
ENDCHAR
STARTCHAR 3b3f
ENCODING 15167
SWIDTH 960 0
DWIDTH 8 0
BBX 8 8 0 -2
BITMAP
44
ee
44
aa
7c
7c
c6
00
ENDCHAR
STARTCHAR 3b40
ENCODING 15168
SWIDTH 960 0
DWIDTH 8 0
BBX 8 8 0 -2
BITMAP
ea
5e
ea
f2
ac
f4
ea
00
ENDCHAR
STARTCHAR 3b41
ENCODING 15169
SWIDTH 960 0
DWIDTH 8 0
BBX 8 8 0 -2
BITMAP
2e
3a
d4
3a
f6
28
76
00
ENDCHAR
STARTCHAR 3b42
ENCODING 15170
SWIDTH 960 0
DWIDTH 8 0
BBX 8 8 0 -2
BITMAP
e4
58
f0
fe
54
e4
44
00
ENDCHAR
STARTCHAR 3b43
ENCODING 15171
SWIDTH 960 0
DWIDTH 8 0
BBX 8 8 0 -2
BITMAP
2e
f8
6e
f4
24
7c
7c
00
ENDCHAR
STARTCHAR 3b44
ENCODING 15172
SWIDTH 960 0
DWIDTH 8 0
BBX 8 8 0 -2
BITMAP
ea
5e
68
bc
6a
44
9a
00
ENDCHAR
STARTCHAR 3b45
ENCODING 15173
SWIDTH 960 0
DWIDTH 8 0
BBX 8 8 0 -2
BITMAP
28
48
fe
48
48
48
5c
00
ENDCHAR
STARTCHAR 3b46
ENCODING 15174
SWIDTH 960 0
DWIDTH 8 0
BBX 8 8 0 -2
BITMAP
3c
44
c8
7e
48
48
58
00
ENDCHAR
STARTCHAR 3b47
ENCODING 15175
SWIDTH 960 0
DWIDTH 8 0
BBX 8 8 0 -2
BITMAP
3e
42
da
42
5a
5a
46
00
ENDCHAR
STARTCHAR 3b48
ENCODING 15176
SWIDTH 960 0
DWIDTH 8 0
BBX 8 8 0 -2
BITMAP
28
7e
da
5e
78
48
76
00
ENDCHAR
STARTCHAR 3b49
ENCODING 15177
SWIDTH 960 0
DWIDTH 8 0
BBX 8 8 0 -2
BITMAP
22
fa
22
fa
aa
72
aa
00
ENDCHAR
STARTCHAR 3b4a
ENCODING 15178
SWIDTH 960 0
DWIDTH 8 0
BBX 8 8 0 -2
BITMAP
fe
02
7a
02
7a
7a
06
00
ENDCHAR
STARTCHAR 3b4b
ENCODING 15179
SWIDTH 960 0
DWIDTH 8 0
BBX 8 8 0 -2
BITMAP
10
7c
54
7c
30
10
ee
00
ENDCHAR
STARTCHAR 3b4c
ENCODING 15180
SWIDTH 960 0
DWIDTH 8 0
BBX 8 8 0 -2
BITMAP
6e
62
0e
f2
fe
de
92
00
ENDCHAR
STARTCHAR 3b4d
ENCODING 15181
SWIDTH 960 0
DWIDTH 8 0
BBX 8 8 0 -2
BITMAP
fe
aa
aa
ae
c2
82
fe
00
ENDCHAR
STARTCHAR 3b4e
ENCODING 15182
SWIDTH 960 0
DWIDTH 8 0
BBX 8 8 0 -2
BITMAP
10
10
fe
10
10
10
7c
00
ENDCHAR
STARTCHAR 3b4f
ENCODING 15183
SWIDTH 960 0
DWIDTH 8 0
BBX 8 8 0 -2
BITMAP
24
24
fa
5e
60
3e
ce
00
ENDCHAR
STARTCHAR 3b50
ENCODING 15184
SWIDTH 960 0
DWIDTH 8 0
BBX 8 8 0 -2
BITMAP
44
5e
e4
be
d6
76
84
00
ENDCHAR
STARTCHAR 3b51
ENCODING 15185
SWIDTH 960 0
DWIDTH 8 0
BBX 8 8 0 -2
BITMAP
90
1e
aa
14
fe
28
f6
00
ENDCHAR
STARTCHAR 3b52
ENCODING 15186
SWIDTH 960 0
DWIDTH 8 0
BBX 8 8 0 -2
BITMAP
7c
08
10
fe
10
10
30
00
ENDCHAR
STARTCHAR 3b53
ENCODING 15187
SWIDTH 960 0
DWIDTH 8 0
BBX 8 8 0 -2
BITMAP
7e
42
7e
5c
6e
54
a6
00
ENDCHAR
STARTCHAR 3b54
ENCODING 15188
SWIDTH 960 0
DWIDTH 8 0
BBX 8 8 0 -2
BITMAP
10
fe
10
7c
54
54
10
00
ENDCHAR
STARTCHAR 3b55
ENCODING 15189
SWIDTH 960 0
DWIDTH 8 0
BBX 8 8 0 -2
BITMAP
5e
e8
fe
aa
ea
ea
08
00
ENDCHAR
STARTCHAR 3b56
ENCODING 15190
SWIDTH 960 0
DWIDTH 8 0
BBX 8 8 0 -2
BITMAP
10
fe
10
7c
00
ca
ba
00
ENDCHAR
STARTCHAR 3b57
ENCODING 15191
SWIDTH 960 0
DWIDTH 8 0
BBX 8 8 0 -2
BITMAP
7c
54
7c
54
7c
ca
ba
00
ENDCHAR
STARTCHAR 3b58
ENCODING 15192
SWIDTH 960 0
DWIDTH 8 0
BBX 8 8 0 -2
BITMAP
52
dc
52
5e
c0
5e
de
00
ENDCHAR
STARTCHAR 3b59
ENCODING 15193
SWIDTH 960 0
DWIDTH 8 0
BBX 8 8 0 -2
BITMAP
10
fe
10
78
28
10
ee
00
ENDCHAR
STARTCHAR 3b5a
ENCODING 15194
SWIDTH 960 0
DWIDTH 8 0
BBX 8 8 0 -2
BITMAP
e8
2e
5a
6a
ca
44
da
00
ENDCHAR
STARTCHAR 3b5b
ENCODING 15195
SWIDTH 960 0
DWIDTH 8 0
BBX 8 8 0 -2
BITMAP
52
fc
58
7e
fa
0a
92
00
ENDCHAR
STARTCHAR 3b5c
ENCODING 15196
SWIDTH 960 0
DWIDTH 8 0
BBX 8 8 0 -2
BITMAP
48
ee
58
6e
7a
a8
ae
00
ENDCHAR
STARTCHAR 3b5d
ENCODING 15197
SWIDTH 960 0
DWIDTH 8 0
BBX 8 8 0 -2
BITMAP
8c
f0
82
7e
7c
44
7c
00
ENDCHAR
STARTCHAR 3b5e
ENCODING 15198
SWIDTH 960 0
DWIDTH 8 0
BBX 8 8 0 -2
BITMAP
48
fe
48
fc
d4
48
76
00
ENDCHAR
STARTCHAR 3b5f
ENCODING 15199
SWIDTH 960 0
DWIDTH 8 0
BBX 8 8 0 -2
BITMAP
10
10
5c
50
50
50
fe
00
ENDCHAR
STARTCHAR 3b60
ENCODING 15200
SWIDTH 960 0
DWIDTH 8 0
BBX 8 8 0 -2
BITMAP
fe
48
6a
ac
68
4a
8e
00
ENDCHAR
STARTCHAR 3b61
ENCODING 15201
SWIDTH 960 0
DWIDTH 8 0
BBX 8 8 0 -2
BITMAP
0c
70
50
7e
48
44
e2
00
ENDCHAR
STARTCHAR 3b62
ENCODING 15202
SWIDTH 960 0
DWIDTH 8 0
BBX 8 8 0 -2
BITMAP
ae
74
be
6e
be
34
c4
00
ENDCHAR
STARTCHAR 3b63
ENCODING 15203
SWIDTH 960 0
DWIDTH 8 0
BBX 8 8 0 -2
BITMAP
44
e4
36
54
f4
54
5e
00
ENDCHAR
STARTCHAR 3b64
ENCODING 15204
SWIDTH 960 0
DWIDTH 8 0
BBX 8 8 0 -2
BITMAP
74
24
f4
24
78
aa
2e
00
ENDCHAR
STARTCHAR 3b65
ENCODING 15205
SWIDTH 960 0
DWIDTH 8 0
BBX 8 8 0 -2
BITMAP
10
64
18
24
fa
10
92
00
ENDCHAR
STARTCHAR 3b66
ENCODING 15206
SWIDTH 960 0
DWIDTH 8 0
BBX 8 8 0 -2
BITMAP
42
9c
54
be
54
f4
5a
00
ENDCHAR
STARTCHAR 3b67
ENCODING 15207
SWIDTH 960 0
DWIDTH 8 0
BBX 8 8 0 -2
BITMAP
24
b6
a4
f6
7a
10
92
00
ENDCHAR
STARTCHAR 3b68
ENCODING 15208
SWIDTH 960 0
DWIDTH 8 0
BBX 8 8 0 -2
BITMAP
e4
be
e4
ae
ea
a4
ba
00
ENDCHAR
STARTCHAR 3b69
ENCODING 15209
SWIDTH 960 0
DWIDTH 8 0
BBX 8 8 0 -2
BITMAP
ea
ac
ea
ae
e0
ae
ae
00
ENDCHAR
STARTCHAR 3b6a
ENCODING 15210
SWIDTH 960 0
DWIDTH 8 0
BBX 8 8 0 -2
BITMAP
fe
28
74
10
7c
10
fe
00
ENDCHAR
STARTCHAR 3b6b
ENCODING 15211
SWIDTH 960 0
DWIDTH 8 0
BBX 8 8 0 -2
BITMAP
5e
f2
3e
52
fe
4c
56
00
ENDCHAR
STARTCHAR 3b6c
ENCODING 15212
SWIDTH 960 0
DWIDTH 8 0
BBX 8 8 0 -2
BITMAP
5e
e2
1a
c2
1a
da
c6
00
ENDCHAR
STARTCHAR 3b6d
ENCODING 15213
SWIDTH 960 0
DWIDTH 8 0
BBX 8 8 0 -2
BITMAP
48
dc
08
be
04
fe
d4
00
ENDCHAR
STARTCHAR 3b6e
ENCODING 15214
SWIDTH 960 0
DWIDTH 8 0
BBX 8 8 0 -2
BITMAP
4a
c8
3e
c4
3c
d4
fa
00
ENDCHAR
STARTCHAR 3b6f
ENCODING 15215
SWIDTH 960 0
DWIDTH 8 0
BBX 8 8 0 -2
BITMAP
48
fe
08
dc
00
d2
ee
00
ENDCHAR
STARTCHAR 3b70
ENCODING 15216
SWIDTH 960 0
DWIDTH 8 0
BBX 8 8 0 -2
BITMAP
a8
ce
16
c4
2a
de
de
00
ENDCHAR
STARTCHAR 3b71
ENCODING 15217
SWIDTH 960 0
DWIDTH 8 0
BBX 8 8 0 -2
BITMAP
90
1e
2a
94
7c
7c
c6
00
ENDCHAR
STARTCHAR 3b72
ENCODING 15218
SWIDTH 960 0
DWIDTH 8 0
BBX 8 8 0 -2
BITMAP
fe
b2
fe
a8
ee
16
aa
00
ENDCHAR
STARTCHAR 3b73
ENCODING 15219
SWIDTH 960 0
DWIDTH 8 0
BBX 8 8 0 -2
BITMAP
54
5e
f4
de
d4
f4
de
00
ENDCHAR
STARTCHAR 3b74
ENCODING 15220
SWIDTH 960 0
DWIDTH 8 0
BBX 8 8 0 -2
BITMAP
5e
a2
5a
c2
da
9a
e6
00
ENDCHAR
STARTCHAR 3b75
ENCODING 15221
SWIDTH 960 0
DWIDTH 8 0
BBX 8 8 0 -2
BITMAP
10
5e
fc
76
5a
76
7e
00
ENDCHAR
STARTCHAR 3b76
ENCODING 15222
SWIDTH 960 0
DWIDTH 8 0
BBX 8 8 0 -2
BITMAP
10
fe
54
fc
16
fc
30
00
ENDCHAR
STARTCHAR 3b77
ENCODING 15223
SWIDTH 960 0
DWIDTH 8 0
BBX 8 8 0 -2
BITMAP
32
56
d2
5a
72
44
5a
00
ENDCHAR
STARTCHAR 3b78
ENCODING 15224
SWIDTH 960 0
DWIDTH 8 0
BBX 8 8 0 -2
BITMAP
28
5c
c8
7e
44
7e
54
00
ENDCHAR
STARTCHAR 3b79
ENCODING 15225
SWIDTH 960 0
DWIDTH 8 0
BBX 8 8 0 -2
BITMAP
5c
54
5c
54
5c
2a
ce
00
ENDCHAR
STARTCHAR 3b7a
ENCODING 15226
SWIDTH 960 0
DWIDTH 8 0
BBX 8 8 0 -2
BITMAP
10
fe
ba
08
fe
10
30
00
ENDCHAR
STARTCHAR 3b7b
ENCODING 15227
SWIDTH 960 0
DWIDTH 8 0
BBX 8 8 0 -2
BITMAP
10
7c
10
fe
08
fe
28
00
ENDCHAR
STARTCHAR 3b7c
ENCODING 15228
SWIDTH 960 0
DWIDTH 8 0
BBX 8 8 0 -2
BITMAP
24
fe
24
48
24
ca
ba
00
ENDCHAR
STARTCHAR 3b7d
ENCODING 15229
SWIDTH 960 0
DWIDTH 8 0
BBX 8 8 0 -2
BITMAP
48
dc
48
7e
c4
7e
d4
00
ENDCHAR
STARTCHAR 3b7e
ENCODING 15230
SWIDTH 960 0
DWIDTH 8 0
BBX 8 8 0 -2
BITMAP
08
fc
a8
fe
a4
fe
14
00
ENDCHAR
STARTCHAR 3c21
ENCODING 15393
SWIDTH 960 0
DWIDTH 8 0
BBX 8 8 0 -2
BITMAP
90
1e
2a
08
88
94
a2
00
ENDCHAR
STARTCHAR 3c22
ENCODING 15394
SWIDTH 960 0
DWIDTH 8 0
BBX 8 8 0 -2
BITMAP
94
3e
92
24
92
a4
b6
00
ENDCHAR
STARTCHAR 3c23
ENCODING 15395
SWIDTH 960 0
DWIDTH 8 0
BBX 8 8 0 -2
BITMAP
88
08
94
3a
80
9c
9c
00
ENDCHAR
STARTCHAR 3c24
ENCODING 15396
SWIDTH 960 0
DWIDTH 8 0
BBX 8 8 0 -2
BITMAP
fe
54
fe
b6
da
b6
da
00
ENDCHAR
STARTCHAR 3c25
ENCODING 15397
SWIDTH 960 0
DWIDTH 8 0
BBX 8 8 0 -2
BITMAP
fe
54
fe
b6
da
7c
fe
00
ENDCHAR
STARTCHAR 3c26
ENCODING 15398
SWIDTH 960 0
DWIDTH 8 0
BBX 8 8 0 -2
BITMAP
08
7e
dc
48
fe
54
8c
00
ENDCHAR
STARTCHAR 3c27
ENCODING 15399
SWIDTH 960 0
DWIDTH 8 0
BBX 8 8 0 -2
BITMAP
ea
5e
4a
94
6a
74
1e
00
ENDCHAR
STARTCHAR 3c28
ENCODING 15400
SWIDTH 960 0
DWIDTH 8 0
BBX 8 8 0 -2
BITMAP
7c
00
fe
10
54
92
30
00
ENDCHAR
STARTCHAR 3c29
ENCODING 15401
SWIDTH 960 0
DWIDTH 8 0
BBX 8 8 0 -2
BITMAP
fe
10
fe
aa
aa
aa
aa
00
ENDCHAR
STARTCHAR 3c2a
ENCODING 15402
SWIDTH 960 0
DWIDTH 8 0
BBX 8 8 0 -2
BITMAP
fe
24
3c
3c
24
fe
04
00
ENDCHAR
STARTCHAR 3c2b
ENCODING 15403
SWIDTH 960 0
DWIDTH 8 0
BBX 8 8 0 -2
BITMAP
10
7e
42
7a
5e
42
7e
00
ENDCHAR
STARTCHAR 3c2c
ENCODING 15404
SWIDTH 960 0
DWIDTH 8 0
BBX 8 8 0 -2
BITMAP
28
fe
1c
c8
fe
d4
0c
00
ENDCHAR
STARTCHAR 3c2d
ENCODING 15405
SWIDTH 960 0
DWIDTH 8 0
BBX 8 8 0 -2
BITMAP
24
de
ea
5e
e4
be
e4
00
ENDCHAR
STARTCHAR 3c2e
ENCODING 15406
SWIDTH 960 0
DWIDTH 8 0
BBX 8 8 0 -2
BITMAP
88
0e
92
2a
84
88
b0
00
ENDCHAR
STARTCHAR 3c2f
ENCODING 15407
SWIDTH 960 0
DWIDTH 8 0
BBX 8 8 0 -2
BITMAP
08
7e
54
7c
76
64
b6
00
ENDCHAR
STARTCHAR 3c30
ENCODING 15408
SWIDTH 960 0
DWIDTH 8 0
BBX 8 8 0 -2
BITMAP
0a
fe
08
78
24
34
c2
00
ENDCHAR
STARTCHAR 3c31
ENCODING 15409
SWIDTH 960 0
DWIDTH 8 0
BBX 8 8 0 -2
BITMAP
56
fc
1e
bc
06
dc
da
00
ENDCHAR
STARTCHAR 3c32
ENCODING 15410
SWIDTH 960 0
DWIDTH 8 0
BBX 8 8 0 -2
BITMAP
04
ee
ee
e8
ee
e2
16
00
ENDCHAR
STARTCHAR 3c33
ENCODING 15411
SWIDTH 960 0
DWIDTH 8 0
BBX 8 8 0 -2
BITMAP
48
6e
b4
00
7c
00
fe
00
ENDCHAR
STARTCHAR 3c34
ENCODING 15412
SWIDTH 960 0
DWIDTH 8 0
BBX 8 8 0 -2
BITMAP
e4
5e
f6
fe
56
f6
5e
00
ENDCHAR
STARTCHAR 3c35
ENCODING 15413
SWIDTH 960 0
DWIDTH 8 0
BBX 8 8 0 -2
BITMAP
10
fe
82
10
fe
00
c6
00
ENDCHAR
STARTCHAR 3c36
ENCODING 15414
SWIDTH 960 0
DWIDTH 8 0
BBX 8 8 0 -2
BITMAP
38
fe
b6
00
fe
18
14
00
ENDCHAR
STARTCHAR 3c37
ENCODING 15415
SWIDTH 960 0
DWIDTH 8 0
BBX 8 8 0 -2
BITMAP
20
20
2e
f0
20
22
1e
00
ENDCHAR
STARTCHAR 3c38
ENCODING 15416
SWIDTH 960 0
DWIDTH 8 0
BBX 8 8 0 -2
BITMAP
10
f0
b2
bc
f0
12
1e
00
ENDCHAR
STARTCHAR 3c39
ENCODING 15417
SWIDTH 960 0
DWIDTH 8 0
BBX 8 8 0 -2
BITMAP
28
7c
f4
54
fc
74
26
00
ENDCHAR
STARTCHAR 3c3a
ENCODING 15418
SWIDTH 960 0
DWIDTH 8 0
BBX 8 8 0 -2
BITMAP
50
7c
90
fe
10
28
c6
00
ENDCHAR
STARTCHAR 3c3b
ENCODING 15419
SWIDTH 960 0
DWIDTH 8 0
BBX 8 8 0 -2
BITMAP
84
9e
f0
d8
fe
54
aa
00
ENDCHAR
STARTCHAR 3c3c
ENCODING 15420
SWIDTH 960 0
DWIDTH 8 0
BBX 8 8 0 -2
BITMAP
10
fe
b2
28
74
10
fe
00
ENDCHAR
STARTCHAR 3c3d
ENCODING 15421
SWIDTH 960 0
DWIDTH 8 0
BBX 8 8 0 -2
BITMAP
fe
54
fe
38
d6
48
ba
00
ENDCHAR
STARTCHAR 3c3e
ENCODING 15422
SWIDTH 960 0
DWIDTH 8 0
BBX 8 8 0 -2
BITMAP
be
22
be
14
b6
94
be
00
ENDCHAR
STARTCHAR 3c3f
ENCODING 15423
SWIDTH 960 0
DWIDTH 8 0
BBX 8 8 0 -2
BITMAP
88
3e
9c
2a
9c
ac
da
00
ENDCHAR
STARTCHAR 3c40
ENCODING 15424
SWIDTH 960 0
DWIDTH 8 0
BBX 8 8 0 -2
BITMAP
08
7e
d0
5c
fe
48
b6
00
ENDCHAR
STARTCHAR 3c41
ENCODING 15425
SWIDTH 960 0
DWIDTH 8 0
BBX 8 8 0 -2
BITMAP
24
48
6e
bc
24
3c
c6
00
ENDCHAR
STARTCHAR 3c42
ENCODING 15426
SWIDTH 960 0
DWIDTH 8 0
BBX 8 8 0 -2
BITMAP
10
fe
ba
10
fe
10
ee
00
ENDCHAR
STARTCHAR 3c43
ENCODING 15427
SWIDTH 960 0
DWIDTH 8 0
BBX 8 8 0 -2
BITMAP
28
fe
26
fc
56
fe
74
00
ENDCHAR
STARTCHAR 3c44
ENCODING 15428
SWIDTH 960 0
DWIDTH 8 0
BBX 8 8 0 -2
BITMAP
48
6e
b4
48
fe
5c
6a
00
ENDCHAR
STARTCHAR 3c45
ENCODING 15429
SWIDTH 960 0
DWIDTH 8 0
BBX 8 8 0 -2
BITMAP
3e
5a
de
5e
40
72
6e
00
ENDCHAR
STARTCHAR 3c46
ENCODING 15430
SWIDTH 960 0
DWIDTH 8 0
BBX 8 8 0 -2
BITMAP
24
b6
a4
f6
fe
38
d6
00
ENDCHAR
STARTCHAR 3c47
ENCODING 15431
SWIDTH 960 0
DWIDTH 8 0
BBX 8 8 0 -2
BITMAP
28
fe
10
7c
08
50
be
00
ENDCHAR
STARTCHAR 3c48
ENCODING 15432
SWIDTH 960 0
DWIDTH 8 0
BBX 8 8 0 -2
BITMAP
7e
7e
6a
5c
7e
54
ba
00
ENDCHAR
STARTCHAR 3c49
ENCODING 15433
SWIDTH 960 0
DWIDTH 8 0
BBX 8 8 0 -2
BITMAP
28
fe
54
ca
78
ca
b6
00
ENDCHAR
STARTCHAR 3c4a
ENCODING 15434
SWIDTH 960 0
DWIDTH 8 0
BBX 8 8 0 -2
BITMAP
48
be
54
9c
7e
e2
6a
00
ENDCHAR
STARTCHAR 3c4b
ENCODING 15435
SWIDTH 960 0
DWIDTH 8 0
BBX 8 8 0 -2
BITMAP
10
28
d6
38
fe
44
7c
00
ENDCHAR
STARTCHAR 3c4c
ENCODING 15436
SWIDTH 960 0
DWIDTH 8 0
BBX 8 8 0 -2
BITMAP
fe
a2
3c
20
fe
08
18
00
ENDCHAR
STARTCHAR 3c4d
ENCODING 15437
SWIDTH 960 0
DWIDTH 8 0
BBX 8 8 0 -2
BITMAP
22
7e
52
7a
d6
32
d6
00
ENDCHAR
STARTCHAR 3c4e
ENCODING 15438
SWIDTH 960 0
DWIDTH 8 0
BBX 8 8 0 -2
BITMAP
48
d4
6a
5c
fe
54
dc
00
ENDCHAR
STARTCHAR 3c4f
ENCODING 15439
SWIDTH 960 0
DWIDTH 8 0
BBX 8 8 0 -2
BITMAP
24
76
2a
fa
5a
d4
5a
00
ENDCHAR
STARTCHAR 3c50
ENCODING 15440
SWIDTH 960 0
DWIDTH 8 0
BBX 8 8 0 -2
BITMAP
22
5a
f2
2a
f2
2e
b2
00
ENDCHAR
STARTCHAR 3c51
ENCODING 15441
SWIDTH 960 0
DWIDTH 8 0
BBX 8 8 0 -2
BITMAP
14
7c
18
fe
5c
00
aa
00
ENDCHAR
STARTCHAR 3c52
ENCODING 15442
SWIDTH 960 0
DWIDTH 8 0
BBX 8 8 0 -2
BITMAP
44
e4
2e
44
e4
44
5e
00
ENDCHAR
STARTCHAR 3c53
ENCODING 15443
SWIDTH 960 0
DWIDTH 8 0
BBX 8 8 0 -2
BITMAP
48
9c
5a
a8
4a
e4
58
00
ENDCHAR
STARTCHAR 3c54
ENCODING 15444
SWIDTH 960 0
DWIDTH 8 0
BBX 8 8 0 -2
BITMAP
12
7c
18
fe
20
dc
1c
00
ENDCHAR
STARTCHAR 3c55
ENCODING 15445
SWIDTH 960 0
DWIDTH 8 0
BBX 8 8 0 -2
BITMAP
52
fe
2a
be
2e
da
ea
00
ENDCHAR
STARTCHAR 3c56
ENCODING 15446
SWIDTH 960 0
DWIDTH 8 0
BBX 8 8 0 -2
BITMAP
10
fe
54
7c
54
fe
10
00
ENDCHAR
STARTCHAR 3c57
ENCODING 15447
SWIDTH 960 0
DWIDTH 8 0
BBX 8 8 0 -2
BITMAP
88
3e
2c
fe
40
6a
be
00
ENDCHAR
STARTCHAR 3c58
ENCODING 15448
SWIDTH 960 0
DWIDTH 8 0
BBX 8 8 0 -2
BITMAP
44
fe
b2
e8
4e
68
ce
00
ENDCHAR
STARTCHAR 3c59
ENCODING 15449
SWIDTH 960 0
DWIDTH 8 0
BBX 8 8 0 -2
BITMAP
fe
aa
ac
fa
6a
ac
68
00
ENDCHAR
STARTCHAR 3c5a
ENCODING 15450
SWIDTH 960 0
DWIDTH 8 0
BBX 8 8 0 -2
BITMAP
54
7e
d4
fe
5c
54
5c
00
ENDCHAR
STARTCHAR 3c5b
ENCODING 15451
SWIDTH 960 0
DWIDTH 8 0
BBX 8 8 0 -2
BITMAP
20
3e
42
a2
12
02
06
00
ENDCHAR
STARTCHAR 3c5c
ENCODING 15452
SWIDTH 960 0
DWIDTH 8 0
BBX 8 8 0 -2
BITMAP
7c
44
7c
50
48
44
82
00
ENDCHAR
STARTCHAR 3c5d
ENCODING 15453
SWIDTH 960 0
DWIDTH 8 0
BBX 8 8 0 -2
BITMAP
50
de
62
d2
ca
42
46
00
ENDCHAR
STARTCHAR 3c5e
ENCODING 15454
SWIDTH 960 0
DWIDTH 8 0
BBX 8 8 0 -2
BITMAP
50
5e
e2
d2
4a
62
86
00
ENDCHAR
STARTCHAR 3c5f
ENCODING 15455
SWIDTH 960 0
DWIDTH 8 0
BBX 8 8 0 -2
BITMAP
fe
54
7e
7e
66
52
f6
00
ENDCHAR
STARTCHAR 3c60
ENCODING 15456
SWIDTH 960 0
DWIDTH 8 0
BBX 8 8 0 -2
BITMAP
e8
4e
f2
ea
a6
e2
e6
00
ENDCHAR
STARTCHAR 3c61
ENCODING 15457
SWIDTH 960 0
DWIDTH 8 0
BBX 8 8 0 -2
BITMAP
fe
2a
ba
2c
fc
6a
b2
00
ENDCHAR
STARTCHAR 3c62
ENCODING 15458
SWIDTH 960 0
DWIDTH 8 0
BBX 8 8 0 -2
BITMAP
5e
b2
fe
48
ee
76
ca
00
ENDCHAR
STARTCHAR 3c63
ENCODING 15459
SWIDTH 960 0
DWIDTH 8 0
BBX 8 8 0 -2
BITMAP
28
fe
20
fe
40
bc
3c
00
ENDCHAR
STARTCHAR 3c64
ENCODING 15460
SWIDTH 960 0
DWIDTH 8 0
BBX 8 8 0 -2
BITMAP
10
fe
b2
2e
fa
24
aa
00
ENDCHAR
STARTCHAR 3c65
ENCODING 15461
SWIDTH 960 0
DWIDTH 8 0
BBX 8 8 0 -2
BITMAP
ee
22
ee
88
66
aa
66
00
ENDCHAR
STARTCHAR 3c66
ENCODING 15462
SWIDTH 960 0
DWIDTH 8 0
BBX 8 8 0 -2
BITMAP
28
fe
20
fe
5c
ca
ba
00
ENDCHAR
STARTCHAR 3c67
ENCODING 15463
SWIDTH 960 0
DWIDTH 8 0
BBX 8 8 0 -2
BITMAP
20
10
fe
10
7c
10
fe
00
ENDCHAR
STARTCHAR 3c68
ENCODING 15464
SWIDTH 960 0
DWIDTH 8 0
BBX 8 8 0 -2
BITMAP
f0
5e
72
7a
54
fa
10
00
ENDCHAR
STARTCHAR 3c69
ENCODING 15465
SWIDTH 960 0
DWIDTH 8 0
BBX 8 8 0 -2
BITMAP
10
fe
82
08
fe
28
18
00
ENDCHAR
STARTCHAR 3c6a
ENCODING 15466
SWIDTH 960 0
DWIDTH 8 0
BBX 8 8 0 -2
BITMAP
0c
70
fe
10
fe
10
30
00
ENDCHAR
STARTCHAR 3c6b
ENCODING 15467
SWIDTH 960 0
DWIDTH 8 0
BBX 8 8 0 -2
BITMAP
50
7c
90
fe
10
38
d6
00
ENDCHAR
STARTCHAR 3c6c
ENCODING 15468
SWIDTH 960 0
DWIDTH 8 0
BBX 8 8 0 -2
BITMAP
f8
5c
68
be
68
5c
aa
00
ENDCHAR
STARTCHAR 3c6d
ENCODING 15469
SWIDTH 960 0
DWIDTH 8 0
BBX 8 8 0 -2
BITMAP
a8
5e
d2
44
fe
54
8c
00
ENDCHAR
STARTCHAR 3c6e
ENCODING 15470
SWIDTH 960 0
DWIDTH 8 0
BBX 8 8 0 -2
BITMAP
d8
5c
68
fe
48
dc
2a
00
ENDCHAR
STARTCHAR 3c6f
ENCODING 15471
SWIDTH 960 0
DWIDTH 8 0
BBX 8 8 0 -2
BITMAP
c4
58
fe
5c
dc
c8
7e
00
ENDCHAR
STARTCHAR 3c70
ENCODING 15472
SWIDTH 960 0
DWIDTH 8 0
BBX 8 8 0 -2
BITMAP
e2
ac
fe
ae
ee
a4
be
00
ENDCHAR
STARTCHAR 3c71
ENCODING 15473
SWIDTH 960 0
DWIDTH 8 0
BBX 8 8 0 -2
BITMAP
58
ee
5a
ec
5a
c8
be
00
ENDCHAR
STARTCHAR 3c72
ENCODING 15474
SWIDTH 960 0
DWIDTH 8 0
BBX 8 8 0 -2
BITMAP
be
14
be
36
a2
be
be
00
ENDCHAR
STARTCHAR 3c73
ENCODING 15475
SWIDTH 960 0
DWIDTH 8 0
BBX 8 8 0 -2
BITMAP
24
fe
10
7c
7c
44
7c
00
ENDCHAR
STARTCHAR 3c74
ENCODING 15476
SWIDTH 960 0
DWIDTH 8 0
BBX 8 8 0 -2
BITMAP
5c
7e
ea
dc
48
7e
6a
00
ENDCHAR
STARTCHAR 3c75
ENCODING 15477
SWIDTH 960 0
DWIDTH 8 0
BBX 8 8 0 -2
BITMAP
fe
54
fe
ba
28
10
ee
00
ENDCHAR
STARTCHAR 3c76
ENCODING 15478
SWIDTH 960 0
DWIDTH 8 0
BBX 8 8 0 -2
BITMAP
3e
e2
a2
be
f4
14
66
00
ENDCHAR
STARTCHAR 3c77
ENCODING 15479
SWIDTH 960 0
DWIDTH 8 0
BBX 8 8 0 -2
BITMAP
10
7c
fe
24
fe
44
94
00
ENDCHAR
STARTCHAR 3c78
ENCODING 15480
SWIDTH 960 0
DWIDTH 8 0
BBX 8 8 0 -2
BITMAP
7e
d4
7e
62
dc
48
f6
00
ENDCHAR
STARTCHAR 3c79
ENCODING 15481
SWIDTH 960 0
DWIDTH 8 0
BBX 8 8 0 -2
BITMAP
52
fe
52
fa
ee
52
7a
00
ENDCHAR
STARTCHAR 3c7a
ENCODING 15482
SWIDTH 960 0
DWIDTH 8 0
BBX 8 8 0 -2
BITMAP
7e
94
7e
a2
5c
c8
76
00
ENDCHAR
STARTCHAR 3c7b
ENCODING 15483
SWIDTH 960 0
DWIDTH 8 0
BBX 8 8 0 -2
BITMAP
38
fe
b6
7c
10
fe
aa
00
ENDCHAR
STARTCHAR 3c7c
ENCODING 15484
SWIDTH 960 0
DWIDTH 8 0
BBX 8 8 0 -2
BITMAP
fe
92
92
92
aa
c6
fe
00
ENDCHAR
STARTCHAR 3c7d
ENCODING 15485
SWIDTH 960 0
DWIDTH 8 0
BBX 8 8 0 -2
BITMAP
2e
a2
aa
aa
b4
e4
2a
00
ENDCHAR
STARTCHAR 3c7e
ENCODING 15486
SWIDTH 960 0
DWIDTH 8 0
BBX 8 8 0 -2
BITMAP
7e
52
7a
52
7e
6a
ba
00
ENDCHAR
STARTCHAR 3d21
ENCODING 15649
SWIDTH 960 0
DWIDTH 8 0
BBX 8 8 0 -2
BITMAP
10
fe
ba
00
fe
54
b2
00
ENDCHAR
STARTCHAR 3d22
ENCODING 15650
SWIDTH 960 0
DWIDTH 8 0
BBX 8 8 0 -2
BITMAP
26
f4
5e
74
24
b4
6a
00
ENDCHAR
STARTCHAR 3d23
ENCODING 15651
SWIDTH 960 0
DWIDTH 8 0
BBX 8 8 0 -2
BITMAP
52
52
f6
f6
52
52
92
00
ENDCHAR
STARTCHAR 3d24
ENCODING 15652
SWIDTH 960 0
DWIDTH 8 0
BBX 8 8 0 -2
BITMAP
28
6e
f4
6a
64
62
4c
00
ENDCHAR
STARTCHAR 3d25
ENCODING 15653
SWIDTH 960 0
DWIDTH 8 0
BBX 8 8 0 -2
BITMAP
74
fe
74
aa
00
ca
ba
00
ENDCHAR
STARTCHAR 3d26
ENCODING 15654
SWIDTH 960 0
DWIDTH 8 0
BBX 8 8 0 -2
BITMAP
48
d4
6e
40
dc
54
dc
00
ENDCHAR
STARTCHAR 3d27
ENCODING 15655
SWIDTH 960 0
DWIDTH 8 0
BBX 8 8 0 -2
BITMAP
aa
2a
fe
7e
aa
aa
ca
00
ENDCHAR
STARTCHAR 3d28
ENCODING 15656
SWIDTH 960 0
DWIDTH 8 0
BBX 8 8 0 -2
BITMAP
38
fe
38
d6
78
2c
c4
00
ENDCHAR
STARTCHAR 3d29
ENCODING 15657
SWIDTH 960 0
DWIDTH 8 0
BBX 8 8 0 -2
BITMAP
c8
48
ea
6c
c8
d4
62
00
ENDCHAR
STARTCHAR 3d2a
ENCODING 15658
SWIDTH 960 0
DWIDTH 8 0
BBX 8 8 0 -2
BITMAP
4c
94
48
b6
48
e0
4c
00
ENDCHAR
STARTCHAR 3d2b
ENCODING 15659
SWIDTH 960 0
DWIDTH 8 0
BBX 8 8 0 -2
BITMAP
48
bc
4e
bc
5a
de
6a
00
ENDCHAR
STARTCHAR 3d2c
ENCODING 15660
SWIDTH 960 0
DWIDTH 8 0
BBX 8 8 0 -2
BITMAP
fe
5a
36
da
20
7c
7c
00
ENDCHAR
STARTCHAR 3d2d
ENCODING 15661
SWIDTH 960 0
DWIDTH 8 0
BBX 8 8 0 -2
BITMAP
10
7c
44
7c
fe
10
ee
00
ENDCHAR
STARTCHAR 3d2e
ENCODING 15662
SWIDTH 960 0
DWIDTH 8 0
BBX 8 8 0 -2
BITMAP
10
7c
54
44
fe
54
94
00
ENDCHAR
STARTCHAR 3d2f
ENCODING 15663
SWIDTH 960 0
DWIDTH 8 0
BBX 8 8 0 -2
BITMAP
28
fe
10
7c
7c
2a
ce
00
ENDCHAR
STARTCHAR 3d30
ENCODING 15664
SWIDTH 960 0
DWIDTH 8 0
BBX 8 8 0 -2
BITMAP
10
7c
fe
50
9a
54
92
00
ENDCHAR
STARTCHAR 3d31
ENCODING 15665
SWIDTH 960 0
DWIDTH 8 0
BBX 8 8 0 -2
BITMAP
26
fc
56
fa
fe
68
b6
00
ENDCHAR
STARTCHAR 3d32
ENCODING 15666
SWIDTH 960 0
DWIDTH 8 0
BBX 8 8 0 -2
BITMAP
54
76
ec
76
fe
44
7c
00
ENDCHAR
STARTCHAR 3d33
ENCODING 15667
SWIDTH 960 0
DWIDTH 8 0
BBX 8 8 0 -2
BITMAP
d6
bc
ee
7c
d4
fc
d2
00
ENDCHAR
STARTCHAR 3d34
ENCODING 15668
SWIDTH 960 0
DWIDTH 8 0
BBX 8 8 0 -2
BITMAP
dc
54
fe
dc
54
fe
44
00
ENDCHAR
STARTCHAR 3d35
ENCODING 15669
SWIDTH 960 0
DWIDTH 8 0
BBX 8 8 0 -2
BITMAP
be
2a
3e
ea
76
5e
be
00
ENDCHAR
STARTCHAR 3d36
ENCODING 15670
SWIDTH 960 0
DWIDTH 8 0
BBX 8 8 0 -2
BITMAP
24
fe
28
7c
6c
44
7c
00
ENDCHAR
STARTCHAR 3d37
ENCODING 15671
SWIDTH 960 0
DWIDTH 8 0
BBX 8 8 0 -2
BITMAP
ea
4a
fe
fe
aa
ea
ea
00
ENDCHAR
STARTCHAR 3d38
ENCODING 15672
SWIDTH 960 0
DWIDTH 8 0
BBX 8 8 0 -2
BITMAP
28
7c
a8
3c
fe
38
d6
00
ENDCHAR
STARTCHAR 3d39
ENCODING 15673
SWIDTH 960 0
DWIDTH 8 0
BBX 8 8 0 -2
BITMAP
e8
5e
fa
fe
be
ec
f6
00
ENDCHAR
STARTCHAR 3d3a
ENCODING 15674
SWIDTH 960 0
DWIDTH 8 0
BBX 8 8 0 -2
BITMAP
28
48
fe
48
48
48
48
00
ENDCHAR
STARTCHAR 3d3b
ENCODING 15675
SWIDTH 960 0
DWIDTH 8 0
BBX 8 8 0 -2
BITMAP
28
44
de
44
4e
44
5e
00
ENDCHAR
STARTCHAR 3d3c
ENCODING 15676
SWIDTH 960 0
DWIDTH 8 0
BBX 8 8 0 -2
BITMAP
10
fe
28
74
28
2a
ce
00
ENDCHAR
STARTCHAR 3d3d
ENCODING 15677
SWIDTH 960 0
DWIDTH 8 0
BBX 8 8 0 -2
BITMAP
10
10
fe
10
10
10
10
00
ENDCHAR
STARTCHAR 3d3e
ENCODING 15678
SWIDTH 960 0
DWIDTH 8 0
BBX 8 8 0 -2
BITMAP
4a
be
44
d6
54
54
6e
00
ENDCHAR
STARTCHAR 3d3f
ENCODING 15679
SWIDTH 960 0
DWIDTH 8 0
BBX 8 8 0 -2
BITMAP
0a
fe
08
48
ea
44
9a
00
ENDCHAR
STARTCHAR 3d40
ENCODING 15680
SWIDTH 960 0
DWIDTH 8 0
BBX 8 8 0 -2
BITMAP
38
fe
52
b0
fe
38
d6
00
ENDCHAR
STARTCHAR 3d41
ENCODING 15681
SWIDTH 960 0
DWIDTH 8 0
BBX 8 8 0 -2
BITMAP
88
08
be
08
88
88
88
00
ENDCHAR
STARTCHAR 3d42
ENCODING 15682
SWIDTH 960 0
DWIDTH 8 0
BBX 8 8 0 -2
BITMAP
84
16
94
3e
a2
94
a2
00
ENDCHAR
STARTCHAR 3d43
ENCODING 15683
SWIDTH 960 0
DWIDTH 8 0
BBX 8 8 0 -2
BITMAP
d6
74
7e
04
f4
54
7a
00
ENDCHAR
STARTCHAR 3d44
ENCODING 15684
SWIDTH 960 0
DWIDTH 8 0
BBX 8 8 0 -2
BITMAP
5a
ae
54
b6
54
dc
56
00
ENDCHAR
STARTCHAR 3d45
ENCODING 15685
SWIDTH 960 0
DWIDTH 8 0
BBX 8 8 0 -2
BITMAP
38
fe
54
7c
54
38
fe
00
ENDCHAR
STARTCHAR 3d46
ENCODING 15686
SWIDTH 960 0
DWIDTH 8 0
BBX 8 8 0 -2
BITMAP
48
be
d4
7a
d4
54
e6
00
ENDCHAR
STARTCHAR 3d47
ENCODING 15687
SWIDTH 960 0
DWIDTH 8 0
BBX 8 8 0 -2
BITMAP
2e
32
2a
fa
24
b4
6a
00
ENDCHAR
STARTCHAR 3d48
ENCODING 15688
SWIDTH 960 0
DWIDTH 8 0
BBX 8 8 0 -2
BITMAP
7c
7c
54
5c
6c
54
a6
00
ENDCHAR
STARTCHAR 3d49
ENCODING 15689
SWIDTH 960 0
DWIDTH 8 0
BBX 8 8 0 -2
BITMAP
10
fe
82
5e
c8
5e
5e
00
ENDCHAR
STARTCHAR 3d4a
ENCODING 15690
SWIDTH 960 0
DWIDTH 8 0
BBX 8 8 0 -2
BITMAP
ae
32
aa
7a
a4
f4
aa
00
ENDCHAR
STARTCHAR 3d4b
ENCODING 15691
SWIDTH 960 0
DWIDTH 8 0
BBX 8 8 0 -2
BITMAP
5e
f2
32
5e
ec
4c
56
00
ENDCHAR
STARTCHAR 3d4c
ENCODING 15692
SWIDTH 960 0
DWIDTH 8 0
BBX 8 8 0 -2
BITMAP
48
be
62
9e
74
d6
56
00
ENDCHAR
STARTCHAR 3d4d
ENCODING 15693
SWIDTH 960 0
DWIDTH 8 0
BBX 8 8 0 -2
BITMAP
10
7c
16
fc
56
7a
96
00
ENDCHAR
STARTCHAR 3d4e
ENCODING 15694
SWIDTH 960 0
DWIDTH 8 0
BBX 8 8 0 -2
BITMAP
28
fc
5c
7c
ae
10
fe
00
ENDCHAR
STARTCHAR 3d4f
ENCODING 15695
SWIDTH 960 0
DWIDTH 8 0
BBX 8 8 0 -2
BITMAP
28
fc
5c
7c
ae
00
aa
00
ENDCHAR
STARTCHAR 3d50
ENCODING 15696
SWIDTH 960 0
DWIDTH 8 0
BBX 8 8 0 -2
BITMAP
10
54
54
7c
92
92
fe
00
ENDCHAR
STARTCHAR 3d51
ENCODING 15697
SWIDTH 960 0
DWIDTH 8 0
BBX 8 8 0 -2
BITMAP
56
b8
56
fa
7a
52
56
00
ENDCHAR
STARTCHAR 3d52
ENCODING 15698
SWIDTH 960 0
DWIDTH 8 0
BBX 8 8 0 -2
BITMAP
8a
3e
08
ea
6a
48
be
00
ENDCHAR
STARTCHAR 3d53
ENCODING 15699
SWIDTH 960 0
DWIDTH 8 0
BBX 8 8 0 -2
BITMAP
32
7e
d4
66
5c
68
56
00
ENDCHAR
STARTCHAR 3d54
ENCODING 15700
SWIDTH 960 0
DWIDTH 8 0
BBX 8 8 0 -2
BITMAP
52
7e
54
e6
dc
e8
16
00
ENDCHAR
STARTCHAR 3d55
ENCODING 15701
SWIDTH 960 0
DWIDTH 8 0
BBX 8 8 0 -2
BITMAP
10
7c
38
fe
44
ba
38
00
ENDCHAR
STARTCHAR 3d56
ENCODING 15702
SWIDTH 960 0
DWIDTH 8 0
BBX 8 8 0 -2
BITMAP
fe
b4
fe
a2
f4
be
e4
00
ENDCHAR
STARTCHAR 3d57
ENCODING 15703
SWIDTH 960 0
DWIDTH 8 0
BBX 8 8 0 -2
BITMAP
52
fe
b4
a6
5c
e8
16
00
ENDCHAR
STARTCHAR 3d58
ENCODING 15704
SWIDTH 960 0
DWIDTH 8 0
BBX 8 8 0 -2
BITMAP
fe
54
fe
b2
5c
2e
c4
00
ENDCHAR
ENDFONT
